<?xml version="1.0" encoding="us-ascii" standalone="no"?><svg xmlns="http://www.w3.org/2000/svg" xmlns:xlink="http://www.w3.org/1999/xlink" contentStyleType="text/css" height="860px" preserveAspectRatio="none" style="width:2817px;height:860px;background:#FFFFFF;" version="1.1" viewBox="0 0 2817 860" width="2817px" zoomAndPan="magnify"><defs/><g><!--cluster timeseries--><g id="cluster_timeseries"><path d="M8.5,6 L92.5,6 A3.75,3.75 0 0 1 95,8.5 L102,28.2969 L2625.5,28.2969 A2.5,2.5 0 0 1 2628,30.7969 L2628,850.5 A2.5,2.5 0 0 1 2625.5,853 L8.5,853 A2.5,2.5 0 0 1 6,850.5 L6,8.5 A2.5,2.5 0 0 1 8.5,6 " fill="none" style="stroke:#000000;stroke-width:1.5;"/><line style="stroke:#000000;stroke-width:1.5;" x1="6" x2="102" y1="28.2969" y2="28.2969"/><text fill="#000000" font-family="sans-serif" font-size="14" font-weight="bold" lengthAdjust="spacing" textLength="83" x="10" y="20.9951">timeseries</text></g><!--class FilterFactory--><g id="elem_FilterFactory"><rect codeLine="2" fill="#F1F1F1" height="96.8906" id="FilterFactory" rx="2.5" ry="2.5" style="stroke:#181818;stroke-width:0.5;" width="140" x="1924" y="296"/><ellipse cx="1950.25" cy="312" fill="#ADD1B2" rx="11" ry="11" style="stroke:#181818;stroke-width:1.0;"/><path d="M1953.2188,317.6406 Q1952.6406,317.9375 1952,318.0781 Q1951.3594,318.2344 1950.6563,318.2344 Q1948.1563,318.2344 1946.8281,316.5938 Q1945.5156,314.9375 1945.5156,311.8125 Q1945.5156,308.6875 1946.8281,307.0313 Q1948.1563,305.375 1950.6563,305.375 Q1951.3594,305.375 1952,305.5313 Q1952.6563,305.6875 1953.2188,305.9844 L1953.2188,308.7031 Q1952.5938,308.125 1952,307.8594 Q1951.4063,307.5781 1950.7813,307.5781 Q1949.4375,307.5781 1948.75,308.6563 Q1948.0625,309.7188 1948.0625,311.8125 Q1948.0625,313.9063 1948.75,314.9844 Q1949.4375,316.0469 1950.7813,316.0469 Q1951.4063,316.0469 1952,315.7813 Q1952.5938,315.5 1953.2188,314.9219 L1953.2188,317.6406 Z " fill="#000000"/><text fill="#000000" font-family="sans-serif" font-size="14" lengthAdjust="spacing" textLength="83" x="1966.75" y="316.8467">FilterFactory</text><line style="stroke:#181818;stroke-width:0.5;" x1="1925" x2="2063" y1="328" y2="328"/><line style="stroke:#181818;stroke-width:0.5;" x1="1925" x2="2063" y1="336" y2="336"/><ellipse cx="1935" cy="349.6484" fill="#84BE84" rx="3" ry="3" style="stroke:#038048;stroke-width:1.0;"/><text fill="#000000" font-family="sans-serif" font-size="14" lengthAdjust="spacing" textLength="114" x="1944" y="352.9951">get(name): Filter</text><ellipse cx="1935" cy="365.9453" fill="#84BE84" rx="3" ry="3" style="stroke:#038048;stroke-width:1.0;"/><text fill="#000000" font-family="sans-serif" font-size="14" lengthAdjust="spacing" textLength="92" x="1944" y="369.292">register(filter)</text><ellipse cx="1935" cy="382.2422" fill="#84BE84" rx="3" ry="3" style="stroke:#038048;stroke-width:1.0;"/><text fill="#000000" font-family="sans-serif" font-size="14" lengthAdjust="spacing" textLength="66" x="1944" y="385.5889">list(): [str]</text></g><!--class Filter--><g id="elem_Filter"><rect codeLine="13" fill="#F1F1F1" height="194.6719" id="Filter" rx="2.5" ry="2.5" style="stroke:#181818;stroke-width:0.5;" width="304" x="1652" y="41"/><ellipse cx="1783.25" cy="57" fill="#B4A7E5" rx="11" ry="11" style="stroke:#181818;stroke-width:1.0;"/><path d="M1779.1719,52.7656 L1779.1719,50.6094 L1786.5625,50.6094 L1786.5625,52.7656 L1784.0938,52.7656 L1784.0938,60.8438 L1786.5625,60.8438 L1786.5625,63 L1779.1719,63 L1779.1719,60.8438 L1781.6406,60.8438 L1781.6406,52.7656 L1779.1719,52.7656 Z " fill="#000000"/><text fill="#000000" font-family="sans-serif" font-size="14" font-style="italic" lengthAdjust="spacing" textLength="33" x="1803.75" y="61.8467">Filter</text><line style="stroke:#181818;stroke-width:0.5;" x1="1653" x2="1955" y1="73" y2="73"/><rect fill="#F24D5C" height="6" style="stroke:#C82930;stroke-width:1.0;" width="6" x="1660" y="83.6484"/><text fill="#000000" font-family="sans-serif" font-size="14" lengthAdjust="spacing" textLength="245" x="1672" y="89.9951">__init__() # unrestricted and kwargs</text><line style="stroke:#181818;stroke-width:1.0;" x1="1653" x2="1955" y1="97.2969" y2="97.2969"/><rect fill="#F24D5C" height="6" style="stroke:#C82930;stroke-width:1.0;" width="6" x="1660" y="107.9453"/><text fill="#000000" font-family="sans-serif" font-size="14" lengthAdjust="spacing" textLength="76" x="1672" y="114.292">name(): str</text><rect fill="#F24D5C" height="6" style="stroke:#C82930;stroke-width:1.0;" width="6" x="1660" y="124.2422"/><text fill="#000000" font-family="sans-serif" font-size="14" lengthAdjust="spacing" textLength="120" x="1672" y="130.5889">init_kwargs(): dict</text><ellipse cx="1663" cy="143.5391" fill="#84BE84" rx="3" ry="3" style="stroke:#038048;stroke-width:1.0;"/><text fill="#000000" font-family="sans-serif" font-size="14" lengthAdjust="spacing" textLength="74" x="1672" y="146.8857">args(): dict</text><ellipse cx="1663" cy="159.8359" fill="#84BE84" rx="3" ry="3" style="stroke:#038048;stroke-width:1.0;"/><text fill="#000000" font-family="sans-serif" font-size="14" lengthAdjust="spacing" textLength="88" x="1672" y="163.1826">__rep__(): str</text><text fill="#000000" font-family="sans-serif" font-size="14" lengthAdjust="spacing" textLength="278" x="1672" y="179.4795">filter_data(data, stations, variables): Data</text><text fill="#000000" font-family="sans-serif" font-size="14" lengthAdjust="spacing" textLength="274" x="1672" y="195.7764">filter_stations(stations): dict[str, Station]</text><text fill="#000000" font-family="sans-serif" font-size="14" lengthAdjust="spacing" textLength="203" x="1672" y="212.0732">filter_variables(variables): [str]</text><text fill="#000000" font-family="sans-serif" font-size="14" lengthAdjust="spacing" textLength="4" x="1672" y="228.3701">&#160;</text></g><!--class VariableNameFilter--><g id="elem_VariableNameFilter"><rect codeLine="26" fill="#F1F1F1" height="194.6719" id="VariableNameFilter" rx="2.5" ry="2.5" style="stroke:#181818;stroke-width:0.5;" width="508" x="2104" y="453"/><ellipse cx="2290.25" cy="469" fill="#ADD1B2" rx="11" ry="11" style="stroke:#181818;stroke-width:1.0;"/><path d="M2293.2188,474.6406 Q2292.6406,474.9375 2292,475.0781 Q2291.3594,475.2344 2290.6563,475.2344 Q2288.1563,475.2344 2286.8281,473.5938 Q2285.5156,471.9375 2285.5156,468.8125 Q2285.5156,465.6875 2286.8281,464.0313 Q2288.1563,462.375 2290.6563,462.375 Q2291.3594,462.375 2292,462.5313 Q2292.6563,462.6875 2293.2188,462.9844 L2293.2188,465.7031 Q2292.5938,465.125 2292,464.8594 Q2291.4063,464.5781 2290.7813,464.5781 Q2289.4375,464.5781 2288.75,465.6563 Q2288.0625,466.7188 2288.0625,468.8125 Q2288.0625,470.9063 2288.75,471.9844 Q2289.4375,473.0469 2290.7813,473.0469 Q2291.4063,473.0469 2292,472.7813 Q2292.5938,472.5 2293.2188,471.9219 L2293.2188,474.6406 Z " fill="#000000"/><text fill="#000000" font-family="sans-serif" font-size="14" lengthAdjust="spacing" textLength="127" x="2310.75" y="473.8467">VariableNameFilter</text><line style="stroke:#181818;stroke-width:0.5;" x1="2105" x2="2611" y1="485" y2="485"/><line style="stroke:#181818;stroke-width:0.5;" x1="2105" x2="2611" y1="493" y2="493"/><ellipse cx="2115" cy="506.6484" fill="#84BE84" rx="3" ry="3" style="stroke:#038048;stroke-width:1.0;"/><text fill="#000000" font-family="sans-serif" font-size="14" lengthAdjust="spacing" textLength="482" x="2124" y="509.9951">__init__(reader_to_new, include, exclude): VariableNameChangingFilter</text><ellipse cx="2115" cy="522.9453" fill="#84BE84" rx="3" ry="3" style="stroke:#038048;stroke-width:1.0;"/><text fill="#000000" font-family="sans-serif" font-size="14" lengthAdjust="spacing" textLength="128" x="2124" y="526.292">name(): "variables"</text><ellipse cx="2115" cy="539.2422" fill="#84BE84" rx="3" ry="3" style="stroke:#038048;stroke-width:1.0;"/><text fill="#000000" font-family="sans-serif" font-size="14" lengthAdjust="spacing" textLength="120" x="2124" y="542.5889">init_kwargs(): dict</text><ellipse cx="2115" cy="555.5391" fill="#84BE84" rx="3" ry="3" style="stroke:#038048;stroke-width:1.0;"/><text fill="#000000" font-family="sans-serif" font-size="14" lengthAdjust="spacing" textLength="203" x="2124" y="558.8857">filter_variables(variables): [str]</text><ellipse cx="2115" cy="571.8359" fill="#84BE84" rx="3" ry="3" style="stroke:#038048;stroke-width:1.0;"/><text fill="#000000" font-family="sans-serif" font-size="14" lengthAdjust="spacing" textLength="278" x="2124" y="575.1826">filter_data(data, stations, variables): Data</text><text fill="#000000" font-family="sans-serif" font-size="14" lengthAdjust="spacing" textLength="243" x="2124" y="591.4795">new_varname(reader_varname): str</text><text fill="#000000" font-family="sans-serif" font-size="14" lengthAdjust="spacing" textLength="243" x="2124" y="607.7764">reader_varname(new_varname): str</text><text fill="#000000" font-family="sans-serif" font-size="14" lengthAdjust="spacing" textLength="228" x="2124" y="624.0732">has_variable(new_varname): bool</text><text fill="#000000" font-family="sans-serif" font-size="14" lengthAdjust="spacing" textLength="296" x="2124" y="640.3701">has_reader_variable(reader_varname): bool</text></g><!--class DataIndexFilter--><g id="elem_DataIndexFilter"><rect codeLine="38" fill="#F1F1F1" height="80.5938" id="DataIndexFilter" rx="2.5" ry="2.5" style="stroke:#181818;stroke-width:0.5;" width="317" x="1158.5" y="304"/><ellipse cx="1260.75" cy="320" fill="#A9DCDF" rx="11" ry="11" style="stroke:#181818;stroke-width:1.0;"/><path d="M1260.8594,315.3438 L1259.7031,320.4219 L1262.0313,320.4219 L1260.8594,315.3438 Z M1259.375,313.1094 L1262.3594,313.1094 L1265.7188,325.5 L1263.2656,325.5 L1262.5,322.4375 L1259.2188,322.4375 L1258.4688,325.5 L1256.0313,325.5 L1259.375,313.1094 Z " fill="#000000"/><text fill="#000000" font-family="sans-serif" font-size="14" font-style="italic" lengthAdjust="spacing" textLength="104" x="1281.25" y="324.8467">DataIndexFilter</text><line style="stroke:#181818;stroke-width:0.5;" x1="1159.5" x2="1474.5" y1="336" y2="336"/><line style="stroke:#181818;stroke-width:0.5;" x1="1159.5" x2="1474.5" y1="344" y2="344"/><ellipse cx="1169.5" cy="357.6484" fill="#84BE84" rx="3" ry="3" style="stroke:#038048;stroke-width:1.0;"/><text fill="#000000" font-family="sans-serif" font-size="14" lengthAdjust="spacing" textLength="278" x="1178.5" y="360.9951">filter_data(data, stations, variables): Data</text><rect fill="#F24D5C" height="6" style="stroke:#C82930;stroke-width:1.0;" width="6" x="1166.5" y="370.9453"/><text fill="#000000" font-family="sans-serif" font-size="14" lengthAdjust="spacing" textLength="291" x="1178.5" y="377.292">filter_data_idx(data, stations, variables): idx</text></g><!--class StationReductionFilter--><g id="elem_StationReductionFilter"><rect codeLine="44" fill="#F1F1F1" height="80.5938" id="StationReductionFilter" rx="2.5" ry="2.5" style="stroke:#181818;stroke-width:0.5;" width="330" x="22" y="510"/><ellipse cx="106.75" cy="526" fill="#A9DCDF" rx="11" ry="11" style="stroke:#181818;stroke-width:1.0;"/><path d="M106.8594,521.3438 L105.7031,526.4219 L108.0313,526.4219 L106.8594,521.3438 Z M105.375,519.1094 L108.3594,519.1094 L111.7188,531.5 L109.2656,531.5 L108.5,528.4375 L105.2188,528.4375 L104.4688,531.5 L102.0313,531.5 L105.375,519.1094 Z " fill="#000000"/><text fill="#000000" font-family="sans-serif" font-size="14" font-style="italic" lengthAdjust="spacing" textLength="152" x="127.25" y="530.8467">StationReductionFilter</text><line style="stroke:#181818;stroke-width:0.5;" x1="23" x2="351" y1="542" y2="542"/><line style="stroke:#181818;stroke-width:0.5;" x1="23" x2="351" y1="550" y2="550"/><ellipse cx="33" cy="563.6484" fill="#84BE84" rx="3" ry="3" style="stroke:#038048;stroke-width:1.0;"/><text fill="#000000" font-family="sans-serif" font-size="14" lengthAdjust="spacing" textLength="304" x="42" y="566.9951">filter_data_idx(data, stations, variables): Data</text><rect fill="#F24D5C" height="6" style="stroke:#C82930;stroke-width:1.0;" width="6" x="30" y="576.9453"/><text fill="#000000" font-family="sans-serif" font-size="14" lengthAdjust="spacing" textLength="274" x="42" y="583.292">filter_stations(stations): dict[str, Station]</text></g><!--class StationFilter--><g id="elem_StationFilter"><rect codeLine="49" fill="#F1F1F1" height="129.4844" id="StationFilter" rx="2.5" ry="2.5" style="stroke:#181818;stroke-width:0.5;" width="424" x="458" y="708"/><ellipse cx="625.25" cy="724" fill="#ADD1B2" rx="11" ry="11" style="stroke:#181818;stroke-width:1.0;"/><path d="M628.2188,729.6406 Q627.6406,729.9375 627,730.0781 Q626.3594,730.2344 625.6563,730.2344 Q623.1563,730.2344 621.8281,728.5938 Q620.5156,726.9375 620.5156,723.8125 Q620.5156,720.6875 621.8281,719.0313 Q623.1563,717.375 625.6563,717.375 Q626.3594,717.375 627,717.5313 Q627.6563,717.6875 628.2188,717.9844 L628.2188,720.7031 Q627.5938,720.125 627,719.8594 Q626.4063,719.5781 625.7813,719.5781 Q624.4375,719.5781 623.75,720.6563 Q623.0625,721.7188 623.0625,723.8125 Q623.0625,725.9063 623.75,726.9844 Q624.4375,728.0469 625.7813,728.0469 Q626.4063,728.0469 627,727.7813 Q627.5938,727.5 628.2188,726.9219 L628.2188,729.6406 Z " fill="#000000"/><text fill="#000000" font-family="sans-serif" font-size="14" lengthAdjust="spacing" textLength="81" x="645.75" y="728.8467">StationFilter</text><line style="stroke:#181818;stroke-width:0.5;" x1="459" x2="881" y1="740" y2="740"/><line style="stroke:#181818;stroke-width:0.5;" x1="459" x2="881" y1="748" y2="748"/><ellipse cx="469" cy="761.6484" fill="#84BE84" rx="3" ry="3" style="stroke:#038048;stroke-width:1.0;"/><text fill="#000000" font-family="sans-serif" font-size="14" lengthAdjust="spacing" textLength="398" x="478" y="764.9951">__init__(include=[station], exclude=[station]): StationFilter</text><ellipse cx="469" cy="777.9453" fill="#84BE84" rx="3" ry="3" style="stroke:#038048;stroke-width:1.0;"/><text fill="#000000" font-family="sans-serif" font-size="14" lengthAdjust="spacing" textLength="123" x="478" y="781.292">name(): "stations"</text><ellipse cx="469" cy="794.2422" fill="#84BE84" rx="3" ry="3" style="stroke:#038048;stroke-width:1.0;"/><text fill="#000000" font-family="sans-serif" font-size="14" lengthAdjust="spacing" textLength="120" x="478" y="797.5889">init_kwargs(): dict</text><ellipse cx="469" cy="810.5391" fill="#84BE84" rx="3" ry="3" style="stroke:#038048;stroke-width:1.0;"/><text fill="#000000" font-family="sans-serif" font-size="14" lengthAdjust="spacing" textLength="274" x="478" y="813.8857">filter_stations(stations): dict[str, Station]</text><text fill="#000000" font-family="sans-serif" font-size="14" lengthAdjust="spacing" textLength="175" x="478" y="830.1826">has_station(station): bool</text></g><!--class CountryFilter--><g id="elem_CountryFilter"><rect codeLine="57" fill="#F1F1F1" height="129.4844" id="CountryFilter" rx="2.5" ry="2.5" style="stroke:#181818;stroke-width:0.5;" width="440" x="1135" y="708"/><ellipse cx="1307.25" cy="724" fill="#ADD1B2" rx="11" ry="11" style="stroke:#181818;stroke-width:1.0;"/><path d="M1310.2188,729.6406 Q1309.6406,729.9375 1309,730.0781 Q1308.3594,730.2344 1307.6563,730.2344 Q1305.1563,730.2344 1303.8281,728.5938 Q1302.5156,726.9375 1302.5156,723.8125 Q1302.5156,720.6875 1303.8281,719.0313 Q1305.1563,717.375 1307.6563,717.375 Q1308.3594,717.375 1309,717.5313 Q1309.6563,717.6875 1310.2188,717.9844 L1310.2188,720.7031 Q1309.5938,720.125 1309,719.8594 Q1308.4063,719.5781 1307.7813,719.5781 Q1306.4375,719.5781 1305.75,720.6563 Q1305.0625,721.7188 1305.0625,723.8125 Q1305.0625,725.9063 1305.75,726.9844 Q1306.4375,728.0469 1307.7813,728.0469 Q1308.4063,728.0469 1309,727.7813 Q1309.5938,727.5 1310.2188,726.9219 L1310.2188,729.6406 Z " fill="#000000"/><text fill="#000000" font-family="sans-serif" font-size="14" lengthAdjust="spacing" textLength="87" x="1327.75" y="728.8467">CountryFilter</text><line style="stroke:#181818;stroke-width:0.5;" x1="1136" x2="1574" y1="740" y2="740"/><line style="stroke:#181818;stroke-width:0.5;" x1="1136" x2="1574" y1="748" y2="748"/><ellipse cx="1146" cy="761.6484" fill="#84BE84" rx="3" ry="3" style="stroke:#038048;stroke-width:1.0;"/><text fill="#000000" font-family="sans-serif" font-size="14" lengthAdjust="spacing" textLength="414" x="1155" y="764.9951">__init__(include=[country], exclude=[country]): CountryFilter</text><ellipse cx="1146" cy="777.9453" fill="#84BE84" rx="3" ry="3" style="stroke:#038048;stroke-width:1.0;"/><text fill="#000000" font-family="sans-serif" font-size="14" lengthAdjust="spacing" textLength="133" x="1155" y="781.292">name(): "countries"</text><ellipse cx="1146" cy="794.2422" fill="#84BE84" rx="3" ry="3" style="stroke:#038048;stroke-width:1.0;"/><text fill="#000000" font-family="sans-serif" font-size="14" lengthAdjust="spacing" textLength="120" x="1155" y="797.5889">init_kwargs(): dict</text><ellipse cx="1146" cy="810.5391" fill="#84BE84" rx="3" ry="3" style="stroke:#038048;stroke-width:1.0;"/><text fill="#000000" font-family="sans-serif" font-size="14" lengthAdjust="spacing" textLength="274" x="1155" y="813.8857">filter_stations(stations): dict[str, Station]</text><text fill="#000000" font-family="sans-serif" font-size="14" lengthAdjust="spacing" textLength="187" x="1155" y="830.1826">has_country(iso2_str): bool</text></g><!--class BoundingBoxFilter--><g id="elem_BoundingBoxFilter"><rect codeLine="65" fill="#F1F1F1" height="129.4844" id="BoundingBoxFilter" rx="2.5" ry="2.5" style="stroke:#181818;stroke-width:0.5;" width="479" x="1719.5" y="708"/><ellipse cx="1891.75" cy="724" fill="#ADD1B2" rx="11" ry="11" style="stroke:#181818;stroke-width:1.0;"/><path d="M1894.7188,729.6406 Q1894.1406,729.9375 1893.5,730.0781 Q1892.8594,730.2344 1892.1563,730.2344 Q1889.6563,730.2344 1888.3281,728.5938 Q1887.0156,726.9375 1887.0156,723.8125 Q1887.0156,720.6875 1888.3281,719.0313 Q1889.6563,717.375 1892.1563,717.375 Q1892.8594,717.375 1893.5,717.5313 Q1894.1563,717.6875 1894.7188,717.9844 L1894.7188,720.7031 Q1894.0938,720.125 1893.5,719.8594 Q1892.9063,719.5781 1892.2813,719.5781 Q1890.9375,719.5781 1890.25,720.6563 Q1889.5625,721.7188 1889.5625,723.8125 Q1889.5625,725.9063 1890.25,726.9844 Q1890.9375,728.0469 1892.2813,728.0469 Q1892.9063,728.0469 1893.5,727.7813 Q1894.0938,727.5 1894.7188,726.9219 L1894.7188,729.6406 Z " fill="#000000"/><text fill="#000000" font-family="sans-serif" font-size="14" lengthAdjust="spacing" textLength="126" x="1912.25" y="728.8467">BoundingBoxFilter</text><line style="stroke:#181818;stroke-width:0.5;" x1="1720.5" x2="2197.5" y1="740" y2="740"/><line style="stroke:#181818;stroke-width:0.5;" x1="1720.5" x2="2197.5" y1="748" y2="748"/><ellipse cx="1730.5" cy="761.6484" fill="#84BE84" rx="3" ry="3" style="stroke:#038048;stroke-width:1.0;"/><text fill="#000000" font-family="sans-serif" font-size="14" lengthAdjust="spacing" textLength="453" x="1739.5" y="764.9951">__init__(include=[country], exclude=[country]): BoundingBoxFilter</text><ellipse cx="1730.5" cy="777.9453" fill="#84BE84" rx="3" ry="3" style="stroke:#038048;stroke-width:1.0;"/><text fill="#000000" font-family="sans-serif" font-size="14" lengthAdjust="spacing" textLength="183" x="1739.5" y="781.292">name(): "bounding_boxes"</text><ellipse cx="1730.5" cy="794.2422" fill="#84BE84" rx="3" ry="3" style="stroke:#038048;stroke-width:1.0;"/><text fill="#000000" font-family="sans-serif" font-size="14" lengthAdjust="spacing" textLength="120" x="1739.5" y="797.5889">init_kwargs(): dict</text><ellipse cx="1730.5" cy="810.5391" fill="#84BE84" rx="3" ry="3" style="stroke:#038048;stroke-width:1.0;"/><text fill="#000000" font-family="sans-serif" font-size="14" lengthAdjust="spacing" textLength="274" x="1739.5" y="813.8857">filter_stations(stations): dict[str, Station]</text><text fill="#000000" font-family="sans-serif" font-size="14" lengthAdjust="spacing" textLength="180" x="1739.5" y="830.1826">has_location(lat, lon): bool</text></g><!--class TimeBoundsFilter--><g id="elem_TimeBoundsFilter"><rect codeLine="73" fill="#F1F1F1" height="194.6719" id="TimeBoundsFilter" rx="2.5" ry="2.5" style="stroke:#181818;stroke-width:0.5;" width="363" x="1595.5" y="453"/><ellipse cx="1712.25" cy="469" fill="#ADD1B2" rx="11" ry="11" style="stroke:#181818;stroke-width:1.0;"/><path d="M1715.2188,474.6406 Q1714.6406,474.9375 1714,475.0781 Q1713.3594,475.2344 1712.6563,475.2344 Q1710.1563,475.2344 1708.8281,473.5938 Q1707.5156,471.9375 1707.5156,468.8125 Q1707.5156,465.6875 1708.8281,464.0313 Q1710.1563,462.375 1712.6563,462.375 Q1713.3594,462.375 1714,462.5313 Q1714.6563,462.6875 1715.2188,462.9844 L1715.2188,465.7031 Q1714.5938,465.125 1714,464.8594 Q1713.4063,464.5781 1712.7813,464.5781 Q1711.4375,464.5781 1710.75,465.6563 Q1710.0625,466.7188 1710.0625,468.8125 Q1710.0625,470.9063 1710.75,471.9844 Q1711.4375,473.0469 1712.7813,473.0469 Q1713.4063,473.0469 1714,472.7813 Q1714.5938,472.5 1715.2188,471.9219 L1715.2188,474.6406 Z " fill="#000000"/><text fill="#000000" font-family="sans-serif" font-size="14" lengthAdjust="spacing" textLength="121" x="1732.75" y="473.8467">TimeBoundsFilter</text><line style="stroke:#181818;stroke-width:0.5;" x1="1596.5" x2="1957.5" y1="485" y2="485"/><line style="stroke:#181818;stroke-width:0.5;" x1="1596.5" x2="1957.5" y1="493" y2="493"/><ellipse cx="1606.5" cy="522.9453" fill="#84BE84" rx="3" ry="3" style="stroke:#038048;stroke-width:1.0;"/><text fill="#000000" font-family="sans-serif" font-size="14" lengthAdjust="spacing" textLength="337" x="1615.5" y="509.9951">__init__(start_include=[flag], start_exclude=[flag],</text><text fill="#000000" font-family="sans-serif" font-size="14" lengthAdjust="spacing" textLength="253" x="1619.5" y="526.292">start_end_include, startend_exclude,</text><text fill="#000000" font-family="sans-serif" font-size="14" lengthAdjust="spacing" textLength="315" x="1619.5" y="542.5889">end_include, end_exclude): TimeBoundsFilter</text><ellipse cx="1606.5" cy="555.5391" fill="#84BE84" rx="3" ry="3" style="stroke:#038048;stroke-width:1.0;"/><text fill="#000000" font-family="sans-serif" font-size="14" lengthAdjust="spacing" textLength="158" x="1615.5" y="558.8857">name(): "time_bounds"</text><ellipse cx="1606.5" cy="571.8359" fill="#84BE84" rx="3" ry="3" style="stroke:#038048;stroke-width:1.0;"/><text fill="#000000" font-family="sans-serif" font-size="14" lengthAdjust="spacing" textLength="120" x="1615.5" y="575.1826">init_kwargs(): dict</text><ellipse cx="1606.5" cy="588.1328" fill="#84BE84" rx="3" ry="3" style="stroke:#038048;stroke-width:1.0;"/><text fill="#000000" font-family="sans-serif" font-size="14" lengthAdjust="spacing" textLength="304" x="1615.5" y="591.4795">filter_data_idx(data, stations, variables): Data</text><text fill="#000000" font-family="sans-serif" font-size="14" lengthAdjust="spacing" textLength="145" x="1615.5" y="607.7764">has_envelope(): bool</text><text fill="#000000" font-family="sans-serif" font-size="14" lengthAdjust="spacing" textLength="159" x="1615.5" y="624.0732">envelope(): (start, end)</text><text fill="#000000" font-family="sans-serif" font-size="14" lengthAdjust="spacing" textLength="334" x="1615.5" y="640.3701">contains(start_dt_array, end_dt_array): bool-array</text></g><!--class TimeResolutionFilter--><g id="elem_TimeResolutionFilter"><rect codeLine="83" fill="#F1F1F1" height="113.1875" id="TimeResolutionFilter" rx="2.5" ry="2.5" style="stroke:#181818;stroke-width:0.5;" width="448" x="448" y="82"/><ellipse cx="597.25" cy="98" fill="#ADD1B2" rx="11" ry="11" style="stroke:#181818;stroke-width:1.0;"/><path d="M600.2188,103.6406 Q599.6406,103.9375 599,104.0781 Q598.3594,104.2344 597.6563,104.2344 Q595.1563,104.2344 593.8281,102.5938 Q592.5156,100.9375 592.5156,97.8125 Q592.5156,94.6875 593.8281,93.0313 Q595.1563,91.375 597.6563,91.375 Q598.3594,91.375 599,91.5313 Q599.6563,91.6875 600.2188,91.9844 L600.2188,94.7031 Q599.5938,94.125 599,93.8594 Q598.4063,93.5781 597.7813,93.5781 Q596.4375,93.5781 595.75,94.6563 Q595.0625,95.7188 595.0625,97.8125 Q595.0625,99.9063 595.75,100.9844 Q596.4375,102.0469 597.7813,102.0469 Q598.4063,102.0469 599,101.7813 Q599.5938,101.5 600.2188,100.9219 L600.2188,103.6406 Z " fill="#000000"/><text fill="#000000" font-family="sans-serif" font-size="14" lengthAdjust="spacing" textLength="141" x="617.75" y="102.8467">TimeResolutionFilter</text><line style="stroke:#181818;stroke-width:0.5;" x1="449" x2="895" y1="114" y2="114"/><line style="stroke:#181818;stroke-width:0.5;" x1="449" x2="895" y1="122" y2="122"/><ellipse cx="459" cy="135.6484" fill="#84BE84" rx="3" ry="3" style="stroke:#038048;stroke-width:1.0;"/><text fill="#000000" font-family="sans-serif" font-size="14" lengthAdjust="spacing" textLength="422" x="468" y="138.9951">__init__(resolutions=[resolution_string]): TimeResolutionFilter</text><ellipse cx="459" cy="151.9453" fill="#84BE84" rx="3" ry="3" style="stroke:#038048;stroke-width:1.0;"/><text fill="#000000" font-family="sans-serif" font-size="14" lengthAdjust="spacing" textLength="182" x="468" y="155.292">name(): "time_resolutions"</text><ellipse cx="459" cy="168.2422" fill="#84BE84" rx="3" ry="3" style="stroke:#038048;stroke-width:1.0;"/><text fill="#000000" font-family="sans-serif" font-size="14" lengthAdjust="spacing" textLength="120" x="468" y="171.5889">init_kwargs(): dict</text><ellipse cx="459" cy="184.5391" fill="#84BE84" rx="3" ry="3" style="stroke:#038048;stroke-width:1.0;"/><text fill="#000000" font-family="sans-serif" font-size="14" lengthAdjust="spacing" textLength="304" x="468" y="187.8857">filter_data_idx(data, stations, variables): Data</text></g><!--class DuplicateFilter--><g id="elem_DuplicateFilter"><rect codeLine="90" fill="#F1F1F1" height="113.1875" id="DuplicateFilter" rx="2.5" ry="2.5" style="stroke:#181818;stroke-width:0.5;" width="564" x="387" y="494"/><ellipse cx="615.75" cy="510" fill="#ADD1B2" rx="11" ry="11" style="stroke:#181818;stroke-width:1.0;"/><path d="M618.7188,515.6406 Q618.1406,515.9375 617.5,516.0781 Q616.8594,516.2344 616.1563,516.2344 Q613.6563,516.2344 612.3281,514.5938 Q611.0156,512.9375 611.0156,509.8125 Q611.0156,506.6875 612.3281,505.0313 Q613.6563,503.375 616.1563,503.375 Q616.8594,503.375 617.5,503.5313 Q618.1563,503.6875 618.7188,503.9844 L618.7188,506.7031 Q618.0938,506.125 617.5,505.8594 Q616.9063,505.5781 616.2813,505.5781 Q614.9375,505.5781 614.25,506.6563 Q613.5625,507.7188 613.5625,509.8125 Q613.5625,511.9063 614.25,512.9844 Q614.9375,514.0469 616.2813,514.0469 Q616.9063,514.0469 617.5,513.7813 Q618.0938,513.5 618.7188,512.9219 L618.7188,515.6406 Z " fill="#000000"/><text fill="#000000" font-family="sans-serif" font-size="14" lengthAdjust="spacing" textLength="98" x="636.25" y="514.8467">DuplicateFilter</text><line style="stroke:#181818;stroke-width:0.5;" x1="388" x2="950" y1="526" y2="526"/><line style="stroke:#181818;stroke-width:0.5;" x1="388" x2="950" y1="534" y2="534"/><ellipse cx="398" cy="547.6484" fill="#84BE84" rx="3" ry="3" style="stroke:#038048;stroke-width:1.0;"/><text fill="#000000" font-family="sans-serif" font-size="14" lengthAdjust="spacing" textLength="538" x="407" y="550.9951">__init__(duplicate_keys=["stations", "start_times", "end_times"]): DuplicateFilter</text><ellipse cx="398" cy="563.9453" fill="#84BE84" rx="3" ry="3" style="stroke:#038048;stroke-width:1.0;"/><text fill="#000000" font-family="sans-serif" font-size="14" lengthAdjust="spacing" textLength="139" x="407" y="567.292">name(): "duplicates"</text><ellipse cx="398" cy="580.2422" fill="#84BE84" rx="3" ry="3" style="stroke:#038048;stroke-width:1.0;"/><text fill="#000000" font-family="sans-serif" font-size="14" lengthAdjust="spacing" textLength="120" x="407" y="583.5889">init_kwargs(): dict</text><ellipse cx="398" cy="596.5391" fill="#84BE84" rx="3" ry="3" style="stroke:#038048;stroke-width:1.0;"/><text fill="#000000" font-family="sans-serif" font-size="14" lengthAdjust="spacing" textLength="304" x="407" y="599.8857">filter_data_idx(data, stations, variables): Data</text></g><!--class FlagFilter--><g id="elem_FlagFilter"><rect codeLine="97" fill="#F1F1F1" height="129.4844" id="FlagFilter" rx="2.5" ry="2.5" style="stroke:#181818;stroke-width:0.5;" width="358" x="986" y="486"/><ellipse cx="1130.25" cy="502" fill="#ADD1B2" rx="11" ry="11" style="stroke:#181818;stroke-width:1.0;"/><path d="M1133.2188,507.6406 Q1132.6406,507.9375 1132,508.0781 Q1131.3594,508.2344 1130.6563,508.2344 Q1128.1563,508.2344 1126.8281,506.5938 Q1125.5156,504.9375 1125.5156,501.8125 Q1125.5156,498.6875 1126.8281,497.0313 Q1128.1563,495.375 1130.6563,495.375 Q1131.3594,495.375 1132,495.5313 Q1132.6563,495.6875 1133.2188,495.9844 L1133.2188,498.7031 Q1132.5938,498.125 1132,497.8594 Q1131.4063,497.5781 1130.7813,497.5781 Q1129.4375,497.5781 1128.75,498.6563 Q1128.0625,499.7188 1128.0625,501.8125 Q1128.0625,503.9063 1128.75,504.9844 Q1129.4375,506.0469 1130.7813,506.0469 Q1131.4063,506.0469 1132,505.7813 Q1132.5938,505.5 1133.2188,504.9219 L1133.2188,507.6406 Z " fill="#000000"/><text fill="#000000" font-family="sans-serif" font-size="14" lengthAdjust="spacing" textLength="61" x="1150.75" y="506.8467">FlagFilter</text><line style="stroke:#181818;stroke-width:0.5;" x1="987" x2="1343" y1="518" y2="518"/><line style="stroke:#181818;stroke-width:0.5;" x1="987" x2="1343" y1="526" y2="526"/><ellipse cx="997" cy="539.6484" fill="#84BE84" rx="3" ry="3" style="stroke:#038048;stroke-width:1.0;"/><text fill="#000000" font-family="sans-serif" font-size="14" lengthAdjust="spacing" textLength="332" x="1006" y="542.9951">__init__(include=[flag], exclude=[flag]): FlagFilter</text><ellipse cx="997" cy="555.9453" fill="#84BE84" rx="3" ry="3" style="stroke:#038048;stroke-width:1.0;"/><text fill="#000000" font-family="sans-serif" font-size="14" lengthAdjust="spacing" textLength="100" x="1006" y="559.292">name(): "flags"</text><ellipse cx="997" cy="572.2422" fill="#84BE84" rx="3" ry="3" style="stroke:#038048;stroke-width:1.0;"/><text fill="#000000" font-family="sans-serif" font-size="14" lengthAdjust="spacing" textLength="120" x="1006" y="575.5889">init_kwargs(): dict</text><ellipse cx="997" cy="588.5391" fill="#84BE84" rx="3" ry="3" style="stroke:#038048;stroke-width:1.0;"/><text fill="#000000" font-family="sans-serif" font-size="14" lengthAdjust="spacing" textLength="304" x="1006" y="591.8857">filter_data_idx(data, stations, variables): Data</text><text fill="#000000" font-family="sans-serif" font-size="14" lengthAdjust="spacing" textLength="168" x="1006" y="608.1826">usable_flags(): set(flags)</text></g><!--class TimeResolutionsFilter--><g id="elem_TimeResolutionsFilter"><rect fill="#F1F1F1" height="48" id="TimeResolutionsFilter" rx="2.5" ry="2.5" style="stroke:#181818;stroke-width:0.5;" width="181" x="1379.5" y="526.5"/><ellipse cx="1394.5" cy="542.5" fill="#ADD1B2" rx="11" ry="11" style="stroke:#181818;stroke-width:1.0;"/><path d="M1397.4688,548.1406 Q1396.8906,548.4375 1396.25,548.5781 Q1395.6094,548.7344 1394.9063,548.7344 Q1392.4063,548.7344 1391.0781,547.0938 Q1389.7656,545.4375 1389.7656,542.3125 Q1389.7656,539.1875 1391.0781,537.5313 Q1392.4063,535.875 1394.9063,535.875 Q1395.6094,535.875 1396.25,536.0313 Q1396.9063,536.1875 1397.4688,536.4844 L1397.4688,539.2031 Q1396.8438,538.625 1396.25,538.3594 Q1395.6563,538.0781 1395.0313,538.0781 Q1393.6875,538.0781 1393,539.1563 Q1392.3125,540.2188 1392.3125,542.3125 Q1392.3125,544.4063 1393,545.4844 Q1393.6875,546.5469 1395.0313,546.5469 Q1395.6563,546.5469 1396.25,546.2813 Q1396.8438,546 1397.4688,545.4219 L1397.4688,548.1406 Z " fill="#000000"/><text fill="#000000" font-family="sans-serif" font-size="14" lengthAdjust="spacing" textLength="149" x="1408.5" y="547.3467">TimeResolutionsFilter</text><line style="stroke:#181818;stroke-width:0.5;" x1="1380.5" x2="1559.5" y1="558.5" y2="558.5"/><line style="stroke:#181818;stroke-width:0.5;" x1="1380.5" x2="1559.5" y1="566.5" y2="566.5"/></g><g id="elem_GMN4"><path d="M2643.5,317 L2643.5,340.5 L2064.15,344.5 L2643.5,348.5 L2643.5,372.3984 A0,0 0 0 0 2643.5,372.3984 L2810.5,372.3984 A0,0 0 0 0 2810.5,372.3984 L2810.5,327 L2800.5,317 L2643.5,317 A0,0 0 0 0 2643.5,317 " fill="#FEFFDD" style="stroke:#181818;stroke-width:0.5;"/><path d="M2800.5,317 L2800.5,327 L2810.5,327 L2800.5,317 " fill="#FEFFDD" style="stroke:#181818;stroke-width:0.5;"/><text fill="#000000" font-family="sans-serif" font-size="13" lengthAdjust="spacing" textLength="60" x="2649.5" y="334.0669">Singelton</text><text fill="#000000" font-family="sans-serif" font-size="13" lengthAdjust="spacing" textLength="133" x="2649.5" y="349.1997">instance available as</text><text fill="#000000" font-family="sans-serif" font-size="13" lengthAdjust="spacing" textLength="146" x="2649.5" y="364.3325">pyaro.timeseries.filters</text></g><!--reverse link Filter to VariableNameFilter--><g id="link_Filter_VariableNameFilter"><path codeLine="106" d="M1971.8503,225.6534 C2013.8503,249.2034 2042.89,267.61 2082,296 C2146.5,342.81 2212.47,402.87 2263.73,452.78 " fill="none" id="Filter-backto-VariableNameFilter" style="stroke:#181818;stroke-width:1.0;stroke-dasharray:7.0,7.0;"/><polygon fill="none" points="1956.15,216.85,1968.9159,230.8868,1974.7848,220.42,1956.15,216.85" style="stroke:#181818;stroke-width:1.0;"/></g><!--reverse link Filter to DataIndexFilter--><g id="link_Filter_DataIndexFilter"><path codeLine="107" d="M1635.308,210.1651 C1556.608,243.1351 1479.61,275.39 1411.39,303.96 " fill="none" id="Filter-backto-DataIndexFilter" style="stroke:#181818;stroke-width:1.0;stroke-dasharray:7.0,7.0;"/><polygon fill="none" points="1651.91,203.21,1632.9896,204.6311,1637.6264,215.6991,1651.91,203.21" style="stroke:#181818;stroke-width:1.0;"/></g><!--reverse link DataIndexFilter to StationReductionFilter--><g id="link_DataIndexFilter_StationReductionFilter"><path codeLine="108" d="M1140.3545,346.1011 C949.2445,350.3611 638.4,370.22 370,453 C327.1,466.23 282.46,489.55 248.01,509.95 " fill="none" id="DataIndexFilter-backto-StationReductionFilter" style="stroke:#181818;stroke-width:1.0;stroke-dasharray:7.0,7.0;"/><polygon fill="none" points="1158.35,345.7,1140.2208,340.1026,1140.4882,352.0996,1158.35,345.7" style="stroke:#181818;stroke-width:1.0;"/></g><!--reverse link StationReductionFilter to StationFilter--><g id="link_StationReductionFilter_StationFilter"><path codeLine="109" d="M274.1894,599.6907 C307.6994,617.7807 332.59,630.49 370,648 C414.12,668.66 462.68,689.46 507.64,707.94 " fill="none" id="StationReductionFilter-backto-StationFilter" style="stroke:#181818;stroke-width:1.0;stroke-dasharray:7.0,7.0;"/><polygon fill="none" points="258.35,591.14,271.3391,604.9705,277.0396,594.4109,258.35,591.14" style="stroke:#181818;stroke-width:1.0;"/></g><!--reverse link StationReductionFilter to CountryFilter--><g id="link_StationReductionFilter_CountryFilter"><path codeLine="110" d="M263.4982,600.2315 C297.9482,620.6315 327.1,634.78 370,648 C596.54,717.83 664.81,678.28 900,708 C976.56,717.67 1060.24,729.11 1134.72,739.58 " fill="none" id="StationReductionFilter-backto-CountryFilter" style="stroke:#181818;stroke-width:1.0;stroke-dasharray:7.0,7.0;"/><polygon fill="none" points="248.01,591.06,260.441,605.3942,266.5553,595.0688,248.01,591.06" style="stroke:#181818;stroke-width:1.0;"/></g><!--reverse link StationReductionFilter to BoundingBoxFilter--><g id="link_StationReductionFilter_BoundingBoxFilter"><path codeLine="111" d="M261.4467,600.4807 C296.0067,621.4607 326,635.96 370,648 C632.45,719.83 1322.55,678.02 1593,708 C1634.02,712.55 1677.41,718.79 1719.41,725.6 " fill="none" id="StationReductionFilter-backto-BoundingBoxFilter" style="stroke:#181818;stroke-width:1.0;stroke-dasharray:7.0,7.0;"/><polygon fill="none" points="246.06,591.14,258.3332,605.6096,264.5603,595.3518,246.06,591.14" style="stroke:#181818;stroke-width:1.0;"/></g><!--reverse link DataIndexFilter to TimeBoundsFilter--><g id="link_DataIndexFilter_TimeBoundsFilter"><path codeLine="112" d="M1433.7591,391.7933 C1482.5891,411.5233 1525.34,429.41 1578,453 C1583.69,455.55 1589.47,458.17 1595.29,460.83 " fill="none" id="DataIndexFilter-backto-TimeBoundsFilter" style="stroke:#181818;stroke-width:1.0;stroke-dasharray:7.0,7.0;"/><polygon fill="none" points="1417.07,385.05,1431.5114,397.3564,1436.0069,386.2303,1417.07,385.05" style="stroke:#181818;stroke-width:1.0;"/></g><!--reverse link DataIndexFilter to TimeResolutionsFilter--><g id="link_DataIndexFilter_TimeResolutionsFilter"><path codeLine="113" d="M1357.6605,399.7196 C1389.1405,441.6896 1426.86,491.99 1452.59,526.29 " fill="none" id="DataIndexFilter-backto-TimeResolutionsFilter" style="stroke:#181818;stroke-width:1.0;stroke-dasharray:7.0,7.0;"/><polygon fill="none" points="1346.86,385.32,1352.8607,403.3198,1362.4604,396.1194,1346.86,385.32" style="stroke:#181818;stroke-width:1.0;"/></g><!--reverse link DataIndexFilter to DuplicateFilter--><g id="link_DataIndexFilter_DuplicateFilter"><path codeLine="114" d="M1170.3646,390.3789 C1104.8146,410.5289 1041.22,430.23 969,453 C927.39,466.12 882.59,480.43 840.62,493.92 " fill="none" id="DataIndexFilter-backto-DuplicateFilter" style="stroke:#181818;stroke-width:1.0;stroke-dasharray:7.0,7.0;"/><polygon fill="none" points="1187.57,385.09,1168.6016,384.6438,1172.1275,396.1141,1187.57,385.09" style="stroke:#181818;stroke-width:1.0;"/></g><!--reverse link DataIndexFilter to FlagFilter--><g id="link_DataIndexFilter_FlagFilter"><path codeLine="115" d="M1276.5754,399.7539 C1255.3254,428.2739 1237.01,452.86 1212.54,485.7 " fill="none" id="DataIndexFilter-backto-FlagFilter" style="stroke:#181818;stroke-width:1.0;stroke-dasharray:7.0,7.0;"/><polygon fill="none" points="1287.33,385.32,1271.7641,396.1691,1281.3867,403.3388,1287.33,385.32" style="stroke:#181818;stroke-width:1.0;"/></g><!--link FilterFactory to VariableNameFilter--><g id="link_FilterFactory_VariableNameFilter"><path codeLine="117" d="M2064.18,384.83 C2098.99,404.34 2137.4755,425.9175 2180.4755,450.0075 " fill="none" id="FilterFactory-to-VariableNameFilter" style="stroke:#181818;stroke-width:1.0;stroke-dasharray:7.0,7.0;"/><polygon fill="#181818" points="2185.71,452.94,2179.8133,445.0515,2181.3479,450.4962,2175.9032,452.0309,2185.71,452.94" style="stroke:#181818;stroke-width:1.0;"/></g><!--link FilterFactory to StationFilter--><g id="link_FilterFactory_StationFilter"><path codeLine="118" d="M1994.54,393.18 C1994.96,473.87 1993.49,630.33 1976,648 C1908.78,715.93 1213.04,697.95 1118,708 C1040.86,716.15 962.5076,726.6071 888.0576,737.4271 " fill="none" id="FilterFactory-to-StationFilter" style="stroke:#181818;stroke-width:1.0;stroke-dasharray:7.0,7.0;"/><polygon fill="#181818" points="882.12,738.29,891.6017,740.954,887.068,737.5709,890.4511,733.0372,882.12,738.29" style="stroke:#181818;stroke-width:1.0;"/></g><!--link FilterFactory to CountryFilter--><g id="link_FilterFactory_CountryFilter"><path codeLine="119" d="M2002.74,393.15 C2015.38,468.49 2034.07,610.45 2003,648 C1999.46,652.28 1767.4106,695.7723 1580.9006,730.1523 " fill="none" id="FilterFactory-to-CountryFilter" style="stroke:#181818;stroke-width:1.0;stroke-dasharray:7.0,7.0;"/><polygon fill="#181818" points="1575,731.24,1584.576,733.5422,1579.9172,730.3336,1583.1258,725.6748,1575,731.24" style="stroke:#181818;stroke-width:1.0;"/></g><!--link FilterFactory to BoundingBoxFilter--><g id="link_FilterFactory_BoundingBoxFilter"><path codeLine="120" d="M2019.28,393.11 C2027.62,411.32 2035.82,432.62 2040,453 C2057.4,537.9 2064.8,564.96 2040,648 C2033.76,668.88 2026.0268,684.4904 2014.0768,702.7404 " fill="none" id="FilterFactory-to-BoundingBoxFilter" style="stroke:#181818;stroke-width:1.0;stroke-dasharray:7.0,7.0;"/><polygon fill="#181818" points="2010.79,707.76,2019.0667,702.4218,2013.529,703.577,2012.3738,698.0393,2010.79,707.76" style="stroke:#181818;stroke-width:1.0;"/></g><!--link FilterFactory to TimeBoundsFilter--><g id="link_FilterFactory_TimeBoundsFilter"><path codeLine="121" d="M1943.4,393.07 C1924.36,410.97 1906.3312,427.91 1884.2412,448.68 " fill="none" id="FilterFactory-to-TimeBoundsFilter" style="stroke:#181818;stroke-width:1.0;stroke-dasharray:7.0,7.0;"/><polygon fill="#181818" points="1879.87,452.79,1889.1669,449.5391,1883.5127,449.365,1883.6868,443.7108,1879.87,452.79" style="stroke:#181818;stroke-width:1.0;"/></g><!--link FilterFactory to TimeResolutionsFilter--><g id="link_FilterFactory_TimeResolutionsFilter"><path codeLine="122" d="M1923.7,353.34 C1837.88,365.17 1690.32,392.94 1578,453 C1542.97,471.73 1514.0808,499.6647 1494.0008,521.7047 " fill="none" id="FilterFactory-to-TimeResolutionsFilter" style="stroke:#181818;stroke-width:1.0;stroke-dasharray:7.0,7.0;"/><polygon fill="#181818" points="1489.96,526.14,1498.9781,522.181,1493.3274,522.4439,1493.0644,516.7932,1489.96,526.14" style="stroke:#181818;stroke-width:1.0;"/></g><!--link FilterFactory to DuplicateFilter--><g id="link_FilterFactory_DuplicateFilter"><path codeLine="123" d="M1923.71,352.02 C1707.62,372.19 1062.06,433.37 969,453 C920.02,463.33 873.4226,476.7343 826.4426,492.1043 " fill="none" id="FilterFactory-to-DuplicateFilter" style="stroke:#181818;stroke-width:1.0;stroke-dasharray:7.0,7.0;"/><polygon fill="#181818" points="820.74,493.97,830.5376,494.9732,825.4921,492.4153,828.0501,487.3698,820.74,493.97" style="stroke:#181818;stroke-width:1.0;"/></g><!--link FilterFactory to FlagFilter--><g id="link_FilterFactory_FlagFilter"><path codeLine="124" d="M1923.71,350.84 C1805.35,361.28 1559.82,389.2 1362,453 C1335,461.71 1312.4515,470.9495 1286.3615,483.3195 " fill="none" id="FilterFactory-to-FlagFilter" style="stroke:#181818;stroke-width:1.0;stroke-dasharray:7.0,7.0;"/><polygon fill="#181818" points="1280.94,485.89,1290.7859,485.6486,1285.4579,483.7479,1287.3586,478.4199,1280.94,485.89" style="stroke:#181818;stroke-width:1.0;"/></g><!--SRC=[lLTjRzis4FxENt5elyY8RQHUEWn6EnH9wc5fiXL9cY-P8T0IxH1LI8EaN1lR_lkEr8ifoPBjlimV3F7kdhjxxeuK5ILKQp3ycMccEDF32KyCKnCQ6Qasy3S1_9qic0a4VMQzCMJwJApOWcjS1NCdx6NI16K1MZvgewRaNoAaOQ3uuic0dBU6GkmT5mkM62dmcGjjg8WOq1Nb2Pqb-AHHljnG9OUUaooq9ap4O2CHmWKAvXInZLYEpm32a0jkmZ3emKj8XMAOAOyCYu6YbyzVg5hOM8E1ixR4BHyqSck7pOoiE4Oaoa-W8GX3nPOsIe65BDamfeO6zg-F2cgu5BeFAwguvQdH_19rddrX51GFUHHRuJxSPSAf1oXz1RxNh27O4HBLk_wGc_s1NBrIdMnBfHYDqREHeM1V-bY4A4bZrWUsTW_etlTnyKJ50jjPJij9MSONPKeldBojd0TGySmEBYbW-jQfIoSdbI-tVOAg8l0mdj4JrMLwDPEPb4bfitMMcJQYEcji2vsXQzmEqEYFpVvt4RDrfJb7SX_uW937wquGwcrE7KdbWtVBuZIo3ssvxGrLp-_0UTyroBbozmpdG_lsCVSxBSTtAy9G5H_LsIqIEcXq3zwsTaXocyBMcue6nmkP2gCsUpX6cPNFiH2XyugFAiVCYhCVG39F8E1QZX2fkbYUessCHyYvN7yJquQVAjjPhWvdSlqZA2SooXgRKDE7fBkpz_ZeyjMxAMD0PSAI-3oXYwdRL2WjkMVIlqGX5t5OdjPEP2MvjJMh67WwJBIUJxLqDl7GrU-mkXrp5jZICR5YYLowOFc1wekoQhYKxSqZai9GddK5QSScf4hHJKQfMEMU1cxHse9RfcMIjfyZgjJhju_RXPredAHfNhYwbnt5ynnzvmhkedQPBXEEqzZoXeyBTVYPRP3Ozh3hkuCFY-gSsQMjQRQmR6kEgqHBj_y7nGdE_fxJ8jyqrUrYBxObj9g_rN__-Kwr5OJEkRiWuWtRBNhkfTkykRxvPpZilh4T0AfT8qZ73QCEtVso9_kl0osElXfVVNCTZs- -3uweGkD0F1AxFHE-ma5zcnq1zOQRj7xi3OU_7ZjXBT3M7dUYMZlRYUhiPoUogvbxWPsTx4HtjB4Jv_Nm7Pw_X7nCg32VRgvXXH_0c0Yy6evEHsV3duBxfnGcR0QlNiFeT7nsEZvz3HVlxy6gUoJuxUFrQWHQfWe_acDkNripHwL7hl1x6swn3nXt37ykcRYw_508uBrOSIN5CnE6N3tSR0r-FXkSSmDtJ64ky713BjcSfeb1H2HjTyRmwNuo-8LSutTXIXVecmcIDnnrT_y1]--></g></svg>