<?xml version="1.0" encoding="us-ascii" standalone="no"?><svg xmlns="http://www.w3.org/2000/svg" xmlns:xlink="http://www.w3.org/1999/xlink" contentStyleType="text/css" height="860px" preserveAspectRatio="none" style="width:3084px;height:860px;background:#FFFFFF;" version="1.1" viewBox="0 0 3084 860" width="3084px" zoomAndPan="magnify"><defs/><g><!--cluster timeseries--><g id="cluster_timeseries"><path d="M8.5,6 L92.5,6 A3.75,3.75 0 0 1 95,8.5 L102,28.2969 L2892.5,28.2969 A2.5,2.5 0 0 1 2895,30.7969 L2895,850.5 A2.5,2.5 0 0 1 2892.5,853 L8.5,853 A2.5,2.5 0 0 1 6,850.5 L6,8.5 A2.5,2.5 0 0 1 8.5,6 " fill="none" style="stroke:#000000;stroke-width:1.5;"/><line style="stroke:#000000;stroke-width:1.5;" x1="6" x2="102" y1="28.2969" y2="28.2969"/><text fill="#000000" font-family="sans-serif" font-size="14" font-weight="bold" lengthAdjust="spacing" textLength="83" x="10" y="20.9951">timeseries</text></g><!--class FilterFactory--><g id="elem_FilterFactory"><rect codeLine="2" fill="#F1F1F1" height="96.8906" id="FilterFactory" rx="2.5" ry="2.5" style="stroke:#181818;stroke-width:0.5;" width="140" x="2191" y="296"/><ellipse cx="2217.25" cy="312" fill="#ADD1B2" rx="11" ry="11" style="stroke:#181818;stroke-width:1.0;"/><path d="M2220.2188,317.6406 Q2219.6406,317.9375 2219,318.0781 Q2218.3594,318.2344 2217.6563,318.2344 Q2215.1563,318.2344 2213.8281,316.5938 Q2212.5156,314.9375 2212.5156,311.8125 Q2212.5156,308.6875 2213.8281,307.0313 Q2215.1563,305.375 2217.6563,305.375 Q2218.3594,305.375 2219,305.5313 Q2219.6563,305.6875 2220.2188,305.9844 L2220.2188,308.7031 Q2219.5938,308.125 2219,307.8594 Q2218.4063,307.5781 2217.7813,307.5781 Q2216.4375,307.5781 2215.75,308.6563 Q2215.0625,309.7188 2215.0625,311.8125 Q2215.0625,313.9063 2215.75,314.9844 Q2216.4375,316.0469 2217.7813,316.0469 Q2218.4063,316.0469 2219,315.7813 Q2219.5938,315.5 2220.2188,314.9219 L2220.2188,317.6406 Z " fill="#000000"/><text fill="#000000" font-family="sans-serif" font-size="14" lengthAdjust="spacing" textLength="83" x="2233.75" y="316.8467">FilterFactory</text><line style="stroke:#181818;stroke-width:0.5;" x1="2192" x2="2330" y1="328" y2="328"/><line style="stroke:#181818;stroke-width:0.5;" x1="2192" x2="2330" y1="336" y2="336"/><ellipse cx="2202" cy="349.6484" fill="#84BE84" rx="3" ry="3" style="stroke:#038048;stroke-width:1.0;"/><text fill="#000000" font-family="sans-serif" font-size="14" lengthAdjust="spacing" textLength="114" x="2211" y="352.9951">get(name): Filter</text><ellipse cx="2202" cy="365.9453" fill="#84BE84" rx="3" ry="3" style="stroke:#038048;stroke-width:1.0;"/><text fill="#000000" font-family="sans-serif" font-size="14" lengthAdjust="spacing" textLength="92" x="2211" y="369.292">register(filter)</text><ellipse cx="2202" cy="382.2422" fill="#84BE84" rx="3" ry="3" style="stroke:#038048;stroke-width:1.0;"/><text fill="#000000" font-family="sans-serif" font-size="14" lengthAdjust="spacing" textLength="66" x="2211" y="385.5889">list(): [str]</text></g><!--class Filter--><g id="elem_Filter"><rect codeLine="13" fill="#F1F1F1" height="194.6719" id="Filter" rx="2.5" ry="2.5" style="stroke:#181818;stroke-width:0.5;" width="304" x="1796" y="41"/><ellipse cx="1927.25" cy="57" fill="#B4A7E5" rx="11" ry="11" style="stroke:#181818;stroke-width:1.0;"/><path d="M1923.1719,52.7656 L1923.1719,50.6094 L1930.5625,50.6094 L1930.5625,52.7656 L1928.0938,52.7656 L1928.0938,60.8438 L1930.5625,60.8438 L1930.5625,63 L1923.1719,63 L1923.1719,60.8438 L1925.6406,60.8438 L1925.6406,52.7656 L1923.1719,52.7656 Z " fill="#000000"/><text fill="#000000" font-family="sans-serif" font-size="14" font-style="italic" lengthAdjust="spacing" textLength="33" x="1947.75" y="61.8467">Filter</text><line style="stroke:#181818;stroke-width:0.5;" x1="1797" x2="2099" y1="73" y2="73"/><rect fill="#F24D5C" height="6" style="stroke:#C82930;stroke-width:1.0;" width="6" x="1804" y="83.6484"/><text fill="#000000" font-family="sans-serif" font-size="14" lengthAdjust="spacing" textLength="245" x="1816" y="89.9951">__init__() # unrestricted and kwargs</text><line style="stroke:#181818;stroke-width:1.0;" x1="1797" x2="2099" y1="97.2969" y2="97.2969"/><rect fill="#F24D5C" height="6" style="stroke:#C82930;stroke-width:1.0;" width="6" x="1804" y="107.9453"/><text fill="#000000" font-family="sans-serif" font-size="14" lengthAdjust="spacing" textLength="76" x="1816" y="114.292">name(): str</text><rect fill="#F24D5C" height="6" style="stroke:#C82930;stroke-width:1.0;" width="6" x="1804" y="124.2422"/><text fill="#000000" font-family="sans-serif" font-size="14" lengthAdjust="spacing" textLength="120" x="1816" y="130.5889">init_kwargs(): dict</text><ellipse cx="1807" cy="143.5391" fill="#84BE84" rx="3" ry="3" style="stroke:#038048;stroke-width:1.0;"/><text fill="#000000" font-family="sans-serif" font-size="14" lengthAdjust="spacing" textLength="74" x="1816" y="146.8857">args(): dict</text><ellipse cx="1807" cy="159.8359" fill="#84BE84" rx="3" ry="3" style="stroke:#038048;stroke-width:1.0;"/><text fill="#000000" font-family="sans-serif" font-size="14" lengthAdjust="spacing" textLength="88" x="1816" y="163.1826">__rep__(): str</text><text fill="#000000" font-family="sans-serif" font-size="14" lengthAdjust="spacing" textLength="278" x="1816" y="179.4795">filter_data(data, stations, variables): Data</text><text fill="#000000" font-family="sans-serif" font-size="14" lengthAdjust="spacing" textLength="274" x="1816" y="195.7764">filter_stations(stations): dict[str, Station]</text><text fill="#000000" font-family="sans-serif" font-size="14" lengthAdjust="spacing" textLength="203" x="1816" y="212.0732">filter_variables(variables): [str]</text><text fill="#000000" font-family="sans-serif" font-size="14" lengthAdjust="spacing" textLength="4" x="1816" y="228.3701">&#160;</text></g><!--class VariableNameFilter--><g id="elem_VariableNameFilter"><rect codeLine="26" fill="#F1F1F1" height="194.6719" id="VariableNameFilter" rx="2.5" ry="2.5" style="stroke:#181818;stroke-width:0.5;" width="508" x="2371" y="453"/><ellipse cx="2557.25" cy="469" fill="#ADD1B2" rx="11" ry="11" style="stroke:#181818;stroke-width:1.0;"/><path d="M2560.2188,474.6406 Q2559.6406,474.9375 2559,475.0781 Q2558.3594,475.2344 2557.6563,475.2344 Q2555.1563,475.2344 2553.8281,473.5938 Q2552.5156,471.9375 2552.5156,468.8125 Q2552.5156,465.6875 2553.8281,464.0313 Q2555.1563,462.375 2557.6563,462.375 Q2558.3594,462.375 2559,462.5313 Q2559.6563,462.6875 2560.2188,462.9844 L2560.2188,465.7031 Q2559.5938,465.125 2559,464.8594 Q2558.4063,464.5781 2557.7813,464.5781 Q2556.4375,464.5781 2555.75,465.6563 Q2555.0625,466.7188 2555.0625,468.8125 Q2555.0625,470.9063 2555.75,471.9844 Q2556.4375,473.0469 2557.7813,473.0469 Q2558.4063,473.0469 2559,472.7813 Q2559.5938,472.5 2560.2188,471.9219 L2560.2188,474.6406 Z " fill="#000000"/><text fill="#000000" font-family="sans-serif" font-size="14" lengthAdjust="spacing" textLength="127" x="2577.75" y="473.8467">VariableNameFilter</text><line style="stroke:#181818;stroke-width:0.5;" x1="2372" x2="2878" y1="485" y2="485"/><line style="stroke:#181818;stroke-width:0.5;" x1="2372" x2="2878" y1="493" y2="493"/><ellipse cx="2382" cy="506.6484" fill="#84BE84" rx="3" ry="3" style="stroke:#038048;stroke-width:1.0;"/><text fill="#000000" font-family="sans-serif" font-size="14" lengthAdjust="spacing" textLength="482" x="2391" y="509.9951">__init__(reader_to_new, include, exclude): VariableNameChangingFilter</text><ellipse cx="2382" cy="522.9453" fill="#84BE84" rx="3" ry="3" style="stroke:#038048;stroke-width:1.0;"/><text fill="#000000" font-family="sans-serif" font-size="14" lengthAdjust="spacing" textLength="128" x="2391" y="526.292">name(): "variables"</text><ellipse cx="2382" cy="539.2422" fill="#84BE84" rx="3" ry="3" style="stroke:#038048;stroke-width:1.0;"/><text fill="#000000" font-family="sans-serif" font-size="14" lengthAdjust="spacing" textLength="120" x="2391" y="542.5889">init_kwargs(): dict</text><ellipse cx="2382" cy="555.5391" fill="#84BE84" rx="3" ry="3" style="stroke:#038048;stroke-width:1.0;"/><text fill="#000000" font-family="sans-serif" font-size="14" lengthAdjust="spacing" textLength="203" x="2391" y="558.8857">filter_variables(variables): [str]</text><ellipse cx="2382" cy="571.8359" fill="#84BE84" rx="3" ry="3" style="stroke:#038048;stroke-width:1.0;"/><text fill="#000000" font-family="sans-serif" font-size="14" lengthAdjust="spacing" textLength="278" x="2391" y="575.1826">filter_data(data, stations, variables): Data</text><text fill="#000000" font-family="sans-serif" font-size="14" lengthAdjust="spacing" textLength="243" x="2391" y="591.4795">new_varname(reader_varname): str</text><text fill="#000000" font-family="sans-serif" font-size="14" lengthAdjust="spacing" textLength="243" x="2391" y="607.7764">reader_varname(new_varname): str</text><text fill="#000000" font-family="sans-serif" font-size="14" lengthAdjust="spacing" textLength="228" x="2391" y="624.0732">has_variable(new_varname): bool</text><text fill="#000000" font-family="sans-serif" font-size="14" lengthAdjust="spacing" textLength="296" x="2391" y="640.3701">has_reader_variable(reader_varname): bool</text></g><!--class DataIndexFilter--><g id="elem_DataIndexFilter"><rect codeLine="38" fill="#F1F1F1" height="80.5938" id="DataIndexFilter" rx="2.5" ry="2.5" style="stroke:#181818;stroke-width:0.5;" width="317" x="1241.5" y="304"/><ellipse cx="1343.75" cy="320" fill="#A9DCDF" rx="11" ry="11" style="stroke:#181818;stroke-width:1.0;"/><path d="M1343.8594,315.3438 L1342.7031,320.4219 L1345.0313,320.4219 L1343.8594,315.3438 Z M1342.375,313.1094 L1345.3594,313.1094 L1348.7188,325.5 L1346.2656,325.5 L1345.5,322.4375 L1342.2188,322.4375 L1341.4688,325.5 L1339.0313,325.5 L1342.375,313.1094 Z " fill="#000000"/><text fill="#000000" font-family="sans-serif" font-size="14" font-style="italic" lengthAdjust="spacing" textLength="104" x="1364.25" y="324.8467">DataIndexFilter</text><line style="stroke:#181818;stroke-width:0.5;" x1="1242.5" x2="1557.5" y1="336" y2="336"/><line style="stroke:#181818;stroke-width:0.5;" x1="1242.5" x2="1557.5" y1="344" y2="344"/><ellipse cx="1252.5" cy="357.6484" fill="#84BE84" rx="3" ry="3" style="stroke:#038048;stroke-width:1.0;"/><text fill="#000000" font-family="sans-serif" font-size="14" lengthAdjust="spacing" textLength="278" x="1261.5" y="360.9951">filter_data(data, stations, variables): Data</text><rect fill="#F24D5C" height="6" style="stroke:#C82930;stroke-width:1.0;" width="6" x="1249.5" y="370.9453"/><text fill="#000000" font-family="sans-serif" font-size="14" lengthAdjust="spacing" textLength="291" x="1261.5" y="377.292">filter_data_idx(data, stations, variables): idx</text></g><!--class StationReductionFilter--><g id="elem_StationReductionFilter"><rect codeLine="44" fill="#F1F1F1" height="80.5938" id="StationReductionFilter" rx="2.5" ry="2.5" style="stroke:#181818;stroke-width:0.5;" width="330" x="22" y="510"/><ellipse cx="106.75" cy="526" fill="#A9DCDF" rx="11" ry="11" style="stroke:#181818;stroke-width:1.0;"/><path d="M106.8594,521.3438 L105.7031,526.4219 L108.0313,526.4219 L106.8594,521.3438 Z M105.375,519.1094 L108.3594,519.1094 L111.7188,531.5 L109.2656,531.5 L108.5,528.4375 L105.2188,528.4375 L104.4688,531.5 L102.0313,531.5 L105.375,519.1094 Z " fill="#000000"/><text fill="#000000" font-family="sans-serif" font-size="14" font-style="italic" lengthAdjust="spacing" textLength="152" x="127.25" y="530.8467">StationReductionFilter</text><line style="stroke:#181818;stroke-width:0.5;" x1="23" x2="351" y1="542" y2="542"/><line style="stroke:#181818;stroke-width:0.5;" x1="23" x2="351" y1="550" y2="550"/><ellipse cx="33" cy="563.6484" fill="#84BE84" rx="3" ry="3" style="stroke:#038048;stroke-width:1.0;"/><text fill="#000000" font-family="sans-serif" font-size="14" lengthAdjust="spacing" textLength="304" x="42" y="566.9951">filter_data_idx(data, stations, variables): Data</text><rect fill="#F24D5C" height="6" style="stroke:#C82930;stroke-width:1.0;" width="6" x="30" y="576.9453"/><text fill="#000000" font-family="sans-serif" font-size="14" lengthAdjust="spacing" textLength="274" x="42" y="583.292">filter_stations(stations): dict[str, Station]</text></g><!--class StationFilter--><g id="elem_StationFilter"><rect codeLine="49" fill="#F1F1F1" height="129.4844" id="StationFilter" rx="2.5" ry="2.5" style="stroke:#181818;stroke-width:0.5;" width="424" x="591" y="708"/><ellipse cx="758.25" cy="724" fill="#ADD1B2" rx="11" ry="11" style="stroke:#181818;stroke-width:1.0;"/><path d="M761.2188,729.6406 Q760.6406,729.9375 760,730.0781 Q759.3594,730.2344 758.6563,730.2344 Q756.1563,730.2344 754.8281,728.5938 Q753.5156,726.9375 753.5156,723.8125 Q753.5156,720.6875 754.8281,719.0313 Q756.1563,717.375 758.6563,717.375 Q759.3594,717.375 760,717.5313 Q760.6563,717.6875 761.2188,717.9844 L761.2188,720.7031 Q760.5938,720.125 760,719.8594 Q759.4063,719.5781 758.7813,719.5781 Q757.4375,719.5781 756.75,720.6563 Q756.0625,721.7188 756.0625,723.8125 Q756.0625,725.9063 756.75,726.9844 Q757.4375,728.0469 758.7813,728.0469 Q759.4063,728.0469 760,727.7813 Q760.5938,727.5 761.2188,726.9219 L761.2188,729.6406 Z " fill="#000000"/><text fill="#000000" font-family="sans-serif" font-size="14" lengthAdjust="spacing" textLength="81" x="778.75" y="728.8467">StationFilter</text><line style="stroke:#181818;stroke-width:0.5;" x1="592" x2="1014" y1="740" y2="740"/><line style="stroke:#181818;stroke-width:0.5;" x1="592" x2="1014" y1="748" y2="748"/><ellipse cx="602" cy="761.6484" fill="#84BE84" rx="3" ry="3" style="stroke:#038048;stroke-width:1.0;"/><text fill="#000000" font-family="sans-serif" font-size="14" lengthAdjust="spacing" textLength="398" x="611" y="764.9951">__init__(include=[station], exclude=[station]): StationFilter</text><ellipse cx="602" cy="777.9453" fill="#84BE84" rx="3" ry="3" style="stroke:#038048;stroke-width:1.0;"/><text fill="#000000" font-family="sans-serif" font-size="14" lengthAdjust="spacing" textLength="123" x="611" y="781.292">name(): "stations"</text><ellipse cx="602" cy="794.2422" fill="#84BE84" rx="3" ry="3" style="stroke:#038048;stroke-width:1.0;"/><text fill="#000000" font-family="sans-serif" font-size="14" lengthAdjust="spacing" textLength="120" x="611" y="797.5889">init_kwargs(): dict</text><ellipse cx="602" cy="810.5391" fill="#84BE84" rx="3" ry="3" style="stroke:#038048;stroke-width:1.0;"/><text fill="#000000" font-family="sans-serif" font-size="14" lengthAdjust="spacing" textLength="274" x="611" y="813.8857">filter_stations(stations): dict[str, Station]</text><text fill="#000000" font-family="sans-serif" font-size="14" lengthAdjust="spacing" textLength="175" x="611" y="830.1826">has_station(station): bool</text></g><!--class CountryFilter--><g id="elem_CountryFilter"><rect codeLine="57" fill="#F1F1F1" height="129.4844" id="CountryFilter" rx="2.5" ry="2.5" style="stroke:#181818;stroke-width:0.5;" width="440" x="1335" y="708"/><ellipse cx="1507.25" cy="724" fill="#ADD1B2" rx="11" ry="11" style="stroke:#181818;stroke-width:1.0;"/><path d="M1510.2188,729.6406 Q1509.6406,729.9375 1509,730.0781 Q1508.3594,730.2344 1507.6563,730.2344 Q1505.1563,730.2344 1503.8281,728.5938 Q1502.5156,726.9375 1502.5156,723.8125 Q1502.5156,720.6875 1503.8281,719.0313 Q1505.1563,717.375 1507.6563,717.375 Q1508.3594,717.375 1509,717.5313 Q1509.6563,717.6875 1510.2188,717.9844 L1510.2188,720.7031 Q1509.5938,720.125 1509,719.8594 Q1508.4063,719.5781 1507.7813,719.5781 Q1506.4375,719.5781 1505.75,720.6563 Q1505.0625,721.7188 1505.0625,723.8125 Q1505.0625,725.9063 1505.75,726.9844 Q1506.4375,728.0469 1507.7813,728.0469 Q1508.4063,728.0469 1509,727.7813 Q1509.5938,727.5 1510.2188,726.9219 L1510.2188,729.6406 Z " fill="#000000"/><text fill="#000000" font-family="sans-serif" font-size="14" lengthAdjust="spacing" textLength="87" x="1527.75" y="728.8467">CountryFilter</text><line style="stroke:#181818;stroke-width:0.5;" x1="1336" x2="1774" y1="740" y2="740"/><line style="stroke:#181818;stroke-width:0.5;" x1="1336" x2="1774" y1="748" y2="748"/><ellipse cx="1346" cy="761.6484" fill="#84BE84" rx="3" ry="3" style="stroke:#038048;stroke-width:1.0;"/><text fill="#000000" font-family="sans-serif" font-size="14" lengthAdjust="spacing" textLength="414" x="1355" y="764.9951">__init__(include=[country], exclude=[country]): CountryFilter</text><ellipse cx="1346" cy="777.9453" fill="#84BE84" rx="3" ry="3" style="stroke:#038048;stroke-width:1.0;"/><text fill="#000000" font-family="sans-serif" font-size="14" lengthAdjust="spacing" textLength="133" x="1355" y="781.292">name(): "countries"</text><ellipse cx="1346" cy="794.2422" fill="#84BE84" rx="3" ry="3" style="stroke:#038048;stroke-width:1.0;"/><text fill="#000000" font-family="sans-serif" font-size="14" lengthAdjust="spacing" textLength="120" x="1355" y="797.5889">init_kwargs(): dict</text><ellipse cx="1346" cy="810.5391" fill="#84BE84" rx="3" ry="3" style="stroke:#038048;stroke-width:1.0;"/><text fill="#000000" font-family="sans-serif" font-size="14" lengthAdjust="spacing" textLength="274" x="1355" y="813.8857">filter_stations(stations): dict[str, Station]</text><text fill="#000000" font-family="sans-serif" font-size="14" lengthAdjust="spacing" textLength="187" x="1355" y="830.1826">has_country(iso2_str): bool</text></g><!--class BoundingBoxFilter--><g id="elem_BoundingBoxFilter"><rect codeLine="65" fill="#F1F1F1" height="129.4844" id="BoundingBoxFilter" rx="2.5" ry="2.5" style="stroke:#181818;stroke-width:0.5;" width="479" x="1952.5" y="708"/><ellipse cx="2124.75" cy="724" fill="#ADD1B2" rx="11" ry="11" style="stroke:#181818;stroke-width:1.0;"/><path d="M2127.7188,729.6406 Q2127.1406,729.9375 2126.5,730.0781 Q2125.8594,730.2344 2125.1563,730.2344 Q2122.6563,730.2344 2121.3281,728.5938 Q2120.0156,726.9375 2120.0156,723.8125 Q2120.0156,720.6875 2121.3281,719.0313 Q2122.6563,717.375 2125.1563,717.375 Q2125.8594,717.375 2126.5,717.5313 Q2127.1563,717.6875 2127.7188,717.9844 L2127.7188,720.7031 Q2127.0938,720.125 2126.5,719.8594 Q2125.9063,719.5781 2125.2813,719.5781 Q2123.9375,719.5781 2123.25,720.6563 Q2122.5625,721.7188 2122.5625,723.8125 Q2122.5625,725.9063 2123.25,726.9844 Q2123.9375,728.0469 2125.2813,728.0469 Q2125.9063,728.0469 2126.5,727.7813 Q2127.0938,727.5 2127.7188,726.9219 L2127.7188,729.6406 Z " fill="#000000"/><text fill="#000000" font-family="sans-serif" font-size="14" lengthAdjust="spacing" textLength="126" x="2145.25" y="728.8467">BoundingBoxFilter</text><line style="stroke:#181818;stroke-width:0.5;" x1="1953.5" x2="2430.5" y1="740" y2="740"/><line style="stroke:#181818;stroke-width:0.5;" x1="1953.5" x2="2430.5" y1="748" y2="748"/><ellipse cx="1963.5" cy="761.6484" fill="#84BE84" rx="3" ry="3" style="stroke:#038048;stroke-width:1.0;"/><text fill="#000000" font-family="sans-serif" font-size="14" lengthAdjust="spacing" textLength="453" x="1972.5" y="764.9951">__init__(include=[country], exclude=[country]): BoundingBoxFilter</text><ellipse cx="1963.5" cy="777.9453" fill="#84BE84" rx="3" ry="3" style="stroke:#038048;stroke-width:1.0;"/><text fill="#000000" font-family="sans-serif" font-size="14" lengthAdjust="spacing" textLength="183" x="1972.5" y="781.292">name(): "bounding_boxes"</text><ellipse cx="1963.5" cy="794.2422" fill="#84BE84" rx="3" ry="3" style="stroke:#038048;stroke-width:1.0;"/><text fill="#000000" font-family="sans-serif" font-size="14" lengthAdjust="spacing" textLength="120" x="1972.5" y="797.5889">init_kwargs(): dict</text><ellipse cx="1963.5" cy="810.5391" fill="#84BE84" rx="3" ry="3" style="stroke:#038048;stroke-width:1.0;"/><text fill="#000000" font-family="sans-serif" font-size="14" lengthAdjust="spacing" textLength="274" x="1972.5" y="813.8857">filter_stations(stations): dict[str, Station]</text><text fill="#000000" font-family="sans-serif" font-size="14" lengthAdjust="spacing" textLength="180" x="1972.5" y="830.1826">has_location(lat, lon): bool</text></g><!--class TimeBoundsFilter--><g id="elem_TimeBoundsFilter"><rect codeLine="73" fill="#F1F1F1" height="194.6719" id="TimeBoundsFilter" rx="2.5" ry="2.5" style="stroke:#181818;stroke-width:0.5;" width="363" x="1862.5" y="453"/><ellipse cx="1979.25" cy="469" fill="#ADD1B2" rx="11" ry="11" style="stroke:#181818;stroke-width:1.0;"/><path d="M1982.2188,474.6406 Q1981.6406,474.9375 1981,475.0781 Q1980.3594,475.2344 1979.6563,475.2344 Q1977.1563,475.2344 1975.8281,473.5938 Q1974.5156,471.9375 1974.5156,468.8125 Q1974.5156,465.6875 1975.8281,464.0313 Q1977.1563,462.375 1979.6563,462.375 Q1980.3594,462.375 1981,462.5313 Q1981.6563,462.6875 1982.2188,462.9844 L1982.2188,465.7031 Q1981.5938,465.125 1981,464.8594 Q1980.4063,464.5781 1979.7813,464.5781 Q1978.4375,464.5781 1977.75,465.6563 Q1977.0625,466.7188 1977.0625,468.8125 Q1977.0625,470.9063 1977.75,471.9844 Q1978.4375,473.0469 1979.7813,473.0469 Q1980.4063,473.0469 1981,472.7813 Q1981.5938,472.5 1982.2188,471.9219 L1982.2188,474.6406 Z " fill="#000000"/><text fill="#000000" font-family="sans-serif" font-size="14" lengthAdjust="spacing" textLength="121" x="1999.75" y="473.8467">TimeBoundsFilter</text><line style="stroke:#181818;stroke-width:0.5;" x1="1863.5" x2="2224.5" y1="485" y2="485"/><line style="stroke:#181818;stroke-width:0.5;" x1="1863.5" x2="2224.5" y1="493" y2="493"/><ellipse cx="1873.5" cy="522.9453" fill="#84BE84" rx="3" ry="3" style="stroke:#038048;stroke-width:1.0;"/><text fill="#000000" font-family="sans-serif" font-size="14" lengthAdjust="spacing" textLength="337" x="1882.5" y="509.9951">__init__(start_include=[flag], start_exclude=[flag],</text><text fill="#000000" font-family="sans-serif" font-size="14" lengthAdjust="spacing" textLength="253" x="1886.5" y="526.292">start_end_include, startend_exclude,</text><text fill="#000000" font-family="sans-serif" font-size="14" lengthAdjust="spacing" textLength="315" x="1886.5" y="542.5889">end_include, end_exclude): TimeBoundsFilter</text><ellipse cx="1873.5" cy="555.5391" fill="#84BE84" rx="3" ry="3" style="stroke:#038048;stroke-width:1.0;"/><text fill="#000000" font-family="sans-serif" font-size="14" lengthAdjust="spacing" textLength="158" x="1882.5" y="558.8857">name(): "time_bounds"</text><ellipse cx="1873.5" cy="571.8359" fill="#84BE84" rx="3" ry="3" style="stroke:#038048;stroke-width:1.0;"/><text fill="#000000" font-family="sans-serif" font-size="14" lengthAdjust="spacing" textLength="120" x="1882.5" y="575.1826">init_kwargs(): dict</text><ellipse cx="1873.5" cy="588.1328" fill="#84BE84" rx="3" ry="3" style="stroke:#038048;stroke-width:1.0;"/><text fill="#000000" font-family="sans-serif" font-size="14" lengthAdjust="spacing" textLength="304" x="1882.5" y="591.4795">filter_data_idx(data, stations, variables): Data</text><text fill="#000000" font-family="sans-serif" font-size="14" lengthAdjust="spacing" textLength="145" x="1882.5" y="607.7764">has_envelope(): bool</text><text fill="#000000" font-family="sans-serif" font-size="14" lengthAdjust="spacing" textLength="159" x="1882.5" y="624.0732">envelope(): (start, end)</text><text fill="#000000" font-family="sans-serif" font-size="14" lengthAdjust="spacing" textLength="334" x="1882.5" y="640.3701">contains(start_dt_array, end_dt_array): bool-array</text></g><!--class TimeResolutionFilter--><g id="elem_TimeResolutionFilter"><rect codeLine="83" fill="#F1F1F1" height="113.1875" id="TimeResolutionFilter" rx="2.5" ry="2.5" style="stroke:#181818;stroke-width:0.5;" width="448" x="387" y="494"/><ellipse cx="536.25" cy="510" fill="#ADD1B2" rx="11" ry="11" style="stroke:#181818;stroke-width:1.0;"/><path d="M539.2188,515.6406 Q538.6406,515.9375 538,516.0781 Q537.3594,516.2344 536.6563,516.2344 Q534.1563,516.2344 532.8281,514.5938 Q531.5156,512.9375 531.5156,509.8125 Q531.5156,506.6875 532.8281,505.0313 Q534.1563,503.375 536.6563,503.375 Q537.3594,503.375 538,503.5313 Q538.6563,503.6875 539.2188,503.9844 L539.2188,506.7031 Q538.5938,506.125 538,505.8594 Q537.4063,505.5781 536.7813,505.5781 Q535.4375,505.5781 534.75,506.6563 Q534.0625,507.7188 534.0625,509.8125 Q534.0625,511.9063 534.75,512.9844 Q535.4375,514.0469 536.7813,514.0469 Q537.4063,514.0469 538,513.7813 Q538.5938,513.5 539.2188,512.9219 L539.2188,515.6406 Z " fill="#000000"/><text fill="#000000" font-family="sans-serif" font-size="14" lengthAdjust="spacing" textLength="141" x="556.75" y="514.8467">TimeResolutionFilter</text><line style="stroke:#181818;stroke-width:0.5;" x1="388" x2="834" y1="526" y2="526"/><line style="stroke:#181818;stroke-width:0.5;" x1="388" x2="834" y1="534" y2="534"/><ellipse cx="398" cy="547.6484" fill="#84BE84" rx="3" ry="3" style="stroke:#038048;stroke-width:1.0;"/><text fill="#000000" font-family="sans-serif" font-size="14" lengthAdjust="spacing" textLength="422" x="407" y="550.9951">__init__(resolutions=[resolution_string]): TimeResolutionFilter</text><ellipse cx="398" cy="563.9453" fill="#84BE84" rx="3" ry="3" style="stroke:#038048;stroke-width:1.0;"/><text fill="#000000" font-family="sans-serif" font-size="14" lengthAdjust="spacing" textLength="182" x="407" y="567.292">name(): "time_resolutions"</text><ellipse cx="398" cy="580.2422" fill="#84BE84" rx="3" ry="3" style="stroke:#038048;stroke-width:1.0;"/><text fill="#000000" font-family="sans-serif" font-size="14" lengthAdjust="spacing" textLength="120" x="407" y="583.5889">init_kwargs(): dict</text><ellipse cx="398" cy="596.5391" fill="#84BE84" rx="3" ry="3" style="stroke:#038048;stroke-width:1.0;"/><text fill="#000000" font-family="sans-serif" font-size="14" lengthAdjust="spacing" textLength="304" x="407" y="599.8857">filter_data_idx(data, stations, variables): Data</text></g><!--class DuplicateFilter--><g id="elem_DuplicateFilter"><rect codeLine="90" fill="#F1F1F1" height="113.1875" id="DuplicateFilter" rx="2.5" ry="2.5" style="stroke:#181818;stroke-width:0.5;" width="564" x="870" y="494"/><ellipse cx="1098.75" cy="510" fill="#ADD1B2" rx="11" ry="11" style="stroke:#181818;stroke-width:1.0;"/><path d="M1101.7188,515.6406 Q1101.1406,515.9375 1100.5,516.0781 Q1099.8594,516.2344 1099.1563,516.2344 Q1096.6563,516.2344 1095.3281,514.5938 Q1094.0156,512.9375 1094.0156,509.8125 Q1094.0156,506.6875 1095.3281,505.0313 Q1096.6563,503.375 1099.1563,503.375 Q1099.8594,503.375 1100.5,503.5313 Q1101.1563,503.6875 1101.7188,503.9844 L1101.7188,506.7031 Q1101.0938,506.125 1100.5,505.8594 Q1099.9063,505.5781 1099.2813,505.5781 Q1097.9375,505.5781 1097.25,506.6563 Q1096.5625,507.7188 1096.5625,509.8125 Q1096.5625,511.9063 1097.25,512.9844 Q1097.9375,514.0469 1099.2813,514.0469 Q1099.9063,514.0469 1100.5,513.7813 Q1101.0938,513.5 1101.7188,512.9219 L1101.7188,515.6406 Z " fill="#000000"/><text fill="#000000" font-family="sans-serif" font-size="14" lengthAdjust="spacing" textLength="98" x="1119.25" y="514.8467">DuplicateFilter</text><line style="stroke:#181818;stroke-width:0.5;" x1="871" x2="1433" y1="526" y2="526"/><line style="stroke:#181818;stroke-width:0.5;" x1="871" x2="1433" y1="534" y2="534"/><ellipse cx="881" cy="547.6484" fill="#84BE84" rx="3" ry="3" style="stroke:#038048;stroke-width:1.0;"/><text fill="#000000" font-family="sans-serif" font-size="14" lengthAdjust="spacing" textLength="538" x="890" y="550.9951">__init__(duplicate_keys=["stations", "start_times", "end_times"]): DuplicateFilter</text><ellipse cx="881" cy="563.9453" fill="#84BE84" rx="3" ry="3" style="stroke:#038048;stroke-width:1.0;"/><text fill="#000000" font-family="sans-serif" font-size="14" lengthAdjust="spacing" textLength="139" x="890" y="567.292">name(): "duplicates"</text><ellipse cx="881" cy="580.2422" fill="#84BE84" rx="3" ry="3" style="stroke:#038048;stroke-width:1.0;"/><text fill="#000000" font-family="sans-serif" font-size="14" lengthAdjust="spacing" textLength="120" x="890" y="583.5889">init_kwargs(): dict</text><ellipse cx="881" cy="596.5391" fill="#84BE84" rx="3" ry="3" style="stroke:#038048;stroke-width:1.0;"/><text fill="#000000" font-family="sans-serif" font-size="14" lengthAdjust="spacing" textLength="304" x="890" y="599.8857">filter_data_idx(data, stations, variables): Data</text></g><!--class FlagFilter--><g id="elem_FlagFilter"><rect codeLine="97" fill="#F1F1F1" height="129.4844" id="FlagFilter" rx="2.5" ry="2.5" style="stroke:#181818;stroke-width:0.5;" width="358" x="1469" y="486"/><ellipse cx="1613.25" cy="502" fill="#ADD1B2" rx="11" ry="11" style="stroke:#181818;stroke-width:1.0;"/><path d="M1616.2188,507.6406 Q1615.6406,507.9375 1615,508.0781 Q1614.3594,508.2344 1613.6563,508.2344 Q1611.1563,508.2344 1609.8281,506.5938 Q1608.5156,504.9375 1608.5156,501.8125 Q1608.5156,498.6875 1609.8281,497.0313 Q1611.1563,495.375 1613.6563,495.375 Q1614.3594,495.375 1615,495.5313 Q1615.6563,495.6875 1616.2188,495.9844 L1616.2188,498.7031 Q1615.5938,498.125 1615,497.8594 Q1614.4063,497.5781 1613.7813,497.5781 Q1612.4375,497.5781 1611.75,498.6563 Q1611.0625,499.7188 1611.0625,501.8125 Q1611.0625,503.9063 1611.75,504.9844 Q1612.4375,506.0469 1613.7813,506.0469 Q1614.4063,506.0469 1615,505.7813 Q1615.5938,505.5 1616.2188,504.9219 L1616.2188,507.6406 Z " fill="#000000"/><text fill="#000000" font-family="sans-serif" font-size="14" lengthAdjust="spacing" textLength="61" x="1633.75" y="506.8467">FlagFilter</text><line style="stroke:#181818;stroke-width:0.5;" x1="1470" x2="1826" y1="518" y2="518"/><line style="stroke:#181818;stroke-width:0.5;" x1="1470" x2="1826" y1="526" y2="526"/><ellipse cx="1480" cy="539.6484" fill="#84BE84" rx="3" ry="3" style="stroke:#038048;stroke-width:1.0;"/><text fill="#000000" font-family="sans-serif" font-size="14" lengthAdjust="spacing" textLength="332" x="1489" y="542.9951">__init__(include=[flag], exclude=[flag]): FlagFilter</text><ellipse cx="1480" cy="555.9453" fill="#84BE84" rx="3" ry="3" style="stroke:#038048;stroke-width:1.0;"/><text fill="#000000" font-family="sans-serif" font-size="14" lengthAdjust="spacing" textLength="100" x="1489" y="559.292">name(): "flags"</text><ellipse cx="1480" cy="572.2422" fill="#84BE84" rx="3" ry="3" style="stroke:#038048;stroke-width:1.0;"/><text fill="#000000" font-family="sans-serif" font-size="14" lengthAdjust="spacing" textLength="120" x="1489" y="575.5889">init_kwargs(): dict</text><ellipse cx="1480" cy="588.5391" fill="#84BE84" rx="3" ry="3" style="stroke:#038048;stroke-width:1.0;"/><text fill="#000000" font-family="sans-serif" font-size="14" lengthAdjust="spacing" textLength="304" x="1489" y="591.8857">filter_data_idx(data, stations, variables): Data</text><text fill="#000000" font-family="sans-serif" font-size="14" lengthAdjust="spacing" textLength="168" x="1489" y="608.1826">usable_flags(): set(flags)</text></g><g id="elem_GMN4"><path d="M2910.5,317 L2910.5,340.5 L2331.15,344.5 L2910.5,348.5 L2910.5,372.3984 A0,0 0 0 0 2910.5,372.3984 L3077.5,372.3984 A0,0 0 0 0 3077.5,372.3984 L3077.5,327 L3067.5,317 L2910.5,317 A0,0 0 0 0 2910.5,317 " fill="#FEFFDD" style="stroke:#181818;stroke-width:0.5;"/><path d="M3067.5,317 L3067.5,327 L3077.5,327 L3067.5,317 " fill="#FEFFDD" style="stroke:#181818;stroke-width:0.5;"/><text fill="#000000" font-family="sans-serif" font-size="13" lengthAdjust="spacing" textLength="60" x="2916.5" y="334.0669">Singelton</text><text fill="#000000" font-family="sans-serif" font-size="13" lengthAdjust="spacing" textLength="133" x="2916.5" y="349.1997">instance available as</text><text fill="#000000" font-family="sans-serif" font-size="13" lengthAdjust="spacing" textLength="146" x="2916.5" y="364.3325">pyaro.timeseries.filters</text></g><!--reverse link Filter to VariableNameFilter--><g id="link_Filter_VariableNameFilter"><path codeLine="106" d="M2117.4771,189.8689 C2195.1471,216.1989 2272.11,248.06 2349,296 C2418.29,339.2 2485.97,400.97 2536.97,452.72 " fill="none" id="Filter-backto-VariableNameFilter" style="stroke:#181818;stroke-width:1.0;stroke-dasharray:7.0,7.0;"/><polygon fill="none" points="2100.43,184.09,2115.5508,195.5513,2119.4034,184.1866,2100.43,184.09" style="stroke:#181818;stroke-width:1.0;"/></g><!--reverse link Filter to DataIndexFilter--><g id="link_Filter_DataIndexFilter"><path codeLine="107" d="M1778.8508,202.4694 C1686.8408,236.7194 1588.72,273.25 1506.44,303.88 " fill="none" id="Filter-backto-DataIndexFilter" style="stroke:#181818;stroke-width:1.0;stroke-dasharray:7.0,7.0;"/><polygon fill="none" points="1795.72,196.19,1776.7577,196.8464,1780.944,208.0925,1795.72,196.19" style="stroke:#181818;stroke-width:1.0;"/></g><!--reverse link DataIndexFilter to StationReductionFilter--><g id="link_DataIndexFilter_StationReductionFilter"><path codeLine="108" d="M1223.5155,355.7993 C976.3155,371.3393 528.82,404.8 370,453 C327.04,466.04 282.4,489.35 247.97,509.8 " fill="none" id="DataIndexFilter-backto-StationReductionFilter" style="stroke:#181818;stroke-width:1.0;stroke-dasharray:7.0,7.0;"/><polygon fill="none" points="1241.48,354.67,1223.139,349.8111,1223.8919,361.7875,1241.48,354.67" style="stroke:#181818;stroke-width:1.0;"/></g><!--reverse link StationReductionFilter to StationFilter--><g id="link_StationReductionFilter_StationFilter"><path codeLine="109" d="M269.7673,599.933 C303.7173,618.883 330.33,632.08 370,648 C440.37,676.23 519.58,700.8 590.83,720.43 " fill="none" id="StationReductionFilter-backto-StationFilter" style="stroke:#181818;stroke-width:1.0;stroke-dasharray:7.0,7.0;"/><polygon fill="none" points="254.05,591.16,266.843,605.1721,272.6917,594.6939,254.05,591.16" style="stroke:#181818;stroke-width:1.0;"/></g><!--reverse link StationReductionFilter to CountryFilter--><g id="link_StationReductionFilter_CountryFilter"><path codeLine="110" d="M262.935,600.4173 C297.405,620.9973 326.78,635.21 370,648 C653.71,731.97 738.78,676.8 1033,708 C1132.18,718.52 1241.78,731.62 1334.84,743.19 " fill="none" id="StationReductionFilter-backto-CountryFilter" style="stroke:#181818;stroke-width:1.0;stroke-dasharray:7.0,7.0;"/><polygon fill="none" points="247.48,591.19,259.8593,605.5689,266.0108,595.2656,247.48,591.19" style="stroke:#181818;stroke-width:1.0;"/></g><!--reverse link StationReductionFilter to BoundingBoxFilter--><g id="link_StationReductionFilter_BoundingBoxFilter"><path codeLine="111" d="M260.9938,600.372 C295.5938,621.442 325.79,636.06 370,648 C675.56,730.5 1478.08,676.41 1793,708 C1844.73,713.19 1899.96,720.7 1952.32,728.75 " fill="none" id="StationReductionFilter-backto-BoundingBoxFilter" style="stroke:#181818;stroke-width:1.0;stroke-dasharray:7.0,7.0;"/><polygon fill="none" points="245.62,591.01,257.8731,605.4966,264.1144,595.2474,245.62,591.01" style="stroke:#181818;stroke-width:1.0;"/></g><!--reverse link DataIndexFilter to TimeBoundsFilter--><g id="link_DataIndexFilter_TimeBoundsFilter"><path codeLine="112" d="M1576.2787,378.9129 C1662.3187,397.1529 1752.14,419.7 1845,453 C1850.78,455.07 1856.62,457.26 1862.48,459.55 " fill="none" id="DataIndexFilter-backto-TimeBoundsFilter" style="stroke:#181818;stroke-width:1.0;stroke-dasharray:7.0,7.0;"/><polygon fill="none" points="1558.67,375.18,1575.0344,384.7825,1577.523,373.0434,1558.67,375.18" style="stroke:#181818;stroke-width:1.0;"/></g><!--reverse link DataIndexFilter to TimeResolutionFilter--><g id="link_DataIndexFilter_TimeResolutionFilter"><path codeLine="113" d="M1223.5664,371.5979 C1113.3664,389.6379 981.57,415.09 853,453 C814.82,464.26 774.3,479.18 737.55,493.91 " fill="none" id="DataIndexFilter-backto-TimeResolutionFilter" style="stroke:#181818;stroke-width:1.0;stroke-dasharray:7.0,7.0;"/><polygon fill="none" points="1241.33,368.69,1222.5971,365.6768,1224.5358,377.5191,1241.33,368.69" style="stroke:#181818;stroke-width:1.0;"/></g><!--reverse link DataIndexFilter to DuplicateFilter--><g id="link_DataIndexFilter_DuplicateFilter"><path codeLine="114" d="M1337.9875,396.5133 C1300.3775,427.4433 1261.54,459.4 1219.67,493.83 " fill="none" id="DataIndexFilter-backto-DuplicateFilter" style="stroke:#181818;stroke-width:1.0;stroke-dasharray:7.0,7.0;"/><polygon fill="none" points="1351.89,385.08,1334.1764,391.8791,1341.7986,401.1474,1351.89,385.08" style="stroke:#181818;stroke-width:1.0;"/></g><!--reverse link DataIndexFilter to FlagFilter--><g id="link_DataIndexFilter_FlagFilter"><path codeLine="115" d="M1462.0127,396.5131 C1496.8027,425.1231 1530.65,452.97 1570.75,485.95 " fill="none" id="DataIndexFilter-backto-FlagFilter" style="stroke:#181818;stroke-width:1.0;stroke-dasharray:7.0,7.0;"/><polygon fill="none" points="1448.11,385.08,1458.2017,401.1473,1465.8237,391.8788,1448.11,385.08" style="stroke:#181818;stroke-width:1.0;"/></g><!--link FilterFactory to VariableNameFilter--><g id="link_FilterFactory_VariableNameFilter"><path codeLine="117" d="M2331.18,384.83 C2365.99,404.34 2404.4755,425.9175 2447.4755,450.0075 " fill="none" id="FilterFactory-to-VariableNameFilter" style="stroke:#181818;stroke-width:1.0;stroke-dasharray:7.0,7.0;"/><polygon fill="#181818" points="2452.71,452.94,2446.8133,445.0515,2448.3479,450.4962,2442.9032,452.0309,2452.71,452.94" style="stroke:#181818;stroke-width:1.0;"/></g><!--link FilterFactory to StationFilter--><g id="link_FilterFactory_StationFilter"><path codeLine="118" d="M2261.55,393.19 C2261.99,473.89 2260.53,630.38 2243,648 C2170.37,721.02 1420.54,698.36 1318,708 C1218.22,717.38 1113.8509,729.8341 1021.0009,741.7841 " fill="none" id="FilterFactory-to-StationFilter" style="stroke:#181818;stroke-width:1.0;stroke-dasharray:7.0,7.0;"/><polygon fill="#181818" points="1015.05,742.55,1024.487,745.3684,1020.0091,741.9118,1023.4658,737.4339,1015.05,742.55" style="stroke:#181818;stroke-width:1.0;"/></g><!--link FilterFactory to CountryFilter--><g id="link_FilterFactory_CountryFilter"><path codeLine="119" d="M2269.81,393.21 C2282.56,468.64 2301.39,610.72 2270,648 C2267.95,650.43 1990.2857,697.8675 1780.9257,733.3475 " fill="none" id="FilterFactory-to-CountryFilter" style="stroke:#181818;stroke-width:1.0;stroke-dasharray:7.0,7.0;"/><polygon fill="#181818" points="1775.01,734.35,1784.5518,736.79,1779.9397,733.5146,1783.2151,728.9025,1775.01,734.35" style="stroke:#181818;stroke-width:1.0;"/></g><!--link FilterFactory to BoundingBoxFilter--><g id="link_FilterFactory_BoundingBoxFilter"><path codeLine="120" d="M2286.28,393.11 C2294.62,411.32 2302.82,432.62 2307,453 C2324.4,537.9 2338.73,567.35 2307,648 C2298.36,669.95 2287.8163,685.8516 2271.8863,703.4516 " fill="none" id="FilterFactory-to-BoundingBoxFilter" style="stroke:#181818;stroke-width:1.0;stroke-dasharray:7.0,7.0;"/><polygon fill="#181818" points="2267.86,707.9,2276.8651,703.9116,2271.2153,704.193,2270.9339,698.5431,2267.86,707.9" style="stroke:#181818;stroke-width:1.0;"/></g><!--link FilterFactory to TimeBoundsFilter--><g id="link_FilterFactory_TimeBoundsFilter"><path codeLine="121" d="M2210.4,393.07 C2191.36,410.97 2173.3312,427.91 2151.2412,448.68 " fill="none" id="FilterFactory-to-TimeBoundsFilter" style="stroke:#181818;stroke-width:1.0;stroke-dasharray:7.0,7.0;"/><polygon fill="#181818" points="2146.87,452.79,2156.1669,449.5391,2150.5127,449.365,2150.6868,443.7108,2146.87,452.79" style="stroke:#181818;stroke-width:1.0;"/></g><!--link FilterFactory to TimeResolutionFilter--><g id="link_FilterFactory_TimeResolutionFilter"><path codeLine="122" d="M2190.61,350.28 C1914.7,369.09 918.79,437.75 853,453 C811.69,462.58 773.7313,475.8033 735.1813,491.6133 " fill="none" id="FilterFactory-to-TimeResolutionFilter" style="stroke:#181818;stroke-width:1.0;stroke-dasharray:7.0,7.0;"/><polygon fill="#181818" points="729.63,493.89,739.4747,494.1758,734.2561,491.9928,736.4391,486.7741,729.63,493.89" style="stroke:#181818;stroke-width:1.0;"/></g><!--link FilterFactory to DuplicateFilter--><g id="link_FilterFactory_DuplicateFilter"><path codeLine="123" d="M2191,350.56 C2049.84,361.68 1721.53,392.26 1452,453 C1404.1,463.8 1358.6162,477.0256 1312.3362,492.0656 " fill="none" id="FilterFactory-to-DuplicateFilter" style="stroke:#181818;stroke-width:1.0;stroke-dasharray:7.0,7.0;"/><polygon fill="#181818" points="1306.63,493.92,1316.4256,494.9426,1311.3852,492.3747,1313.9531,487.3342,1306.63,493.92" style="stroke:#181818;stroke-width:1.0;"/></g><!--link FilterFactory to FlagFilter--><g id="link_FilterFactory_FlagFilter"><path codeLine="124" d="M2190.86,359.08 C2107.09,376.34 1963.41,409.21 1845,453 C1819.55,462.41 1798.4291,471.4845 1773.3691,483.3945 " fill="none" id="FilterFactory-to-FlagFilter" style="stroke:#181818;stroke-width:1.0;stroke-dasharray:7.0,7.0;"/><polygon fill="#181818" points="1767.95,485.97,1777.7957,485.7195,1772.4659,483.8238,1774.3617,478.494,1767.95,485.97" style="stroke:#181818;stroke-width:1.0;"/></g><!--SRC=[lLVVRzis47xdNt5eNsJ4Db8lBGfZ7OOazR0iwOeapKjc2BH4EqGLqY0fryRQ_tr7weSfoPBjhPqV3F7klhlxxeuK5ILKQp3ycMccEDF32KyCKnCQ6Qasy3S1_9qic0a4VMQzCMJwJApOWcjS1NCdx6NI16K1MZvgewRa6n7IC51yyMH0pbj38VQEYmLBZ1Jup8KsL4GCw8hoXCuIVD8eNsweaaFFIHPQ4oPYi948uG85SuhOHYp7Pm1Xo0KtOHZqu2MaGZ7Cb4U6nK3Ho-SlL2rihC70MLlYbWyQkRN3PaPM72CIvIVG48IXOaiRfS12bcmOKqC3-zT71JLS2js75LNSyjHeVeawpxum2eg7F8gjS1_kCk7K0vI-0jzhrX3i28dgNN_8pJuWLwzK9zjIAKPZz6naADYNFXOXIjAOzO6jtGEwztrSF56nm7QMqt9Ibl55cT8B9syhvm5KFBE3ImgOldNgqib9vSjjdw2g23oCP_H4TPbUpMGcPLBQR9rbfesepXhRGcVe6hS3DFfZi_zTn6nTQSwHt0S-8EJnkXE4UfjJHrBvuDsoE8tiGrjkUqFLypjmtdSDSgxSFSFvqBvxpFrEo_7TYZ1KnKTrTek43XhTWxUj7PBSfh3rfgB1yKAcmgZD7evHPkLpB4JelEAZoZ6pukm7aCmJ2BYM8qIgBfRdQ1lZ4N8kr_-9QSDFbUqiLuSpkVuHb1CPPOrDgEb3qjtPUtnq-UhTb36WCc59V9xGnTHjAfIMt3FfNwAGYpWiJsidifBSsffL33mT9bhFfrewctZewdTOtOuv2spfc5YnH2vTiFn0zKLPDLpAzkOHIM4epxg2j6CJKgNe9gDKh79F0xTeRS4jqp99syyHLUhrkyVjmauqJj8qBrpTouxYUOw-SmLtKRjCbmd7QMnvmyU5ElpCDaXiUzZrtS67HNNExDBMD5jOjZN7LQAbs_-3uWHdVyzfaM-QwdQn5ziIMitVwh__VAVQ2aBdt5qGyORj5ZttqctUN7_-EXnstzWE0DMk4QJZXb67xdxPa_tNWHP7_nfVVNCTZs- -3uweGkD0F1BRE1EEmDTtsH5GRxP9wxVUSFZBiGFM0crjSIUgjR6TgCvsTYAxUhaNsDN8Jd175pjnNWj_nTENa8y95URJpJMiyFCNyu1Nmz7fw6puKt3_bCA4pU3LQnYTZizEnwUluUBzFLXrZmI_VRnUZK3BLE4dSipjIslccFJ85Nvjmoss0UEEuSyb4rUNVnG2U2zMN4dnp8GXLmytMuCtPuDpRk2EASm57cx89PlJD368YAHjpXW-tKy6RyarVXMcT86-cI1vlr5tzmy0]--></g></svg>