<?xml version="1.0" standalone="no"?>
<!DOCTYPE svg PUBLIC "-//W3C//DTD SVG 20010904//EN"
 "http://www.w3.org/TR/2001/REC-SVG-20010904/DTD/svg10.dtd">
<svg version="1.0" xmlns="http://www.w3.org/2000/svg"
 width="800.000000pt" height="800.000000pt" viewBox="0 0 800.000000 800.000000"
 preserveAspectRatio="xMidYMid meet">
<metadata>
Created by potrace 1.16, written by Peter Selinger 2001-2019
</metadata>
<g transform="translate(0.000000,800.000000) scale(0.100000,-0.100000)"
fill="#000000" stroke="none">
<path d="M4000 7015 c-52 -8 -148 -21 -212 -29 -134 -18 -458 -115 -618 -185
-52 -23 -144 -63 -205 -87 -216 -88 -293 -131 -585 -323 -111 -73 -182 -137
-224 -204 -26 -41 -45 -163 -46 -292 0 -107 40 -463 67 -582 9 -40 14 -74 12
-76 -13 -10 -149 -93 -238 -146 -154 -93 -230 -149 -382 -282 -126 -110 -185
-181 -259 -313 -81 -143 -93 -312 -31 -416 4 -8 18 -35 29 -61 47 -107 199
-221 401 -300 146 -57 241 -80 364 -86 l108 -6 -15 39 c-8 21 -22 76 -31 122
-20 102 -8 202 32 272 39 67 145 167 190 179 49 14 114 14 150 0 35 -13 88
-62 119 -111 13 -21 40 -48 59 -60 64 -41 87 -140 98 -413 5 -107 22 -184 53
-232 8 -13 55 -55 104 -93 49 -39 99 -84 110 -101 12 -16 28 -29 37 -29 19 0
16 23 -27 170 -52 179 -69 244 -73 280 -3 19 -12 84 -21 144 -9 60 -16 159
-16 220 -1 129 -8 163 -84 389 -49 148 -56 178 -56 248 l0 80 82 40 c82 39
451 162 548 183 14 3 43 10 65 15 37 9 75 17 280 58 270 53 672 94 910 93 194
-1 663 -38 710 -56 24 -10 33 -34 40 -114 6 -68 28 -205 42 -270 l6 -25 -26
23 c-14 13 -42 28 -64 33 -21 6 -56 15 -78 20 -65 17 -180 5 -288 -31 -93 -31
-99 -35 -123 -76 -37 -62 -28 -78 38 -70 28 4 90 16 137 28 117 28 254 23 326
-12 97 -46 112 -63 126 -141 12 -68 13 -70 38 -64 109 27 431 226 620 383 201
167 301 281 363 412 73 154 61 310 -31 439 -25 35 -50 70 -56 79 -32 50 -125
107 -237 146 -41 14 -95 37 -119 51 -24 13 -57 25 -74 25 -16 1 -48 8 -70 16
-85 33 -358 66 -530 63 l-130 -2 -17 54 c-9 30 -17 66 -17 81 -1 15 -5 29 -10
33 -5 3 -13 20 -16 38 -4 17 -18 65 -31 106 -13 40 -24 80 -24 89 0 8 -14 47
-31 86 -17 39 -46 105 -64 146 -18 41 -37 86 -41 100 -4 14 -17 41 -30 60 -13
19 -24 41 -24 49 0 8 -12 34 -26 59 -29 49 -62 67 -145 78 -30 4 -76 16 -104
27 -38 15 -88 21 -210 28 -351 17 -429 18 -525 4z"/>
<path d="M3770 4664 c-81 -16 -203 -56 -255 -82 -70 -36 -215 -158 -245 -206
-43 -71 -19 -91 47 -40 74 57 262 143 377 171 88 22 115 25 216 20 63 -3 137
-13 164 -21 63 -20 72 -20 96 4 23 23 28 91 8 108 -31 25 -129 43 -253 47 -71
2 -141 1 -155 -1z"/>
<path d="M4619 3250 c-47 -15 -119 -45 -159 -66 -85 -43 -167 -63 -260 -64
-86 0 -107 15 -116 80 -8 59 -20 63 -40 15 -46 -111 24 -229 164 -274 104 -34
248 -27 377 17 106 37 170 49 179 34 4 -6 13 -9 20 -6 8 3 29 -3 48 -13 47
-25 214 -25 280 0 49 19 88 61 114 122 15 37 19 145 5 145 -5 0 -20 -15 -34
-34 -54 -70 -156 -70 -259 2 -49 33 -165 73 -210 71 -13 0 -62 -13 -109 -29z"/>
<path d="M2503 2032 l-33 -3 0 -480 0 -479 50 0 50 0 0 185 0 185 115 0 c166
0 206 11 271 74 68 66 89 131 82 251 -8 124 -62 213 -153 251 -28 11 -307 23
-382 16z m364 -132 c49 -30 68 -73 68 -160 0 -83 -18 -126 -68 -164 -25 -18
-45 -21 -163 -24 l-134 -4 0 186 0 186 133 0 c113 0 137 -3 164 -20z"/>
<path d="M4543 2032 l-23 -3 0 -480 0 -479 50 0 50 0 0 205 0 205 104 0 103 0
89 -205 89 -204 58 -1 c31 0 57 3 57 7 0 3 -40 95 -90 203 -49 108 -90 201
-90 206 0 5 20 21 43 35 62 37 99 112 105 209 5 90 -8 142 -51 206 -54 81 -89
92 -297 96 -96 2 -185 2 -197 0z m373 -125 c86 -45 97 -218 18 -287 l-35 -30
-139 0 -140 0 0 171 0 171 133 -4 c97 -3 140 -8 163 -21z"/>
<path d="M5430 2019 c-138 -62 -180 -170 -180 -469 0 -257 27 -355 117 -430
74 -61 219 -78 303 -35 58 29 118 95 142 155 20 50 23 76 26 286 3 181 0 243
-11 287 -40 153 -134 227 -286 227 -45 0 -81 -7 -111 -21z m217 -115 c37 -28
71 -78 84 -127 7 -25 9 -120 7 -251 -3 -192 -5 -215 -25 -251 -26 -49 -48 -70
-96 -90 -100 -42 -210 11 -248 122 -19 54 -19 432 0 488 18 54 53 98 93 119
46 23 148 18 185 -10z"/>
<path d="M3090 2023 c0 -3 59 -133 130 -288 l130 -282 0 -191 0 -192 50 0 50
0 0 199 0 199 126 274 c69 150 128 277 131 281 3 4 -21 7 -53 5 l-57 -3 -97
-217 c-53 -120 -99 -220 -101 -223 -3 -2 -50 97 -105 220 l-99 225 -52 0 c-29
0 -53 -3 -53 -7z"/>
<path d="M3956 1983 c-119 -369 -286 -897 -286 -904 0 -5 25 -9 55 -9 34 0 55
4 55 11 0 7 14 56 30 110 l31 99 183 0 183 0 12 -42 c7 -24 22 -73 33 -110
l20 -68 55 0 c40 0 54 3 51 13 -3 6 -72 222 -154 479 l-149 468 -52 0 -51 0
-16 -47z m138 -328 c37 -121 69 -228 72 -237 5 -17 -6 -18 -140 -18 -97 0
-146 4 -146 11 0 6 25 92 56 192 72 238 85 279 89 275 2 -2 33 -102 69 -223z"/>
</g>
</svg>
