<?xml version="1.0" encoding="us-ascii" standalone="no"?><svg xmlns="http://www.w3.org/2000/svg" xmlns:xlink="http://www.w3.org/1999/xlink" contentStyleType="text/css" height="781px" preserveAspectRatio="none" style="width:1392px;height:781px;background:#FFFFFF;" version="1.1" viewBox="0 0 1392 781" width="1392px" zoomAndPan="magnify"><defs/><g><!--cluster timeseries--><g id="cluster_timeseries"><path d="M83,292 L167,292 A3.75,3.75 0 0 1 169.5,294.5 L176.5,314.2969 L544,314.2969 A2.5,2.5 0 0 1 546.5,316.7969 L546.5,486.5 A2.5,2.5 0 0 1 544,489 L83,489 A2.5,2.5 0 0 1 80.5,486.5 L80.5,294.5 A2.5,2.5 0 0 1 83,292 " fill="none" style="stroke:#000000;stroke-width:1.5;"/><line style="stroke:#000000;stroke-width:1.5;" x1="80.5" x2="176.5" y1="314.2969" y2="314.2969"/><text fill="#000000" font-family="sans-serif" font-size="14" font-weight="bold" lengthAdjust="spacing" textLength="83" x="84.5" y="306.9951">timeseries</text></g><!--cluster profiles--><g id="cluster_profiles"><path d="M912,300.5 L973,300.5 A3.75,3.75 0 0 1 975.5,303 L982.5,322.7969 L1278,322.7969 A2.5,2.5 0 0 1 1280.5,325.2969 L1280.5,478 A2.5,2.5 0 0 1 1278,480.5 L912,480.5 A2.5,2.5 0 0 1 909.5,478 L909.5,303 A2.5,2.5 0 0 1 912,300.5 " fill="none" style="stroke:#000000;stroke-width:1.5;"/><line style="stroke:#000000;stroke-width:1.5;" x1="909.5" x2="982.5" y1="322.7969" y2="322.7969"/><text fill="#000000" font-family="sans-serif" font-size="14" font-weight="bold" lengthAdjust="spacing" textLength="60" x="913.5" y="315.4951">profiles</text></g><!--class Engine--><g id="elem_Engine"><rect codeLine="24" fill="#F5F5F5" height="129.4844" id="Engine" rx="2.5" ry="2.5" style="stroke:#696969;stroke-width:0.5;" width="189" x="341" y="335.5"/><ellipse cx="407.25" cy="351.5" fill="#B4A7E5" rx="11" ry="11" style="stroke:#181818;stroke-width:1.0;"/><path d="M403.1719,347.2656 L403.1719,345.1094 L410.5625,345.1094 L410.5625,347.2656 L408.0938,347.2656 L408.0938,355.3438 L410.5625,355.3438 L410.5625,357.5 L403.1719,357.5 L403.1719,355.3438 L405.6406,355.3438 L405.6406,347.2656 L403.1719,347.2656 Z " fill="#000000"/><text fill="#000000" font-family="sans-serif" font-size="14" font-style="italic" lengthAdjust="spacing" textLength="48" x="427.75" y="356.3467">Engine</text><line style="stroke:#696969;stroke-width:0.5;" x1="342" x2="529" y1="367.5" y2="367.5"/><line style="stroke:#696969;stroke-width:0.5;" x1="342" x2="529" y1="375.5" y2="375.5"/><ellipse cx="352" cy="389.1484" fill="#84BE84" rx="3" ry="3" style="stroke:#038048;stroke-width:1.0;"/><text fill="#000000" font-family="sans-serif" font-size="14" lengthAdjust="spacing" textLength="135" x="361" y="392.4951">open(args): Reader</text><ellipse cx="352" cy="405.4453" fill="#84BE84" rx="3" ry="3" style="stroke:#038048;stroke-width:1.0;"/><text fill="#000000" font-family="sans-serif" font-size="14" lengthAdjust="spacing" textLength="77" x="361" y="408.792">args(): [str]</text><ellipse cx="352" cy="421.7422" fill="#84BE84" rx="3" ry="3" style="stroke:#038048;stroke-width:1.0;"/><text fill="#000000" font-family="sans-serif" font-size="14" lengthAdjust="spacing" textLength="163" x="361" y="425.0889">supported_filters(): [str]</text><ellipse cx="352" cy="438.0391" fill="#84BE84" rx="3" ry="3" style="stroke:#038048;stroke-width:1.0;"/><text fill="#000000" font-family="sans-serif" font-size="14" lengthAdjust="spacing" textLength="114" x="361" y="441.3857">description(): str</text><ellipse cx="352" cy="454.3359" fill="#84BE84" rx="3" ry="3" style="stroke:#038048;stroke-width:1.0;"/><text fill="#000000" font-family="sans-serif" font-size="14" lengthAdjust="spacing" textLength="116" x="361" y="457.6826">url(): str_to_docs</text></g><!--class Reader--><g id="elem_Reader"><rect codeLine="42" fill="#F5F5F5" height="145.7813" id="Reader" rx="2.5" ry="2.5" style="stroke:#696969;stroke-width:0.5;" width="209" x="97" y="327"/><ellipse cx="172.25" cy="343" fill="#B4A7E5" rx="11" ry="11" style="stroke:#181818;stroke-width:1.0;"/><path d="M168.1719,338.7656 L168.1719,336.6094 L175.5625,336.6094 L175.5625,338.7656 L173.0938,338.7656 L173.0938,346.8438 L175.5625,346.8438 L175.5625,349 L168.1719,349 L168.1719,346.8438 L170.6406,346.8438 L170.6406,338.7656 L168.1719,338.7656 Z " fill="#000000"/><text fill="#000000" font-family="sans-serif" font-size="14" font-style="italic" lengthAdjust="spacing" textLength="50" x="192.75" y="347.8467">Reader</text><line style="stroke:#696969;stroke-width:0.5;" x1="98" x2="305" y1="359" y2="359"/><ellipse cx="108" cy="372.6484" fill="#84BE84" rx="3" ry="3" style="stroke:#038048;stroke-width:1.0;"/><text fill="#000000" font-family="sans-serif" font-size="14" lengthAdjust="spacing" textLength="88" x="117" y="375.9951">__init__(args)</text><line style="stroke:#696969;stroke-width:1.0;" x1="98" x2="305" y1="383.2969" y2="383.2969"/><ellipse cx="108" cy="396.9453" fill="#84BE84" rx="3" ry="3" style="stroke:#038048;stroke-width:1.0;"/><text fill="#000000" font-family="sans-serif" font-size="14" lengthAdjust="spacing" textLength="81" x="117" y="400.292">data(): Data</text><ellipse cx="108" cy="413.2422" fill="#84BE84" rx="3" ry="3" style="stroke:#038048;stroke-width:1.0;"/><text fill="#000000" font-family="sans-serif" font-size="14" lengthAdjust="spacing" textLength="163" x="117" y="416.5889">metadata(): dict[str, str]</text><ellipse cx="108" cy="429.5391" fill="#84BE84" rx="3" ry="3" style="stroke:#038048;stroke-width:1.0;"/><text fill="#000000" font-family="sans-serif" font-size="14" lengthAdjust="spacing" textLength="183" x="117" y="432.8857">stations(): dict[str, Station]</text><ellipse cx="108" cy="445.8359" fill="#84BE84" rx="3" ry="3" style="stroke:#038048;stroke-width:1.0;"/><text fill="#000000" font-family="sans-serif" font-size="14" lengthAdjust="spacing" textLength="107" x="117" y="449.1826">variables(): [str]</text><ellipse cx="108" cy="462.1328" fill="#84BE84" rx="3" ry="3" style="stroke:#038048;stroke-width:1.0;"/><text fill="#000000" font-family="sans-serif" font-size="14" lengthAdjust="spacing" textLength="47" x="117" y="465.4795">close()</text></g><!--class Engine--><g id="elem_Engine"><rect codeLine="66" fill="#F5F5F5" height="129.4844" id="Engine" rx="2.5" ry="2.5" style="stroke:#696969;stroke-width:0.5;" width="189" x="926" y="335.5"/><ellipse cx="992.25" cy="351.5" fill="#B4A7E5" rx="11" ry="11" style="stroke:#181818;stroke-width:1.0;"/><path d="M988.1719,347.2656 L988.1719,345.1094 L995.5625,345.1094 L995.5625,347.2656 L993.0938,347.2656 L993.0938,355.3438 L995.5625,355.3438 L995.5625,357.5 L988.1719,357.5 L988.1719,355.3438 L990.6406,355.3438 L990.6406,347.2656 L988.1719,347.2656 Z " fill="#000000"/><text fill="#000000" font-family="sans-serif" font-size="14" font-style="italic" lengthAdjust="spacing" textLength="48" x="1012.75" y="356.3467">Engine</text><line style="stroke:#696969;stroke-width:0.5;" x1="927" x2="1114" y1="367.5" y2="367.5"/><line style="stroke:#696969;stroke-width:0.5;" x1="927" x2="1114" y1="375.5" y2="375.5"/><ellipse cx="937" cy="389.1484" fill="#84BE84" rx="3" ry="3" style="stroke:#038048;stroke-width:1.0;"/><text fill="#000000" font-family="sans-serif" font-size="14" lengthAdjust="spacing" textLength="135" x="946" y="392.4951">open(args): Reader</text><ellipse cx="937" cy="405.4453" fill="#84BE84" rx="3" ry="3" style="stroke:#038048;stroke-width:1.0;"/><text fill="#000000" font-family="sans-serif" font-size="14" lengthAdjust="spacing" textLength="77" x="946" y="408.792">args(): [str]</text><ellipse cx="937" cy="421.7422" fill="#84BE84" rx="3" ry="3" style="stroke:#038048;stroke-width:1.0;"/><text fill="#000000" font-family="sans-serif" font-size="14" lengthAdjust="spacing" textLength="163" x="946" y="425.0889">supported_filters(): [str]</text><ellipse cx="937" cy="438.0391" fill="#84BE84" rx="3" ry="3" style="stroke:#038048;stroke-width:1.0;"/><text fill="#000000" font-family="sans-serif" font-size="14" lengthAdjust="spacing" textLength="114" x="946" y="441.3857">description(): str</text><ellipse cx="937" cy="454.3359" fill="#84BE84" rx="3" ry="3" style="stroke:#038048;stroke-width:1.0;"/><text fill="#000000" font-family="sans-serif" font-size="14" lengthAdjust="spacing" textLength="116" x="946" y="457.6826">url(): str_to_docs</text></g><!--class Reader--><g id="elem_Reader"><rect codeLine="74" fill="#F5F5F5" height="80.5938" id="Reader" rx="2.5" ry="2.5" style="stroke:#696969;stroke-width:0.5;" width="114" x="1150.5" y="359.5"/><ellipse cx="1179.9" cy="375.5" fill="#B4A7E5" rx="11" ry="11" style="stroke:#181818;stroke-width:1.0;"/><path d="M1175.8219,371.2656 L1175.8219,369.1094 L1183.2125,369.1094 L1183.2125,371.2656 L1180.7438,371.2656 L1180.7438,379.3438 L1183.2125,379.3438 L1183.2125,381.5 L1175.8219,381.5 L1175.8219,379.3438 L1178.2906,379.3438 L1178.2906,371.2656 L1175.8219,371.2656 Z " fill="#000000"/><text fill="#000000" font-family="sans-serif" font-size="14" font-style="italic" lengthAdjust="spacing" textLength="50" x="1197.1" y="380.3467">Reader</text><line style="stroke:#696969;stroke-width:0.5;" x1="1151.5" x2="1263.5" y1="391.5" y2="391.5"/><ellipse cx="1161.5" cy="405.1484" fill="#84BE84" rx="3" ry="3" style="stroke:#038048;stroke-width:1.0;"/><text fill="#000000" font-family="sans-serif" font-size="14" lengthAdjust="spacing" textLength="88" x="1170.5" y="408.4951">__init__(args)</text><line style="stroke:#696969;stroke-width:1.0;" x1="1151.5" x2="1263.5" y1="415.7969" y2="415.7969"/><text fill="#000000" font-family="sans-serif" font-size="14" lengthAdjust="spacing" textLength="30" x="1156.5" y="432.792">TBD</text></g><!--class Client--><g id="elem_Client"><rect codeLine="11" fill="#F5F5F5" height="48" id="Client" rx="2.5" ry="2.5" style="stroke:#696969;stroke-width:0.5;" width="71" x="704" y="7"/><ellipse cx="719" cy="23" fill="#ADD1B2" rx="11" ry="11" style="stroke:#181818;stroke-width:1.0;"/><path d="M721.9688,28.6406 Q721.3906,28.9375 720.75,29.0781 Q720.1094,29.2344 719.4063,29.2344 Q716.9063,29.2344 715.5781,27.5938 Q714.2656,25.9375 714.2656,22.8125 Q714.2656,19.6875 715.5781,18.0313 Q716.9063,16.375 719.4063,16.375 Q720.1094,16.375 720.75,16.5313 Q721.4063,16.6875 721.9688,16.9844 L721.9688,19.7031 Q721.3438,19.125 720.75,18.8594 Q720.1563,18.5781 719.5313,18.5781 Q718.1875,18.5781 717.5,19.6563 Q716.8125,20.7188 716.8125,22.8125 Q716.8125,24.9063 717.5,25.9844 Q718.1875,27.0469 719.5313,27.0469 Q720.1563,27.0469 720.75,26.7813 Q721.3438,26.5 721.9688,25.9219 L721.9688,28.6406 Z " fill="#000000"/><text fill="#000000" font-family="sans-serif" font-size="14" lengthAdjust="spacing" textLength="39" x="733" y="27.8467">Client</text><line style="stroke:#696969;stroke-width:0.5;" x1="705" x2="774" y1="39" y2="39"/><line style="stroke:#696969;stroke-width:0.5;" x1="705" x2="774" y1="47" y2="47"/></g><g id="elem_GMN3"><path d="M810,11 L810,27 L775.03,31 L810,35 L810,51.2656 A0,0 0 0 0 810,51.2656 L1097,51.2656 A0,0 0 0 0 1097,51.2656 L1097,21 L1087,11 L810,11 A0,0 0 0 0 810,11 " fill="#FEFFDD" style="stroke:#181818;stroke-width:0.5;"/><path d="M1087,11 L1087,21 L1097,21 L1087,11 " fill="#FEFFDD" style="stroke:#181818;stroke-width:0.5;"/><text fill="#000000" font-family="sans-serif" font-size="13" lengthAdjust="spacing" textLength="266" x="816" y="28.0669">This is i.e. pyaerocom initiated by a config</text><text fill="#000000" font-family="sans-serif" font-size="13" lengthAdjust="spacing" textLength="210" x="816" y="43.1997">or a user with a jupyter notebook</text></g><!--class pyaro--><g id="elem_pyaro"><rect codeLine="17" fill="#F5F5F5" height="113.1875" id="pyaro" rx="2.5" ry="2.5" style="stroke:#696969;stroke-width:0.5;" width="421" x="529" y="132"/><ellipse cx="715.75" cy="148" fill="#B4A7E5" rx="11" ry="11" style="stroke:#181818;stroke-width:1.0;"/><path d="M711.6719,143.7656 L711.6719,141.6094 L719.0625,141.6094 L719.0625,143.7656 L716.5938,143.7656 L716.5938,151.8438 L719.0625,151.8438 L719.0625,154 L711.6719,154 L711.6719,151.8438 L714.1406,151.8438 L714.1406,143.7656 L711.6719,143.7656 Z " fill="#000000"/><text fill="#000000" font-family="sans-serif" font-size="14" font-style="italic" lengthAdjust="spacing" textLength="39" x="736.25" y="152.8467">pyaro</text><line style="stroke:#696969;stroke-width:0.5;" x1="530" x2="949" y1="164" y2="164"/><line style="stroke:#696969;stroke-width:0.5;" x1="530" x2="949" y1="172" y2="172"/><ellipse cx="540" cy="185.6484" fill="#84BE84" rx="3" ry="3" style="stroke:#038048;stroke-width:1.0;"/><text fill="#000000" font-family="sans-serif" font-size="14" lengthAdjust="spacing" textLength="395" x="549" y="188.9951">list_timeseries_engines() : dict[name, timerseries.Engine]</text><ellipse cx="540" cy="201.9453" fill="#84BE84" rx="3" ry="3" style="stroke:#038048;stroke-width:1.0;"/><text fill="#000000" font-family="sans-serif" font-size="14" lengthAdjust="spacing" textLength="389" x="549" y="205.292">open_timeseries_reader(name, args): timeseries.Reader</text><ellipse cx="540" cy="218.2422" fill="#84BE84" rx="3" ry="3" style="stroke:#038048;stroke-width:1.0;"/><text fill="#000000" font-family="sans-serif" font-size="14" lengthAdjust="spacing" textLength="346" x="549" y="221.5889">list_profiles_engines() : dict[name, profiles.Engine]</text><ellipse cx="540" cy="234.5391" fill="#84BE84" rx="3" ry="3" style="stroke:#038048;stroke-width:1.0;"/><text fill="#000000" font-family="sans-serif" font-size="14" lengthAdjust="spacing" textLength="345" x="549" y="237.8857">open_profiles_reader(name, args): profiles.Reader</text></g><!--class EBASTimeseriesEngine--><g id="elem_EBASTimeseriesEngine"><rect codeLine="32" fill="#F5F5F5" height="80.5938" id="EBASTimeseriesEngine" rx="2.5" ry="2.5" style="stroke:#696969;stroke-width:0.5;" width="271" x="219" y="536"/><ellipse cx="269.75" cy="552" fill="#ADD1B2" rx="11" ry="11" style="stroke:#181818;stroke-width:1.0;"/><path d="M272.7188,557.6406 Q272.1406,557.9375 271.5,558.0781 Q270.8594,558.2344 270.1563,558.2344 Q267.6563,558.2344 266.3281,556.5938 Q265.0156,554.9375 265.0156,551.8125 Q265.0156,548.6875 266.3281,547.0313 Q267.6563,545.375 270.1563,545.375 Q270.8594,545.375 271.5,545.5313 Q272.1563,545.6875 272.7188,545.9844 L272.7188,548.7031 Q272.0938,548.125 271.5,547.8594 Q270.9063,547.5781 270.2813,547.5781 Q268.9375,547.5781 268.25,548.6563 Q267.5625,549.7188 267.5625,551.8125 Q267.5625,553.9063 268.25,554.9844 Q268.9375,556.0469 270.2813,556.0469 Q270.9063,556.0469 271.5,555.7813 Q272.0938,555.5 272.7188,554.9219 L272.7188,557.6406 Z " fill="#000000"/><text fill="#000000" font-family="sans-serif" font-size="14" lengthAdjust="spacing" textLength="161" x="290.25" y="556.8467">EBASTimeseriesEngine</text><line style="stroke:#696969;stroke-width:0.5;" x1="220" x2="489" y1="568" y2="568"/><text fill="#000000" font-family="sans-serif" font-size="14" lengthAdjust="spacing" textLength="12" x="225" y="584.9951">...</text><line style="stroke:#696969;stroke-width:0.5;" x1="220" x2="489" y1="592.2969" y2="592.2969"/><ellipse cx="230" cy="605.9453" fill="#84BE84" rx="3" ry="3" style="stroke:#038048;stroke-width:1.0;"/><text fill="#000000" font-family="sans-serif" font-size="14" lengthAdjust="spacing" textLength="245" x="239" y="609.292">open(args): EbasTimeseriesReader</text></g><!--class EEATimeseriesEngine--><g id="elem_EEATimeseriesEngine"><rect codeLine="37" fill="#F5F5F5" height="80.5938" id="EEATimeseriesEngine" rx="2.5" ry="2.5" style="stroke:#696969;stroke-width:0.5;" width="271" x="525" y="536"/><ellipse cx="580.75" cy="552" fill="#ADD1B2" rx="11" ry="11" style="stroke:#181818;stroke-width:1.0;"/><path d="M583.7188,557.6406 Q583.1406,557.9375 582.5,558.0781 Q581.8594,558.2344 581.1563,558.2344 Q578.6563,558.2344 577.3281,556.5938 Q576.0156,554.9375 576.0156,551.8125 Q576.0156,548.6875 577.3281,547.0313 Q578.6563,545.375 581.1563,545.375 Q581.8594,545.375 582.5,545.5313 Q583.1563,545.6875 583.7188,545.9844 L583.7188,548.7031 Q583.0938,548.125 582.5,547.8594 Q581.9063,547.5781 581.2813,547.5781 Q579.9375,547.5781 579.25,548.6563 Q578.5625,549.7188 578.5625,551.8125 Q578.5625,553.9063 579.25,554.9844 Q579.9375,556.0469 581.2813,556.0469 Q581.9063,556.0469 582.5,555.7813 Q583.0938,555.5 583.7188,554.9219 L583.7188,557.6406 Z " fill="#000000"/><text fill="#000000" font-family="sans-serif" font-size="14" lengthAdjust="spacing" textLength="151" x="601.25" y="556.8467">EEATimeseriesEngine</text><line style="stroke:#696969;stroke-width:0.5;" x1="526" x2="795" y1="568" y2="568"/><text fill="#000000" font-family="sans-serif" font-size="14" lengthAdjust="spacing" textLength="12" x="531" y="584.9951">...</text><line style="stroke:#696969;stroke-width:0.5;" x1="526" x2="795" y1="592.2969" y2="592.2969"/><ellipse cx="536" cy="605.9453" fill="#84BE84" rx="3" ry="3" style="stroke:#038048;stroke-width:1.0;"/><text fill="#000000" font-family="sans-serif" font-size="14" lengthAdjust="spacing" textLength="245" x="545" y="609.292">open(args): EbasTimeseriesReader</text></g><!--class EBASTimeseriesReader--><g id="elem_EBASTimeseriesReader"><rect codeLine="52" fill="#F5F5F5" height="96.8906" id="EBASTimeseriesReader" rx="2.5" ry="2.5" style="stroke:#696969;stroke-width:0.5;" width="195" x="7" y="678"/><ellipse cx="22" cy="694" fill="#ADD1B2" rx="11" ry="11" style="stroke:#181818;stroke-width:1.0;"/><path d="M24.9688,699.6406 Q24.3906,699.9375 23.75,700.0781 Q23.1094,700.2344 22.4063,700.2344 Q19.9063,700.2344 18.5781,698.5938 Q17.2656,696.9375 17.2656,693.8125 Q17.2656,690.6875 18.5781,689.0313 Q19.9063,687.375 22.4063,687.375 Q23.1094,687.375 23.75,687.5313 Q24.4063,687.6875 24.9688,687.9844 L24.9688,690.7031 Q24.3438,690.125 23.75,689.8594 Q23.1563,689.5781 22.5313,689.5781 Q21.1875,689.5781 20.5,690.6563 Q19.8125,691.7188 19.8125,693.8125 Q19.8125,695.9063 20.5,696.9844 Q21.1875,698.0469 22.5313,698.0469 Q23.1563,698.0469 23.75,697.7813 Q24.3438,697.5 24.9688,696.9219 L24.9688,699.6406 Z " fill="#000000"/><text fill="#000000" font-family="sans-serif" font-size="14" lengthAdjust="spacing" textLength="163" x="36" y="698.8467">EBASTimeseriesReader</text><line style="stroke:#696969;stroke-width:0.5;" x1="8" x2="201" y1="710" y2="710"/><ellipse cx="18" cy="723.6484" fill="#84BE84" rx="3" ry="3" style="stroke:#038048;stroke-width:1.0;"/><text fill="#000000" font-family="sans-serif" font-size="14" lengthAdjust="spacing" textLength="88" x="27" y="726.9951">__init__(args)</text><line style="stroke:#696969;stroke-width:1.0;" x1="8" x2="201" y1="734.2969" y2="734.2969"/><ellipse cx="18" cy="747.9453" fill="#84BE84" rx="3" ry="3" style="stroke:#038048;stroke-width:1.0;"/><text fill="#000000" font-family="sans-serif" font-size="14" lengthAdjust="spacing" textLength="157" x="27" y="751.292">data(): TimeseriesData</text><text fill="#000000" font-family="sans-serif" font-size="14" lengthAdjust="spacing" textLength="12" x="27" y="767.5889">...</text></g><!--class EEATimeseriesReader--><g id="elem_EEATimeseriesReader"><rect codeLine="59" fill="#F5F5F5" height="96.8906" id="EEATimeseriesReader" rx="2.5" ry="2.5" style="stroke:#696969;stroke-width:0.5;" width="185" x="320" y="678"/><ellipse cx="335" cy="694" fill="#ADD1B2" rx="11" ry="11" style="stroke:#181818;stroke-width:1.0;"/><path d="M337.9688,699.6406 Q337.3906,699.9375 336.75,700.0781 Q336.1094,700.2344 335.4063,700.2344 Q332.9063,700.2344 331.5781,698.5938 Q330.2656,696.9375 330.2656,693.8125 Q330.2656,690.6875 331.5781,689.0313 Q332.9063,687.375 335.4063,687.375 Q336.1094,687.375 336.75,687.5313 Q337.4063,687.6875 337.9688,687.9844 L337.9688,690.7031 Q337.3438,690.125 336.75,689.8594 Q336.1563,689.5781 335.5313,689.5781 Q334.1875,689.5781 333.5,690.6563 Q332.8125,691.7188 332.8125,693.8125 Q332.8125,695.9063 333.5,696.9844 Q334.1875,698.0469 335.5313,698.0469 Q336.1563,698.0469 336.75,697.7813 Q337.3438,697.5 337.9688,696.9219 L337.9688,699.6406 Z " fill="#000000"/><text fill="#000000" font-family="sans-serif" font-size="14" lengthAdjust="spacing" textLength="153" x="349" y="698.8467">EEATimeseriesReader</text><line style="stroke:#696969;stroke-width:0.5;" x1="321" x2="504" y1="710" y2="710"/><ellipse cx="331" cy="723.6484" fill="#84BE84" rx="3" ry="3" style="stroke:#038048;stroke-width:1.0;"/><text fill="#000000" font-family="sans-serif" font-size="14" lengthAdjust="spacing" textLength="88" x="340" y="726.9951">__init__(args)</text><line style="stroke:#696969;stroke-width:1.0;" x1="321" x2="504" y1="734.2969" y2="734.2969"/><ellipse cx="331" cy="747.9453" fill="#84BE84" rx="3" ry="3" style="stroke:#038048;stroke-width:1.0;"/><text fill="#000000" font-family="sans-serif" font-size="14" lengthAdjust="spacing" textLength="157" x="340" y="751.292">data(): TimeseriesData</text><text fill="#000000" font-family="sans-serif" font-size="14" lengthAdjust="spacing" textLength="12" x="340" y="767.5889">...</text></g><!--class EBASProfilesReader--><g id="elem_EBASProfilesReader"><rect codeLine="80" fill="#F5F5F5" height="48" id="EBASProfilesReader" rx="2.5" ry="2.5" style="stroke:#696969;stroke-width:0.5;" width="169" x="989" y="702.5"/><ellipse cx="1004" cy="718.5" fill="#ADD1B2" rx="11" ry="11" style="stroke:#181818;stroke-width:1.0;"/><path d="M1006.9688,724.1406 Q1006.3906,724.4375 1005.75,724.5781 Q1005.1094,724.7344 1004.4063,724.7344 Q1001.9063,724.7344 1000.5781,723.0938 Q999.2656,721.4375 999.2656,718.3125 Q999.2656,715.1875 1000.5781,713.5313 Q1001.9063,711.875 1004.4063,711.875 Q1005.1094,711.875 1005.75,712.0313 Q1006.4063,712.1875 1006.9688,712.4844 L1006.9688,715.2031 Q1006.3438,714.625 1005.75,714.3594 Q1005.1563,714.0781 1004.5313,714.0781 Q1003.1875,714.0781 1002.5,715.1563 Q1001.8125,716.2188 1001.8125,718.3125 Q1001.8125,720.4063 1002.5,721.4844 Q1003.1875,722.5469 1004.5313,722.5469 Q1005.1563,722.5469 1005.75,722.2813 Q1006.3438,722 1006.9688,721.4219 L1006.9688,724.1406 Z " fill="#000000"/><text fill="#000000" font-family="sans-serif" font-size="14" lengthAdjust="spacing" textLength="137" x="1018" y="723.3467">EBASProfilesReader</text><line style="stroke:#696969;stroke-width:0.5;" x1="990" x2="1157" y1="734.5" y2="734.5"/><line style="stroke:#696969;stroke-width:0.5;" x1="990" x2="1157" y1="742.5" y2="742.5"/></g><!--class EEAProfilesReader--><g id="elem_EEAProfilesReader"><rect codeLine="83" fill="#F5F5F5" height="48" id="EEAProfilesReader" rx="2.5" ry="2.5" style="stroke:#696969;stroke-width:0.5;" width="159" x="1226" y="702.5"/><ellipse cx="1241" cy="718.5" fill="#ADD1B2" rx="11" ry="11" style="stroke:#181818;stroke-width:1.0;"/><path d="M1243.9688,724.1406 Q1243.3906,724.4375 1242.75,724.5781 Q1242.1094,724.7344 1241.4063,724.7344 Q1238.9063,724.7344 1237.5781,723.0938 Q1236.2656,721.4375 1236.2656,718.3125 Q1236.2656,715.1875 1237.5781,713.5313 Q1238.9063,711.875 1241.4063,711.875 Q1242.1094,711.875 1242.75,712.0313 Q1243.4063,712.1875 1243.9688,712.4844 L1243.9688,715.2031 Q1243.3438,714.625 1242.75,714.3594 Q1242.1563,714.0781 1241.5313,714.0781 Q1240.1875,714.0781 1239.5,715.1563 Q1238.8125,716.2188 1238.8125,718.3125 Q1238.8125,720.4063 1239.5,721.4844 Q1240.1875,722.5469 1241.5313,722.5469 Q1242.1563,722.5469 1242.75,722.2813 Q1243.3438,722 1243.9688,721.4219 L1243.9688,724.1406 Z " fill="#000000"/><text fill="#000000" font-family="sans-serif" font-size="14" lengthAdjust="spacing" textLength="127" x="1255" y="723.3467">EEAProfilesReader</text><line style="stroke:#696969;stroke-width:0.5;" x1="1227" x2="1384" y1="734.5" y2="734.5"/><line style="stroke:#696969;stroke-width:0.5;" x1="1227" x2="1384" y1="742.5" y2="742.5"/></g><!--class EBASProfilesEngine--><g id="elem_EBASProfilesEngine"><rect fill="#F5F5F5" height="48" id="EBASProfilesEngine" rx="2.5" ry="2.5" style="stroke:#696969;stroke-width:0.5;" width="167" x="831" y="552.5"/><ellipse cx="846" cy="568.5" fill="#ADD1B2" rx="11" ry="11" style="stroke:#181818;stroke-width:1.0;"/><path d="M848.9688,574.1406 Q848.3906,574.4375 847.75,574.5781 Q847.1094,574.7344 846.4063,574.7344 Q843.9063,574.7344 842.5781,573.0938 Q841.2656,571.4375 841.2656,568.3125 Q841.2656,565.1875 842.5781,563.5313 Q843.9063,561.875 846.4063,561.875 Q847.1094,561.875 847.75,562.0313 Q848.4063,562.1875 848.9688,562.4844 L848.9688,565.2031 Q848.3438,564.625 847.75,564.3594 Q847.1563,564.0781 846.5313,564.0781 Q845.1875,564.0781 844.5,565.1563 Q843.8125,566.2188 843.8125,568.3125 Q843.8125,570.4063 844.5,571.4844 Q845.1875,572.5469 846.5313,572.5469 Q847.1563,572.5469 847.75,572.2813 Q848.3438,572 848.9688,571.4219 L848.9688,574.1406 Z " fill="#000000"/><text fill="#000000" font-family="sans-serif" font-size="14" lengthAdjust="spacing" textLength="135" x="860" y="573.3467">EBASProfilesEngine</text><line style="stroke:#696969;stroke-width:0.5;" x1="832" x2="997" y1="584.5" y2="584.5"/><line style="stroke:#696969;stroke-width:0.5;" x1="832" x2="997" y1="592.5" y2="592.5"/></g><!--class EEAProfilesEngine--><g id="elem_EEAProfilesEngine"><rect fill="#F5F5F5" height="48" id="EEAProfilesEngine" rx="2.5" ry="2.5" style="stroke:#696969;stroke-width:0.5;" width="157" x="1033" y="552.5"/><ellipse cx="1048" cy="568.5" fill="#ADD1B2" rx="11" ry="11" style="stroke:#181818;stroke-width:1.0;"/><path d="M1050.9688,574.1406 Q1050.3906,574.4375 1049.75,574.5781 Q1049.1094,574.7344 1048.4063,574.7344 Q1045.9063,574.7344 1044.5781,573.0938 Q1043.2656,571.4375 1043.2656,568.3125 Q1043.2656,565.1875 1044.5781,563.5313 Q1045.9063,561.875 1048.4063,561.875 Q1049.1094,561.875 1049.75,562.0313 Q1050.4063,562.1875 1050.9688,562.4844 L1050.9688,565.2031 Q1050.3438,564.625 1049.75,564.3594 Q1049.1563,564.0781 1048.5313,564.0781 Q1047.1875,564.0781 1046.5,565.1563 Q1045.8125,566.2188 1045.8125,568.3125 Q1045.8125,570.4063 1046.5,571.4844 Q1047.1875,572.5469 1048.5313,572.5469 Q1049.1563,572.5469 1049.75,572.2813 Q1050.3438,572 1050.9688,571.4219 L1050.9688,574.1406 Z " fill="#000000"/><text fill="#000000" font-family="sans-serif" font-size="14" lengthAdjust="spacing" textLength="125" x="1062" y="573.3467">EEAProfilesEngine</text><line style="stroke:#696969;stroke-width:0.5;" x1="1034" x2="1189" y1="584.5" y2="584.5"/><line style="stroke:#696969;stroke-width:0.5;" x1="1034" x2="1189" y1="592.5" y2="592.5"/></g><!--reverse link Engine to EBASTimeseriesEngine--><g id="link_Engine_EBASTimeseriesEngine"><path codeLine="86" d="M398.2186,481.3155 C387.1986,505.0455 382.61,514.93 372.9,535.87 " fill="none" id="Engine-backto-EBASTimeseriesEngine" style="stroke:#696969;stroke-width:1.0;stroke-dasharray:7.0,7.0;"/><polygon fill="none" points="405.8,464.99,392.7767,478.7884,403.6604,483.8426,405.8,464.99" style="stroke:#696969;stroke-width:1.0;"/></g><!--reverse link Engine to EEATimeseriesEngine--><g id="link_Engine_EEATimeseriesEngine"><path codeLine="87" d="M531.9126,475.7726 C562.5426,499.5326 582.19,514.76 609.25,535.75 " fill="none" id="Engine-backto-EEATimeseriesEngine" style="stroke:#696969;stroke-width:1.0;stroke-dasharray:7.0,7.0;"/><polygon fill="none" points="517.69,464.74,528.235,480.5135,535.5901,471.0317,517.69,464.74" style="stroke:#696969;stroke-width:1.0;"/></g><!--reverse link Reader to EBASTimeseriesReader--><g id="link_Reader_EBASTimeseriesReader"><path codeLine="89" d="M145.451,489.0609 C139.981,499.4609 143.37,494.33 139.5,505 C118.78,562.22 110.31,632.19 106.86,677.75 " fill="none" id="Reader-backto-EBASTimeseriesReader" style="stroke:#696969;stroke-width:1.0;stroke-dasharray:7.0,7.0;"/><polygon fill="none" points="153.83,473.13,140.1407,486.2678,150.7613,491.8539,153.83,473.13" style="stroke:#696969;stroke-width:1.0;"/></g><!--reverse link Reader to EEATimeseriesReader--><g id="link_Reader_EEATimeseriesReader"><path codeLine="90" d="M180.7268,490.9735 C173.7468,535.5735 175.52,574.43 201.5,617 C227.41,659.46 275.82,686 319.74,702.2 " fill="none" id="Reader-backto-EEATimeseriesReader" style="stroke:#696969;stroke-width:1.0;stroke-dasharray:7.0,7.0;"/><polygon fill="none" points="183.51,473.19,174.799,490.0458,186.6547,491.9013,183.51,473.19" style="stroke:#696969;stroke-width:1.0;"/></g><!--reverse link Engine to EBASProfilesEngine--><g id="link_Engine_EBASProfilesEngine"><path codeLine="92" d="M972.2855,480.3744 C953.7355,510.9144 942.03,530.18 928.53,552.4 " fill="none" id="Engine-backto-EBASProfilesEngine" style="stroke:#696969;stroke-width:1.0;stroke-dasharray:7.0,7.0;"/><polygon fill="none" points="981.63,464.99,967.1574,477.2596,977.4136,483.4893,981.63,464.99" style="stroke:#696969;stroke-width:1.0;"/></g><!--reverse link Engine to EEAProfilesEngine--><g id="link_Engine_EEAProfilesEngine"><path codeLine="93" d="M1062.1946,480.9494 C1078.1246,511.4894 1087.86,530.18 1099.46,552.4 " fill="none" id="Engine-backto-EEAProfilesEngine" style="stroke:#696969;stroke-width:1.0;stroke-dasharray:7.0,7.0;"/><polygon fill="none" points="1053.87,464.99,1056.8748,483.7242,1067.5144,478.1745,1053.87,464.99" style="stroke:#696969;stroke-width:1.0;"/></g><!--reverse link Reader to EBASProfilesReader--><g id="link_Reader_EBASProfilesReader"><path codeLine="95" d="M1220.7905,458.3244 C1229.7605,503.4344 1234.46,560.48 1207.5,617 C1189.39,654.96 1150.8,683.93 1119.66,702.35 " fill="none" id="Reader-backto-EBASProfilesReader" style="stroke:#696969;stroke-width:1.0;stroke-dasharray:7.0,7.0;"/><polygon fill="none" points="1217.28,440.67,1214.9057,459.4945,1226.6753,457.1542,1217.28,440.67" style="stroke:#696969;stroke-width:1.0;"/></g><!--reverse link Reader to EEAProfilesReader--><g id="link_Reader_EEAProfilesReader"><path codeLine="96" d="M1245.7816,455.8238 C1257.8916,474.5038 1261.29,482.49 1269.5,505 C1294.62,573.87 1302.27,661.24 1304.55,702.25 " fill="none" id="Reader-backto-EEAProfilesReader" style="stroke:#696969;stroke-width:1.0;stroke-dasharray:7.0,7.0;"/><polygon fill="none" points="1235.99,440.72,1240.747,459.0877,1250.8162,452.5599,1235.99,440.72" style="stroke:#696969;stroke-width:1.0;"/></g><!--link EEAProfilesEngine to EEAProfilesReader--><g id="link_EEAProfilesEngine_EEAProfilesReader"><path codeLine="99" d="M1141.81,600.62 C1178.15,628.35 1233.9196,670.8909 1270.3096,698.6509 " fill="none" id="EEAProfilesEngine-to-EEAProfilesReader" style="stroke:#696969;stroke-width:1.0;stroke-dasharray:7.0,7.0;"/><polygon fill="#696969" points="1275.08,702.29,1270.3504,693.6511,1271.1046,699.2574,1265.4983,700.0116,1275.08,702.29" style="stroke:#696969;stroke-width:1.0;"/></g><!--link EEATimeseriesEngine to EEATimeseriesReader--><g id="link_EEATimeseriesEngine_EEATimeseriesReader"><path codeLine="100" d="M594.04,617.16 C562.76,635.83 530.3627,655.166 497.5427,674.746 " fill="none" id="EEATimeseriesEngine-to-EEATimeseriesReader" style="stroke:#696969;stroke-width:1.0;stroke-dasharray:7.0,7.0;"/><polygon fill="#696969" points="492.39,677.82,502.1684,676.6441,496.6839,675.2583,498.0697,669.7738,492.39,677.82" style="stroke:#696969;stroke-width:1.0;"/></g><!--link EBASProfilesEngine to EBASProfilesReader--><g id="link_EBASProfilesEngine_EBASProfilesReader"><path codeLine="102" d="M939.34,600.62 C969.13,628.35 1014.3584,670.4418 1044.1784,698.2018 " fill="none" id="EBASProfilesEngine-to-EBASProfilesReader" style="stroke:#696969;stroke-width:1.0;stroke-dasharray:7.0,7.0;"/><polygon fill="#696969" points="1048.57,702.29,1044.7081,693.2299,1044.9103,698.8831,1039.2571,699.0854,1048.57,702.29" style="stroke:#696969;stroke-width:1.0;"/></g><!--link EBASTimeseriesEngine to EBASTimeseriesReader--><g id="link_EBASTimeseriesEngine_EBASTimeseriesReader"><path codeLine="103" d="M287.5,617.16 C255.97,635.83 223.2833,655.1838 190.2033,674.7638 " fill="none" id="EBASTimeseriesEngine-to-EBASTimeseriesReader" style="stroke:#696969;stroke-width:1.0;stroke-dasharray:7.0,7.0;"/><polygon fill="#696969" points="185.04,677.82,194.8224,676.678,189.3428,675.2732,190.7475,669.7935,185.04,677.82" style="stroke:#696969;stroke-width:1.0;"/></g><!--link Client to pyaro--><g id="link_Client_pyaro"><path codeLine="105" d="M739.5,55.28 C739.5,75.44 739.5,99.43 739.5,125.75 " fill="none" id="Client-to-pyaro" style="stroke:#696969;stroke-width:1.0;stroke-dasharray:7.0,7.0;"/><polygon fill="#696969" points="739.5,131.75,743.5,122.75,739.5,126.75,735.5,122.75,739.5,131.75" style="stroke:#696969;stroke-width:1.0;"/><text fill="#000000" font-family="sans-serif" font-size="13" lengthAdjust="spacing" textLength="42" x="740.5" y="98.0669">import</text></g><!--link pyaro to Engine--><g id="link_pyaro_Engine"><path codeLine="106" d="M658.83,245.09 C618.55,272.85 574.5706,303.1655 532.7906,331.9555 " fill="none" id="pyaro-to-Engine" style="stroke:#696969;stroke-width:1.0;stroke-dasharray:7.0,7.0;"/><polygon fill="#696969" points="527.85,335.36,537.5305,333.547,531.9672,332.5229,532.9912,326.9595,527.85,335.36" style="stroke:#696969;stroke-width:1.0;"/></g><!--link pyaro to Engine--><g id="link_pyaro_Engine"><path codeLine="107" d="M814.07,245.09 C851.3,272.85 891.7096,302.984 930.3296,331.774 " fill="none" id="pyaro-to-Engine-1" style="stroke:#696969;stroke-width:1.0;stroke-dasharray:7.0,7.0;"/><polygon fill="#696969" points="935.14,335.36,930.315,326.774,931.1313,332.3716,925.5336,333.1879,935.14,335.36" style="stroke:#696969;stroke-width:1.0;"/></g><!--link Client to Engine--><g id="link_Client_Engine"><path codeLine="108" d="M703.86,32.68 C641.59,36.01 513.89,52.7 453.5,132 C409.52,189.75 411.6104,270.5394 420.6304,329.3494 " fill="none" id="Client-to-Engine" style="stroke:#696969;stroke-width:1.0;stroke-dasharray:7.0,7.0;"/><polygon fill="#696969" points="421.54,335.28,424.1293,325.7776,420.782,330.3378,416.2218,326.9904,421.54,335.28" style="stroke:#696969;stroke-width:1.0;"/><text fill="#000000" font-family="sans-serif" font-size="13" lengthAdjust="spacing" textLength="56" x="454.5" y="193.0669">interacts</text></g><!--link Client to Reader--><g id="link_Client_Reader"><path codeLine="109" d="M703.72,31.24 C629.14,31.58 455.37,42.61 351.5,132 C290.85,184.2 251.8812,261.7223 228.2412,321.3523 " fill="none" id="Client-to-Reader" style="stroke:#696969;stroke-width:1.0;stroke-dasharray:7.0,7.0;"/><polygon fill="#696969" points="226.03,326.93,233.0653,320.0377,227.8727,322.2819,225.6284,317.0893,226.03,326.93" style="stroke:#696969;stroke-width:1.0;"/><text fill="#000000" font-family="sans-serif" font-size="13" lengthAdjust="spacing" textLength="56" x="352.5" y="193.0669">interacts</text></g><!--link Client to Engine--><g id="link_Client_Engine"><path codeLine="110" d="M775.22,47.54 C839.18,75.39 966.69,130.99 967.5,132 C1013.82,189.66 1023.2713,270.6101 1023.6513,329.4801 " fill="none" id="Client-to-Engine-1" style="stroke:#696969;stroke-width:1.0;stroke-dasharray:7.0,7.0;"/><polygon fill="#696969" points="1023.69,335.48,1027.6318,326.4544,1023.6577,330.4801,1019.632,326.506,1023.69,335.48" style="stroke:#696969;stroke-width:1.0;"/><text fill="#000000" font-family="sans-serif" font-size="13" lengthAdjust="spacing" textLength="56" x="1015.5" y="193.0669">interacts</text></g><!--link Client to Reader--><g id="link_Client_Reader"><path codeLine="111" d="M775.13,48.33 C780.88,50.71 786.82,53.02 792.5,55 C917.65,98.49 978.7,47.19 1080.5,132 C1152.08,191.63 1184.6351,295.0773 1198.3151,353.6373 " fill="none" id="Client-to-Reader-1" style="stroke:#696969;stroke-width:1.0;stroke-dasharray:7.0,7.0;"/><polygon fill="#696969" points="1199.68,359.48,1201.5278,349.806,1198.5426,354.6111,1193.7375,351.6259,1199.68,359.48" style="stroke:#696969;stroke-width:1.0;"/><text fill="#000000" font-family="sans-serif" font-size="13" lengthAdjust="spacing" textLength="56" x="1161.5" y="193.0669">interacts</text></g><!--SRC=[nLNRYjim47tNLynR4xhn1uIoi9VqhMNfvcqfHhOdZXfRCfBS4DhzzqgMV8abioqj548IpvmvCtDcPAaJumsLj8Qyeah13mAGqVnKIj7oua5KGiBvo3IgMfpGEAcKukpi1QjBYHSR8MI1yjhwIiWxkCkKbZJNyD5y2Nc19werIkFf3PjR-8HKjH9hvFepwhEG9q9SDGyLCqR2XKQGh3ng48VUk3yo1VQJO0BDXQ8KkQY1SQOPrLX0TW4AkU07LX9J5uLMeMc6wQFv_wrjBgOGiDIP42U2lEWU267SE0uqHyigHIV9UwYOqgbcDHeIXYf5NZAEQhM6hMavro-SrdW35Y4T9DbraAzTk6YGJyCbKgFOoWLHMQhr5aPtygLpZuaRAGwiMaxR-yESGsGiun3cyxrEkv-KurYz4fPsvGacTLhBofXUpCHTVjKsZP1c5Ab9ObXdxW9LBbcZcU3MOUoTkPMLVqorI0kHArkMsuVT_TtpVYXhiQfTHjK86sfCacH2jRlxQwQeLWxakTBKxcEQEZvZscnSxrHJs-MZ-UqCDMhQ6xkvclvlO9HIKwkJkdO_Ewk3VAUIqQp2cSfv9HIkraiQ_b6rOvYlUrdHVy8xEOdN-_q_Dp5Ir6yqkxz_l1x1amyUOgSwnfpXSVpmCqcYHs8H6-xy5QzF5-7rwYvXmyaJCX_PmDetvmk8uqOD-ZhdQWTyFd4SDzUK41BaC6jt6q76tXGU6NOTDkYmOPtHTrcF3OdThTS1kcjf2wosEqtS9MNjmTGdlfdAKxeWp53R7JSNj5h0UMaNWFE9lWMBi95V]--></g></svg>