<?xml version="1.0" encoding="UTF-8" standalone="no"?><svg xmlns="http://www.w3.org/2000/svg" xmlns:xlink="http://www.w3.org/1999/xlink" contentStyleType="text/css" height="764px" preserveAspectRatio="none" style="width:1392px;height:764px;background:#FFFFFF;" version="1.1" viewBox="0 0 1392 764" width="1392px" zoomAndPan="magnify"><defs/><g><!--MD5=[94176034bcfd0045e1eb23d0547f42ed]
cluster timeseries--><g id="cluster_timeseries"><path d="M99,292 L183,292 A3.75,3.75 0 0 1 185.5,294.5 L192.5,314.2969 L532,314.2969 A2.5,2.5 0 0 1 534.5,316.7969 L534.5,469.5 A2.5,2.5 0 0 1 532,472 L99,472 A2.5,2.5 0 0 1 96.5,469.5 L96.5,294.5 A2.5,2.5 0 0 1 99,292 " fill="none" style="stroke:#000000;stroke-width:1.5;"/><line style="stroke:#000000;stroke-width:1.5;" x1="96.5" x2="192.5" y1="314.2969" y2="314.2969"/><text fill="#000000" font-family="sans-serif" font-size="14" font-weight="bold" lengthAdjust="spacing" textLength="83" x="100.5" y="306.9951">timeseries</text></g><!--MD5=[f230d281c7f8a8291dae9a93157d1289]
cluster profiles--><g id="cluster_profiles"><path d="M924,300 L985,300 A3.75,3.75 0 0 1 987.5,302.5 L994.5,322.2969 L1262,322.2969 A2.5,2.5 0 0 1 1264.5,324.7969 L1264.5,461.5 A2.5,2.5 0 0 1 1262,464 L924,464 A2.5,2.5 0 0 1 921.5,461.5 L921.5,302.5 A2.5,2.5 0 0 1 924,300 " fill="none" style="stroke:#000000;stroke-width:1.5;"/><line style="stroke:#000000;stroke-width:1.5;" x1="921.5" x2="994.5" y1="322.2969" y2="322.2969"/><text fill="#000000" font-family="sans-serif" font-size="14" font-weight="bold" lengthAdjust="spacing" textLength="60" x="925.5" y="314.9951">profiles</text></g><!--MD5=[82e3311bfec0d9182b599ae3ac2c4b50]
class timeseries.Engine--><g id="elem_timeseries.Engine"><rect codeLine="24" fill="#F5F5F5" height="113.1875" id="timeseries.Engine" rx="2.5" ry="2.5" style="stroke:#696969;stroke-width:0.5;" width="161" x="357" y="335"/><ellipse cx="409.25" cy="351" fill="#B4A7E5" rx="11" ry="11" style="stroke:#181818;stroke-width:1.0;"/><path d="M405.1719,346.7656 L405.1719,344.6094 L412.5625,344.6094 L412.5625,346.7656 L410.0938,346.7656 L410.0938,354.8438 L412.5625,354.8438 L412.5625,357 L405.1719,357 L405.1719,354.8438 L407.6406,354.8438 L407.6406,346.7656 L405.1719,346.7656 Z " fill="#000000"/><text fill="#000000" font-family="sans-serif" font-size="14" font-style="italic" lengthAdjust="spacing" textLength="48" x="429.75" y="355.8467">Engine</text><line style="stroke:#696969;stroke-width:0.5;" x1="358" x2="517" y1="367" y2="367"/><line style="stroke:#696969;stroke-width:0.5;" x1="358" x2="517" y1="375" y2="375"/><ellipse cx="368" cy="388.6484" fill="#84BE84" rx="3" ry="3" style="stroke:#038048;stroke-width:1.0;"/><text fill="#000000" font-family="sans-serif" font-size="14" lengthAdjust="spacing" textLength="135" x="377" y="391.9951">open(args): Reader</text><ellipse cx="368" cy="404.9453" fill="#84BE84" rx="3" ry="3" style="stroke:#038048;stroke-width:1.0;"/><text fill="#000000" font-family="sans-serif" font-size="14" lengthAdjust="spacing" textLength="77" x="377" y="408.292">args(): [str]</text><ellipse cx="368" cy="421.2422" fill="#84BE84" rx="3" ry="3" style="stroke:#038048;stroke-width:1.0;"/><text fill="#000000" font-family="sans-serif" font-size="14" lengthAdjust="spacing" textLength="114" x="377" y="424.5889">description(): str</text><ellipse cx="368" cy="437.5391" fill="#84BE84" rx="3" ry="3" style="stroke:#038048;stroke-width:1.0;"/><text fill="#000000" font-family="sans-serif" font-size="14" lengthAdjust="spacing" textLength="116" x="377" y="440.8857">url(): str_to_docs</text></g><!--MD5=[212060d920e7762f09909db32cc8b1c7]
class timeseries.Reader--><g id="elem_timeseries.Reader"><rect codeLine="41" fill="#F5F5F5" height="129.4844" id="timeseries.Reader" rx="2.5" ry="2.5" style="stroke:#696969;stroke-width:0.5;" width="209" x="113" y="327"/><ellipse cx="188.25" cy="343" fill="#B4A7E5" rx="11" ry="11" style="stroke:#181818;stroke-width:1.0;"/><path d="M184.1719,338.7656 L184.1719,336.6094 L191.5625,336.6094 L191.5625,338.7656 L189.0938,338.7656 L189.0938,346.8438 L191.5625,346.8438 L191.5625,349 L184.1719,349 L184.1719,346.8438 L186.6406,346.8438 L186.6406,338.7656 L184.1719,338.7656 Z " fill="#000000"/><text fill="#000000" font-family="sans-serif" font-size="14" font-style="italic" lengthAdjust="spacing" textLength="50" x="208.75" y="347.8467">Reader</text><line style="stroke:#696969;stroke-width:0.5;" x1="114" x2="321" y1="359" y2="359"/><ellipse cx="124" cy="372.6484" fill="#84BE84" rx="3" ry="3" style="stroke:#038048;stroke-width:1.0;"/><text fill="#000000" font-family="sans-serif" font-size="14" lengthAdjust="spacing" textLength="88" x="133" y="375.9951">__init__(args)</text><line style="stroke:#696969;stroke-width:1.0;" x1="114" x2="321" y1="383.2969" y2="383.2969"/><ellipse cx="124" cy="396.9453" fill="#84BE84" rx="3" ry="3" style="stroke:#038048;stroke-width:1.0;"/><text fill="#000000" font-family="sans-serif" font-size="14" lengthAdjust="spacing" textLength="81" x="133" y="400.292">data(): Data</text><ellipse cx="124" cy="413.2422" fill="#84BE84" rx="3" ry="3" style="stroke:#038048;stroke-width:1.0;"/><text fill="#000000" font-family="sans-serif" font-size="14" lengthAdjust="spacing" textLength="183" x="133" y="416.5889">stations(): dict[str, Station]</text><ellipse cx="124" cy="429.5391" fill="#84BE84" rx="3" ry="3" style="stroke:#038048;stroke-width:1.0;"/><text fill="#000000" font-family="sans-serif" font-size="14" lengthAdjust="spacing" textLength="107" x="133" y="432.8857">variables(): [str]</text><ellipse cx="124" cy="445.8359" fill="#84BE84" rx="3" ry="3" style="stroke:#038048;stroke-width:1.0;"/><text fill="#000000" font-family="sans-serif" font-size="14" lengthAdjust="spacing" textLength="47" x="133" y="449.1826">close()</text></g><!--MD5=[357833c522f25f4609430dc9ad756fc4]
class profiles.Engine--><g id="elem_profiles.Engine"><rect codeLine="64" fill="#F5F5F5" height="113.1875" id="profiles.Engine" rx="2.5" ry="2.5" style="stroke:#696969;stroke-width:0.5;" width="161" x="938" y="335"/><ellipse cx="990.25" cy="351" fill="#B4A7E5" rx="11" ry="11" style="stroke:#181818;stroke-width:1.0;"/><path d="M986.1719,346.7656 L986.1719,344.6094 L993.5625,344.6094 L993.5625,346.7656 L991.0938,346.7656 L991.0938,354.8438 L993.5625,354.8438 L993.5625,357 L986.1719,357 L986.1719,354.8438 L988.6406,354.8438 L988.6406,346.7656 L986.1719,346.7656 Z " fill="#000000"/><text fill="#000000" font-family="sans-serif" font-size="14" font-style="italic" lengthAdjust="spacing" textLength="48" x="1010.75" y="355.8467">Engine</text><line style="stroke:#696969;stroke-width:0.5;" x1="939" x2="1098" y1="367" y2="367"/><line style="stroke:#696969;stroke-width:0.5;" x1="939" x2="1098" y1="375" y2="375"/><ellipse cx="949" cy="388.6484" fill="#84BE84" rx="3" ry="3" style="stroke:#038048;stroke-width:1.0;"/><text fill="#000000" font-family="sans-serif" font-size="14" lengthAdjust="spacing" textLength="135" x="958" y="391.9951">open(args): Reader</text><ellipse cx="949" cy="404.9453" fill="#84BE84" rx="3" ry="3" style="stroke:#038048;stroke-width:1.0;"/><text fill="#000000" font-family="sans-serif" font-size="14" lengthAdjust="spacing" textLength="77" x="958" y="408.292">args(): [str]</text><ellipse cx="949" cy="421.2422" fill="#84BE84" rx="3" ry="3" style="stroke:#038048;stroke-width:1.0;"/><text fill="#000000" font-family="sans-serif" font-size="14" lengthAdjust="spacing" textLength="114" x="958" y="424.5889">description(): str</text><ellipse cx="949" cy="437.5391" fill="#84BE84" rx="3" ry="3" style="stroke:#038048;stroke-width:1.0;"/><text fill="#000000" font-family="sans-serif" font-size="14" lengthAdjust="spacing" textLength="116" x="958" y="440.8857">url(): str_to_docs</text></g><!--MD5=[9a349d9a6ed445beec8f54d9a76426ec]
class profiles.Reader--><g id="elem_profiles.Reader"><rect codeLine="71" fill="#F5F5F5" height="80.5938" id="profiles.Reader" rx="2.5" ry="2.5" style="stroke:#696969;stroke-width:0.5;" width="114" x="1134.5" y="351"/><ellipse cx="1163.9" cy="367" fill="#B4A7E5" rx="11" ry="11" style="stroke:#181818;stroke-width:1.0;"/><path d="M1159.8219,362.7656 L1159.8219,360.6094 L1167.2125,360.6094 L1167.2125,362.7656 L1164.7438,362.7656 L1164.7438,370.8438 L1167.2125,370.8438 L1167.2125,373 L1159.8219,373 L1159.8219,370.8438 L1162.2906,370.8438 L1162.2906,362.7656 L1159.8219,362.7656 Z " fill="#000000"/><text fill="#000000" font-family="sans-serif" font-size="14" font-style="italic" lengthAdjust="spacing" textLength="50" x="1181.1" y="371.8467">Reader</text><line style="stroke:#696969;stroke-width:0.5;" x1="1135.5" x2="1247.5" y1="383" y2="383"/><ellipse cx="1145.5" cy="396.6484" fill="#84BE84" rx="3" ry="3" style="stroke:#038048;stroke-width:1.0;"/><text fill="#000000" font-family="sans-serif" font-size="14" lengthAdjust="spacing" textLength="88" x="1154.5" y="399.9951">__init__(args)</text><line style="stroke:#696969;stroke-width:1.0;" x1="1135.5" x2="1247.5" y1="407.2969" y2="407.2969"/><text fill="#000000" font-family="sans-serif" font-size="14" lengthAdjust="spacing" textLength="30" x="1140.5" y="424.292">TBD</text></g><!--MD5=[ed6624c6556d5e7b1bd23032162d20b7]
class Client--><g id="elem_Client"><rect codeLine="11" fill="#F5F5F5" height="48" id="Client" rx="2.5" ry="2.5" style="stroke:#696969;stroke-width:0.5;" width="71" x="704" y="7"/><ellipse cx="719" cy="23" fill="#ADD1B2" rx="11" ry="11" style="stroke:#181818;stroke-width:1.0;"/><path d="M721.9688,28.6406 Q721.3906,28.9375 720.75,29.0781 Q720.1094,29.2344 719.4063,29.2344 Q716.9063,29.2344 715.5781,27.5938 Q714.2656,25.9375 714.2656,22.8125 Q714.2656,19.6875 715.5781,18.0313 Q716.9063,16.375 719.4063,16.375 Q720.1094,16.375 720.75,16.5313 Q721.4063,16.6875 721.9688,16.9844 L721.9688,19.7031 Q721.3438,19.125 720.75,18.8594 Q720.1563,18.5781 719.5313,18.5781 Q718.1875,18.5781 717.5,19.6563 Q716.8125,20.7188 716.8125,22.8125 Q716.8125,24.9063 717.5,25.9844 Q718.1875,27.0469 719.5313,27.0469 Q720.1563,27.0469 720.75,26.7813 Q721.3438,26.5 721.9688,25.9219 L721.9688,28.6406 Z " fill="#000000"/><text fill="#000000" font-family="sans-serif" font-size="14" lengthAdjust="spacing" textLength="39" x="733" y="27.8467">Client</text><line style="stroke:#696969;stroke-width:0.5;" x1="705" x2="774" y1="39" y2="39"/><line style="stroke:#696969;stroke-width:0.5;" x1="705" x2="774" y1="47" y2="47"/></g><g id="elem_GMN3"><path d="M810,11 L810,27 L775.03,31 L810,35 L810,51.2656 A0,0 0 0 0 810,51.2656 L1097,51.2656 A0,0 0 0 0 1097,51.2656 L1097,21 L1087,11 L810,11 A0,0 0 0 0 810,11 " fill="#FEFFDD" style="stroke:#181818;stroke-width:0.5;"/><path d="M1087,11 L1087,21 L1097,21 L1087,11 " fill="#FEFFDD" style="stroke:#181818;stroke-width:0.5;"/><text fill="#000000" font-family="sans-serif" font-size="13" lengthAdjust="spacing" textLength="266" x="816" y="28.0669">This is i.e. pyaerocom initiated by a config</text><text fill="#000000" font-family="sans-serif" font-size="13" lengthAdjust="spacing" textLength="210" x="816" y="43.1997">or a user with a jupyter notebook</text></g><!--MD5=[0bb6ad15cdcf141229b7a5432d79738f]
class pyaro--><g id="elem_pyaro"><rect codeLine="17" fill="#F5F5F5" height="113.1875" id="pyaro" rx="2.5" ry="2.5" style="stroke:#696969;stroke-width:0.5;" width="418" x="530.5" y="132"/><ellipse cx="715.75" cy="148" fill="#B4A7E5" rx="11" ry="11" style="stroke:#181818;stroke-width:1.0;"/><path d="M711.6719,143.7656 L711.6719,141.6094 L719.0625,141.6094 L719.0625,143.7656 L716.5938,143.7656 L716.5938,151.8438 L719.0625,151.8438 L719.0625,154 L711.6719,154 L711.6719,151.8438 L714.1406,151.8438 L714.1406,143.7656 L711.6719,143.7656 Z " fill="#000000"/><text fill="#000000" font-family="sans-serif" font-size="14" font-style="italic" lengthAdjust="spacing" textLength="39" x="736.25" y="152.8467">pyaro</text><line style="stroke:#696969;stroke-width:0.5;" x1="531.5" x2="947.5" y1="164" y2="164"/><line style="stroke:#696969;stroke-width:0.5;" x1="531.5" x2="947.5" y1="172" y2="172"/><ellipse cx="541.5" cy="185.6484" fill="#84BE84" rx="3" ry="3" style="stroke:#038048;stroke-width:1.0;"/><text fill="#000000" font-family="sans-serif" font-size="14" lengthAdjust="spacing" textLength="392" x="550.5" y="188.9951">list_timeseries_readers() : dict[name, timerseries.Engine]</text><ellipse cx="541.5" cy="201.9453" fill="#84BE84" rx="3" ry="3" style="stroke:#038048;stroke-width:1.0;"/><text fill="#000000" font-family="sans-serif" font-size="14" lengthAdjust="spacing" textLength="389" x="550.5" y="205.292">open_timeseries_reader(name, args): timeseries.Reader</text><ellipse cx="541.5" cy="218.2422" fill="#84BE84" rx="3" ry="3" style="stroke:#038048;stroke-width:1.0;"/><text fill="#000000" font-family="sans-serif" font-size="14" lengthAdjust="spacing" textLength="343" x="550.5" y="221.5889">list_profiles_readers() : dict[name, profiles.Engine]</text><ellipse cx="541.5" cy="234.5391" fill="#84BE84" rx="3" ry="3" style="stroke:#038048;stroke-width:1.0;"/><text fill="#000000" font-family="sans-serif" font-size="14" lengthAdjust="spacing" textLength="345" x="550.5" y="237.8857">open_profiles_reader(name, args): profiles.Reader</text></g><!--MD5=[d4ffaf84171411441ce695ef7b03920a]
class EBASTimeseriesEngine--><g id="elem_EBASTimeseriesEngine"><rect codeLine="31" fill="#F5F5F5" height="80.5938" id="EBASTimeseriesEngine" rx="2.5" ry="2.5" style="stroke:#696969;stroke-width:0.5;" width="271" x="219" y="519"/><ellipse cx="269.75" cy="535" fill="#ADD1B2" rx="11" ry="11" style="stroke:#181818;stroke-width:1.0;"/><path d="M272.7188,540.6406 Q272.1406,540.9375 271.5,541.0781 Q270.8594,541.2344 270.1563,541.2344 Q267.6563,541.2344 266.3281,539.5938 Q265.0156,537.9375 265.0156,534.8125 Q265.0156,531.6875 266.3281,530.0313 Q267.6563,528.375 270.1563,528.375 Q270.8594,528.375 271.5,528.5313 Q272.1563,528.6875 272.7188,528.9844 L272.7188,531.7031 Q272.0938,531.125 271.5,530.8594 Q270.9063,530.5781 270.2813,530.5781 Q268.9375,530.5781 268.25,531.6563 Q267.5625,532.7188 267.5625,534.8125 Q267.5625,536.9063 268.25,537.9844 Q268.9375,539.0469 270.2813,539.0469 Q270.9063,539.0469 271.5,538.7813 Q272.0938,538.5 272.7188,537.9219 L272.7188,540.6406 Z " fill="#000000"/><text fill="#000000" font-family="sans-serif" font-size="14" lengthAdjust="spacing" textLength="161" x="290.25" y="539.8467">EBASTimeseriesEngine</text><line style="stroke:#696969;stroke-width:0.5;" x1="220" x2="489" y1="551" y2="551"/><text fill="#000000" font-family="sans-serif" font-size="14" lengthAdjust="spacing" textLength="12" x="225" y="567.9951">...</text><line style="stroke:#696969;stroke-width:0.5;" x1="220" x2="489" y1="575.2969" y2="575.2969"/><ellipse cx="230" cy="588.9453" fill="#84BE84" rx="3" ry="3" style="stroke:#038048;stroke-width:1.0;"/><text fill="#000000" font-family="sans-serif" font-size="14" lengthAdjust="spacing" textLength="245" x="239" y="592.292">open(args): EbasTimeseriesReader</text></g><!--MD5=[08d54c547441351654fcb8635494fba6]
class EEATimeseriesEngine--><g id="elem_EEATimeseriesEngine"><rect codeLine="36" fill="#F5F5F5" height="80.5938" id="EEATimeseriesEngine" rx="2.5" ry="2.5" style="stroke:#696969;stroke-width:0.5;" width="271" x="525" y="519"/><ellipse cx="580.75" cy="535" fill="#ADD1B2" rx="11" ry="11" style="stroke:#181818;stroke-width:1.0;"/><path d="M583.7188,540.6406 Q583.1406,540.9375 582.5,541.0781 Q581.8594,541.2344 581.1563,541.2344 Q578.6563,541.2344 577.3281,539.5938 Q576.0156,537.9375 576.0156,534.8125 Q576.0156,531.6875 577.3281,530.0313 Q578.6563,528.375 581.1563,528.375 Q581.8594,528.375 582.5,528.5313 Q583.1563,528.6875 583.7188,528.9844 L583.7188,531.7031 Q583.0938,531.125 582.5,530.8594 Q581.9063,530.5781 581.2813,530.5781 Q579.9375,530.5781 579.25,531.6563 Q578.5625,532.7188 578.5625,534.8125 Q578.5625,536.9063 579.25,537.9844 Q579.9375,539.0469 581.2813,539.0469 Q581.9063,539.0469 582.5,538.7813 Q583.0938,538.5 583.7188,537.9219 L583.7188,540.6406 Z " fill="#000000"/><text fill="#000000" font-family="sans-serif" font-size="14" lengthAdjust="spacing" textLength="151" x="601.25" y="539.8467">EEATimeseriesEngine</text><line style="stroke:#696969;stroke-width:0.5;" x1="526" x2="795" y1="551" y2="551"/><text fill="#000000" font-family="sans-serif" font-size="14" lengthAdjust="spacing" textLength="12" x="531" y="567.9951">...</text><line style="stroke:#696969;stroke-width:0.5;" x1="526" x2="795" y1="575.2969" y2="575.2969"/><ellipse cx="536" cy="588.9453" fill="#84BE84" rx="3" ry="3" style="stroke:#038048;stroke-width:1.0;"/><text fill="#000000" font-family="sans-serif" font-size="14" lengthAdjust="spacing" textLength="245" x="545" y="592.292">open(args): EbasTimeseriesReader</text></g><!--MD5=[6fd1afd0c21118565504e5161b82fad3]
class EBASTimeseriesReader--><g id="elem_EBASTimeseriesReader"><rect codeLine="50" fill="#F5F5F5" height="96.8906" id="EBASTimeseriesReader" rx="2.5" ry="2.5" style="stroke:#696969;stroke-width:0.5;" width="195" x="7" y="661"/><ellipse cx="22" cy="677" fill="#ADD1B2" rx="11" ry="11" style="stroke:#181818;stroke-width:1.0;"/><path d="M24.9688,682.6406 Q24.3906,682.9375 23.75,683.0781 Q23.1094,683.2344 22.4063,683.2344 Q19.9063,683.2344 18.5781,681.5938 Q17.2656,679.9375 17.2656,676.8125 Q17.2656,673.6875 18.5781,672.0313 Q19.9063,670.375 22.4063,670.375 Q23.1094,670.375 23.75,670.5313 Q24.4063,670.6875 24.9688,670.9844 L24.9688,673.7031 Q24.3438,673.125 23.75,672.8594 Q23.1563,672.5781 22.5313,672.5781 Q21.1875,672.5781 20.5,673.6563 Q19.8125,674.7188 19.8125,676.8125 Q19.8125,678.9063 20.5,679.9844 Q21.1875,681.0469 22.5313,681.0469 Q23.1563,681.0469 23.75,680.7813 Q24.3438,680.5 24.9688,679.9219 L24.9688,682.6406 Z " fill="#000000"/><text fill="#000000" font-family="sans-serif" font-size="14" lengthAdjust="spacing" textLength="163" x="36" y="681.8467">EBASTimeseriesReader</text><line style="stroke:#696969;stroke-width:0.5;" x1="8" x2="201" y1="693" y2="693"/><ellipse cx="18" cy="706.6484" fill="#84BE84" rx="3" ry="3" style="stroke:#038048;stroke-width:1.0;"/><text fill="#000000" font-family="sans-serif" font-size="14" lengthAdjust="spacing" textLength="88" x="27" y="709.9951">__init__(args)</text><line style="stroke:#696969;stroke-width:1.0;" x1="8" x2="201" y1="717.2969" y2="717.2969"/><ellipse cx="18" cy="730.9453" fill="#84BE84" rx="3" ry="3" style="stroke:#038048;stroke-width:1.0;"/><text fill="#000000" font-family="sans-serif" font-size="14" lengthAdjust="spacing" textLength="157" x="27" y="734.292">data(): TimeseriesData</text><text fill="#000000" font-family="sans-serif" font-size="14" lengthAdjust="spacing" textLength="12" x="27" y="750.5889">...</text></g><!--MD5=[a3f87a443877ee1f8f7e145de0da7ea2]
class EEATimeseriesReader--><g id="elem_EEATimeseriesReader"><rect codeLine="57" fill="#F5F5F5" height="96.8906" id="EEATimeseriesReader" rx="2.5" ry="2.5" style="stroke:#696969;stroke-width:0.5;" width="185" x="320" y="661"/><ellipse cx="335" cy="677" fill="#ADD1B2" rx="11" ry="11" style="stroke:#181818;stroke-width:1.0;"/><path d="M337.9688,682.6406 Q337.3906,682.9375 336.75,683.0781 Q336.1094,683.2344 335.4063,683.2344 Q332.9063,683.2344 331.5781,681.5938 Q330.2656,679.9375 330.2656,676.8125 Q330.2656,673.6875 331.5781,672.0313 Q332.9063,670.375 335.4063,670.375 Q336.1094,670.375 336.75,670.5313 Q337.4063,670.6875 337.9688,670.9844 L337.9688,673.7031 Q337.3438,673.125 336.75,672.8594 Q336.1563,672.5781 335.5313,672.5781 Q334.1875,672.5781 333.5,673.6563 Q332.8125,674.7188 332.8125,676.8125 Q332.8125,678.9063 333.5,679.9844 Q334.1875,681.0469 335.5313,681.0469 Q336.1563,681.0469 336.75,680.7813 Q337.3438,680.5 337.9688,679.9219 L337.9688,682.6406 Z " fill="#000000"/><text fill="#000000" font-family="sans-serif" font-size="14" lengthAdjust="spacing" textLength="153" x="349" y="681.8467">EEATimeseriesReader</text><line style="stroke:#696969;stroke-width:0.5;" x1="321" x2="504" y1="693" y2="693"/><ellipse cx="331" cy="706.6484" fill="#84BE84" rx="3" ry="3" style="stroke:#038048;stroke-width:1.0;"/><text fill="#000000" font-family="sans-serif" font-size="14" lengthAdjust="spacing" textLength="88" x="340" y="709.9951">__init__(args)</text><line style="stroke:#696969;stroke-width:1.0;" x1="321" x2="504" y1="717.2969" y2="717.2969"/><ellipse cx="331" cy="730.9453" fill="#84BE84" rx="3" ry="3" style="stroke:#038048;stroke-width:1.0;"/><text fill="#000000" font-family="sans-serif" font-size="14" lengthAdjust="spacing" textLength="157" x="340" y="734.292">data(): TimeseriesData</text><text fill="#000000" font-family="sans-serif" font-size="14" lengthAdjust="spacing" textLength="12" x="340" y="750.5889">...</text></g><!--MD5=[b9894d696e3017c9585f3fde2180a9f2]
class EBASProfilesReader--><g id="elem_EBASProfilesReader"><rect codeLine="77" fill="#F5F5F5" height="48" id="EBASProfilesReader" rx="2.5" ry="2.5" style="stroke:#696969;stroke-width:0.5;" width="169" x="989" y="685.5"/><ellipse cx="1004" cy="701.5" fill="#ADD1B2" rx="11" ry="11" style="stroke:#181818;stroke-width:1.0;"/><path d="M1006.9688,707.1406 Q1006.3906,707.4375 1005.75,707.5781 Q1005.1094,707.7344 1004.4063,707.7344 Q1001.9063,707.7344 1000.5781,706.0938 Q999.2656,704.4375 999.2656,701.3125 Q999.2656,698.1875 1000.5781,696.5313 Q1001.9063,694.875 1004.4063,694.875 Q1005.1094,694.875 1005.75,695.0313 Q1006.4063,695.1875 1006.9688,695.4844 L1006.9688,698.2031 Q1006.3438,697.625 1005.75,697.3594 Q1005.1563,697.0781 1004.5313,697.0781 Q1003.1875,697.0781 1002.5,698.1563 Q1001.8125,699.2188 1001.8125,701.3125 Q1001.8125,703.4063 1002.5,704.4844 Q1003.1875,705.5469 1004.5313,705.5469 Q1005.1563,705.5469 1005.75,705.2813 Q1006.3438,705 1006.9688,704.4219 L1006.9688,707.1406 Z " fill="#000000"/><text fill="#000000" font-family="sans-serif" font-size="14" lengthAdjust="spacing" textLength="137" x="1018" y="706.3467">EBASProfilesReader</text><line style="stroke:#696969;stroke-width:0.5;" x1="990" x2="1157" y1="717.5" y2="717.5"/><line style="stroke:#696969;stroke-width:0.5;" x1="990" x2="1157" y1="725.5" y2="725.5"/></g><!--MD5=[c7193ddda6b722301c41139c172af57b]
class EEAProfilesReader--><g id="elem_EEAProfilesReader"><rect codeLine="80" fill="#F5F5F5" height="48" id="EEAProfilesReader" rx="2.5" ry="2.5" style="stroke:#696969;stroke-width:0.5;" width="159" x="1226" y="685.5"/><ellipse cx="1241" cy="701.5" fill="#ADD1B2" rx="11" ry="11" style="stroke:#181818;stroke-width:1.0;"/><path d="M1243.9688,707.1406 Q1243.3906,707.4375 1242.75,707.5781 Q1242.1094,707.7344 1241.4063,707.7344 Q1238.9063,707.7344 1237.5781,706.0938 Q1236.2656,704.4375 1236.2656,701.3125 Q1236.2656,698.1875 1237.5781,696.5313 Q1238.9063,694.875 1241.4063,694.875 Q1242.1094,694.875 1242.75,695.0313 Q1243.4063,695.1875 1243.9688,695.4844 L1243.9688,698.2031 Q1243.3438,697.625 1242.75,697.3594 Q1242.1563,697.0781 1241.5313,697.0781 Q1240.1875,697.0781 1239.5,698.1563 Q1238.8125,699.2188 1238.8125,701.3125 Q1238.8125,703.4063 1239.5,704.4844 Q1240.1875,705.5469 1241.5313,705.5469 Q1242.1563,705.5469 1242.75,705.2813 Q1243.3438,705 1243.9688,704.4219 L1243.9688,707.1406 Z " fill="#000000"/><text fill="#000000" font-family="sans-serif" font-size="14" lengthAdjust="spacing" textLength="127" x="1255" y="706.3467">EEAProfilesReader</text><line style="stroke:#696969;stroke-width:0.5;" x1="1227" x2="1384" y1="717.5" y2="717.5"/><line style="stroke:#696969;stroke-width:0.5;" x1="1227" x2="1384" y1="725.5" y2="725.5"/></g><!--MD5=[d9c1509a9c32c3d516246f555abc88c7]
class EBASProfilesEngine--><g id="elem_EBASProfilesEngine"><rect fill="#F5F5F5" height="48" id="EBASProfilesEngine" rx="2.5" ry="2.5" style="stroke:#696969;stroke-width:0.5;" width="167" x="831" y="535.5"/><ellipse cx="846" cy="551.5" fill="#ADD1B2" rx="11" ry="11" style="stroke:#181818;stroke-width:1.0;"/><path d="M848.9688,557.1406 Q848.3906,557.4375 847.75,557.5781 Q847.1094,557.7344 846.4063,557.7344 Q843.9063,557.7344 842.5781,556.0938 Q841.2656,554.4375 841.2656,551.3125 Q841.2656,548.1875 842.5781,546.5313 Q843.9063,544.875 846.4063,544.875 Q847.1094,544.875 847.75,545.0313 Q848.4063,545.1875 848.9688,545.4844 L848.9688,548.2031 Q848.3438,547.625 847.75,547.3594 Q847.1563,547.0781 846.5313,547.0781 Q845.1875,547.0781 844.5,548.1563 Q843.8125,549.2188 843.8125,551.3125 Q843.8125,553.4063 844.5,554.4844 Q845.1875,555.5469 846.5313,555.5469 Q847.1563,555.5469 847.75,555.2813 Q848.3438,555 848.9688,554.4219 L848.9688,557.1406 Z " fill="#000000"/><text fill="#000000" font-family="sans-serif" font-size="14" lengthAdjust="spacing" textLength="135" x="860" y="556.3467">EBASProfilesEngine</text><line style="stroke:#696969;stroke-width:0.5;" x1="832" x2="997" y1="567.5" y2="567.5"/><line style="stroke:#696969;stroke-width:0.5;" x1="832" x2="997" y1="575.5" y2="575.5"/></g><!--MD5=[7dc8505b6260d32666a636f792276d22]
class EEAProfilesEngine--><g id="elem_EEAProfilesEngine"><rect fill="#F5F5F5" height="48" id="EEAProfilesEngine" rx="2.5" ry="2.5" style="stroke:#696969;stroke-width:0.5;" width="157" x="1033" y="535.5"/><ellipse cx="1048" cy="551.5" fill="#ADD1B2" rx="11" ry="11" style="stroke:#181818;stroke-width:1.0;"/><path d="M1050.9688,557.1406 Q1050.3906,557.4375 1049.75,557.5781 Q1049.1094,557.7344 1048.4063,557.7344 Q1045.9063,557.7344 1044.5781,556.0938 Q1043.2656,554.4375 1043.2656,551.3125 Q1043.2656,548.1875 1044.5781,546.5313 Q1045.9063,544.875 1048.4063,544.875 Q1049.1094,544.875 1049.75,545.0313 Q1050.4063,545.1875 1050.9688,545.4844 L1050.9688,548.2031 Q1050.3438,547.625 1049.75,547.3594 Q1049.1563,547.0781 1048.5313,547.0781 Q1047.1875,547.0781 1046.5,548.1563 Q1045.8125,549.2188 1045.8125,551.3125 Q1045.8125,553.4063 1046.5,554.4844 Q1047.1875,555.5469 1048.5313,555.5469 Q1049.1563,555.5469 1049.75,555.2813 Q1050.3438,555 1050.9688,554.4219 L1050.9688,557.1406 Z " fill="#000000"/><text fill="#000000" font-family="sans-serif" font-size="14" lengthAdjust="spacing" textLength="125" x="1062" y="556.3467">EEAProfilesEngine</text><line style="stroke:#696969;stroke-width:0.5;" x1="1034" x2="1189" y1="567.5" y2="567.5"/><line style="stroke:#696969;stroke-width:0.5;" x1="1034" x2="1189" y1="575.5" y2="575.5"/></g><!--MD5=[ff1255190079aa99def9d9dcc1033382]
reverse link timeseries.Engine to EBASTimeseriesEngine--><g id="link_timeseries.Engine_EBASTimeseriesEngine"><path codeLine="83" d="M400.57,466.37 C391.52,484.46 382.18,503.13 374.3,518.9 " fill="none" id="timeseries.Engine-backto-EBASTimeseriesEngine" style="stroke:#696969;stroke-width:1.0;stroke-dasharray:7.0,7.0;"/><polygon fill="none" points="394.43,463,409.63,448.24,406.95,469.26,394.43,463" style="stroke:#696969;stroke-width:1.0;"/></g><!--MD5=[7d06b95a18ff2bfece9e1f85cdeddfed]
reverse link timeseries.Engine to EEATimeseriesEngine--><g id="link_timeseries.Engine_EEATimeseriesEngine"><path codeLine="84" d="M528.45,460.2 C555.2,480.12 583.59,501.25 607.16,518.79 " fill="none" id="timeseries.Engine-backto-EEATimeseriesEngine" style="stroke:#696969;stroke-width:1.0;stroke-dasharray:7.0,7.0;"/><polygon fill="none" points="523.93,465.56,512.07,448.01,532.29,454.33,523.93,465.56" style="stroke:#696969;stroke-width:1.0;"/></g><!--MD5=[2a665e3365617e25c0e93fe2476ebb3b]
reverse link timeseries.Reader to EBASTimeseriesReader--><g id="link_timeseries.Reader_EBASTimeseriesReader"><path codeLine="86" d="M147.05,473.3 C144.27,478.13 141.72,483.04 139.5,488 C114.46,543.89 107,614.78 104.95,660.87 " fill="none" id="timeseries.Reader-backto-EBASTimeseriesReader" style="stroke:#696969;stroke-width:1.0;stroke-dasharray:7.0,7.0;"/><polygon fill="none" points="141.32,469.28,158.04,456.26,153.09,476.86,141.32,469.28" style="stroke:#696969;stroke-width:1.0;"/></g><!--MD5=[5a5709f1f6ce18c2daf754d0e3601e9d]
reverse link timeseries.Reader to EEATimeseriesReader--><g id="link_timeseries.Reader_EEATimeseriesReader"><path codeLine="87" d="M189.4,475.73 C180.98,515.95 179.12,563.33 201.5,600 C227.41,642.46 275.82,669 319.74,685.2 " fill="none" id="timeseries.Reader-backto-EEATimeseriesReader" style="stroke:#696969;stroke-width:1.0;stroke-dasharray:7.0,7.0;"/><polygon fill="none" points="182.65,473.85,194.14,456.04,196.26,477.13,182.65,473.85" style="stroke:#696969;stroke-width:1.0;"/></g><!--MD5=[a9b056a711ccfd5af575152a5c020a68]
reverse link profiles.Engine to EBASProfilesEngine--><g id="link_profiles.Engine_EBASProfilesEngine"><path codeLine="89" d="M972.82,465.42 C956.98,490.69 940.35,517.24 928.92,535.48 " fill="none" id="profiles.Engine-backto-EBASProfilesEngine" style="stroke:#696969;stroke-width:1.0;stroke-dasharray:7.0,7.0;"/><polygon fill="none" points="967.03,461.47,983.58,448.24,978.89,468.9,967.03,461.47" style="stroke:#696969;stroke-width:1.0;"/></g><!--MD5=[d3e9f1c402e2ab2b5fdd99ec81e31812]
reverse link profiles.Engine to EEAProfilesEngine--><g id="link_profiles.Engine_EEAProfilesEngine"><path codeLine="90" d="M1059.56,465.78 C1073.66,490.95 1088.43,517.32 1098.6,535.48 " fill="none" id="profiles.Engine-backto-EEAProfilesEngine" style="stroke:#696969;stroke-width:1.0;stroke-dasharray:7.0,7.0;"/><polygon fill="none" points="1053.39,469.11,1049.73,448.24,1065.61,462.26,1053.39,469.11" style="stroke:#696969;stroke-width:1.0;"/></g><!--MD5=[f160b417eeb6fe92150d5e252b229faa]
reverse link profiles.Reader to EBASProfilesReader--><g id="link_profiles.Reader_EBASProfilesReader"><path codeLine="92" d="M1211.31,451.64 C1222.24,494.82 1229.61,553.65 1207.5,600 C1189.39,637.96 1150.8,666.93 1119.66,685.35 " fill="none" id="profiles.Reader-backto-EBASProfilesReader" style="stroke:#696969;stroke-width:1.0;stroke-dasharray:7.0,7.0;"/><polygon fill="none" points="1204.49,453.27,1205.86,432.12,1217.98,449.5,1204.49,453.27" style="stroke:#696969;stroke-width:1.0;"/></g><!--MD5=[8af15ab9d4b15ea322218271dc5015a4]
reverse link profiles.Reader to EEAProfilesReader--><g id="link_profiles.Reader_EEAProfilesReader"><path codeLine="93" d="M1244.52,447.65 C1254.15,460.13 1263.14,473.89 1269.5,488 C1299.78,555.19 1304.94,644.11 1305.59,685.49 " fill="none" id="profiles.Reader-backto-EEAProfilesReader" style="stroke:#696969;stroke-width:1.0;stroke-dasharray:7.0,7.0;"/><polygon fill="none" points="1238.99,451.94,1231.67,432.05,1249.79,443.03,1238.99,451.94" style="stroke:#696969;stroke-width:1.0;"/></g><!--MD5=[e348c8fdc19037dd89bc3e9abaf91b08]
link EEAProfilesEngine to EEAProfilesReader--><g id="link_EEAProfilesEngine_EEAProfilesReader"><path codeLine="96" d="M1141.81,583.62 C1176.73,610.26 1234,653.95 1270.71,681.96 " fill="none" id="EEAProfilesEngine-to-EEAProfilesReader" style="stroke:#696969;stroke-width:1.0;stroke-dasharray:7.0,7.0;"/><polygon fill="#696969" points="1275.08,685.29,1270.3687,676.6411,1271.111,682.249,1265.5031,682.9914,1275.08,685.29" style="stroke:#696969;stroke-width:1.0;"/></g><!--MD5=[ca44c4e7434c5d485126aab3a11bcca4]
link EEATimeseriesEngine to EEATimeseriesReader--><g id="link_EEATimeseriesEngine_EEATimeseriesReader"><path codeLine="97" d="M594.04,600.16 C564.23,617.95 528.72,639.15 497.04,658.05 " fill="none" id="EEATimeseriesEngine-to-EEATimeseriesReader" style="stroke:#696969;stroke-width:1.0;stroke-dasharray:7.0,7.0;"/><polygon fill="#696969" points="492.39,660.82,502.1683,659.6435,496.6838,658.2581,498.0692,652.7735,492.39,660.82" style="stroke:#696969;stroke-width:1.0;"/></g><!--MD5=[b04e17ef51790f765ff09f144b38be4c]
link EBASProfilesEngine to EBASProfilesReader--><g id="link_EBASProfilesEngine_EBASProfilesReader"><path codeLine="99" d="M939.34,583.62 C967.85,610.16 1014.52,653.6 1044.62,681.62 " fill="none" id="EBASProfilesEngine-to-EBASProfilesReader" style="stroke:#696969;stroke-width:1.0;stroke-dasharray:7.0,7.0;"/><polygon fill="#696969" points="1048.57,685.29,1044.7021,676.2324,1044.9081,681.8856,1039.255,682.0915,1048.57,685.29" style="stroke:#696969;stroke-width:1.0;"/></g><!--MD5=[8f2a86f51f4a92c339433ad8318a399f]
link EBASTimeseriesEngine to EBASTimeseriesReader--><g id="link_EBASTimeseriesEngine_EBASTimeseriesReader"><path codeLine="100" d="M287.5,600.16 C257.45,617.95 221.65,639.15 189.72,658.05 " fill="none" id="EBASTimeseriesEngine-to-EBASTimeseriesReader" style="stroke:#696969;stroke-width:1.0;stroke-dasharray:7.0,7.0;"/><polygon fill="#696969" points="185.04,660.82,194.8229,659.6819,189.3438,658.2749,190.7507,652.7958,185.04,660.82" style="stroke:#696969;stroke-width:1.0;"/></g><!--MD5=[3ddd979890f97e18a5d76ebc437f1158]
link Client to pyaro--><g id="link_Client_pyaro"><path codeLine="102" d="M739.5,55.28 C739.5,74.11 739.5,101.49 739.5,126.47 " fill="none" id="Client-to-pyaro" style="stroke:#696969;stroke-width:1.0;stroke-dasharray:7.0,7.0;"/><polygon fill="#696969" points="739.5,131.75,743.5,122.75,739.5,126.75,735.5,122.75,739.5,131.75" style="stroke:#696969;stroke-width:1.0;"/><text fill="#000000" font-family="sans-serif" font-size="13" lengthAdjust="spacing" textLength="42" x="740.5" y="98.0669">import</text></g><!--MD5=[7a902452a102ec7b7cc9ac64ed874bdb]
link pyaro to timeseries.Engine--><g id="link_pyaro_timeseries.Engine"><path codeLine="103" d="M655.78,245.22 C614.26,272.85 564.22,306.16 522.52,333.91 " fill="none" id="pyaro-to-timeseries.Engine" style="stroke:#696969;stroke-width:1.0;stroke-dasharray:7.0,7.0;"/><polygon fill="#696969" points="518.26,336.75,527.9699,335.1013,522.4246,333.9831,523.5428,328.4378,518.26,336.75" style="stroke:#696969;stroke-width:1.0;"/></g><!--MD5=[94f9dcdaa4f2dfda15cac1c984278bc4]
link pyaro to profiles.Engine--><g id="link_pyaro_profiles.Engine"><path codeLine="104" d="M816.85,245.22 C854.19,272.13 899,304.41 936.89,331.71 " fill="none" id="pyaro-to-profiles.Engine" style="stroke:#696969;stroke-width:1.0;stroke-dasharray:7.0,7.0;"/><polygon fill="#696969" points="941,334.67,936.0437,326.1591,936.9459,331.7436,931.3614,332.6458,941,334.67" style="stroke:#696969;stroke-width:1.0;"/></g><!--MD5=[af4e8091efb374317ca400da2a6510f5]
link Client to timeseries.Engine--><g id="link_Client_timeseries.Engine"><path codeLine="105" d="M703.96,32.72 C641.89,36.09 514.6,52.87 454.5,132 C411.79,188.24 415.08,272.73 424,329.66 " fill="none" id="Client-to-timeseries.Engine" style="stroke:#696969;stroke-width:1.0;stroke-dasharray:7.0,7.0;"/><polygon fill="#696969" points="424.83,334.74,427.3363,325.2154,424.0289,329.8046,419.4397,326.4972,424.83,334.74" style="stroke:#696969;stroke-width:1.0;"/><text fill="#000000" font-family="sans-serif" font-size="13" lengthAdjust="spacing" textLength="56" x="455.5" y="193.0669">interacts</text></g><!--MD5=[a779ea958b82c6535546a0509210c3d8]
link Client to timeseries.Reader--><g id="link_Client_timeseries.Reader"><path codeLine="106" d="M703.98,31.06 C629.54,31.04 455.64,41.37 353.5,132 C296.04,182.99 258.96,264.15 238.26,321.92 " fill="none" id="Client-to-timeseries.Reader" style="stroke:#696969;stroke-width:1.0;stroke-dasharray:7.0,7.0;"/><polygon fill="#696969" points="236.55,326.74,243.3275,319.594,238.2208,322.0274,235.7874,316.9207,236.55,326.74" style="stroke:#696969;stroke-width:1.0;"/><text fill="#000000" font-family="sans-serif" font-size="13" lengthAdjust="spacing" textLength="56" x="354.5" y="193.0669">interacts</text></g><!--MD5=[d700cd11be122e4e0852a9ba84dd9204]
link Client to profiles.Engine--><g id="link_Client_profiles.Engine"><path codeLine="107" d="M775.16,47.46 C838.66,75.03 964.89,129.99 966.5,132 C1011.61,188.1 1020.92,272.82 1021.39,329.83 " fill="none" id="Client-to-profiles.Engine" style="stroke:#696969;stroke-width:1.0;stroke-dasharray:7.0,7.0;"/><polygon fill="#696969" points="1021.41,334.91,1025.3843,325.8986,1021.3957,329.91,1017.3843,325.9215,1021.41,334.91" style="stroke:#696969;stroke-width:1.0;"/><text fill="#000000" font-family="sans-serif" font-size="13" lengthAdjust="spacing" textLength="56" x="1013.5" y="193.0669">interacts</text></g><!--MD5=[6a0806883e0b73b0ddaf58af84e94bb0]
link Client to profiles.Reader--><g id="link_Client_profiles.Reader"><path codeLine="108" d="M775.13,48.34 C780.88,50.72 786.81,53.03 792.5,55 C916.89,98.08 978.9,45.92 1078.5,132 C1143.25,187.96 1172.25,287.95 1184.14,345.8 " fill="none" id="Client-to-profiles.Reader" style="stroke:#696969;stroke-width:1.0;stroke-dasharray:7.0,7.0;"/><polygon fill="#696969" points="1185.17,350.92,1187.3165,341.3079,1184.1839,346.0182,1179.4736,342.8856,1185.17,350.92" style="stroke:#696969;stroke-width:1.0;"/><text fill="#000000" font-family="sans-serif" font-size="13" lengthAdjust="spacing" textLength="56" x="1153.5" y="193.0669">interacts</text></g><!--MD5=[3d20d3f69751c73389180329983779e0]
@startuml

skinparam class {
  backgroundColor whitesmoke
  arrowColor dimgrey
  borderColor dimgrey
}

' Abstract Factory Patter
' Factory -> MeasurementNetwork

class Client
note right of Client
This is i.e. pyaerocom initiated by a config
or a user with a jupyter notebook
end note

interface pyaro {
  + list_timeseries_readers() : dict[name, timerseries.Engine]
  + open_timeseries_reader(name, args): timeseries.Reader
  + list_profiles_readers() : dict[name, profiles.Engine]
  + open_profiles_reader(name, args): profiles.Reader
}

interface timeseries.Engine {
  + open(args): Reader
  + args(): [str]
  + description(): str
  + url(): str_to_docs
}

class EBASTimeseriesEngine {
  + open(args): EbasTimeseriesReader
  ...
}

class EEATimeseriesEngine {
  + open(args): EbasTimeseriesReader
  ...
}

interface timeseries.Reader {
  + __init__(args)
  - -
  + data(): Data
  + stations(): dict[str, Station]
  + variables(): [str]
  + close()
}

class EBASTimeseriesReader {
  + __init__(args)
  - -
  + data(): TimeseriesData
  ...
}

class EEATimeseriesReader {
  + __init__(args)
  - -
  + data(): TimeseriesData
  ...
}

interface profiles.Engine {
  + open(args): Reader
  + args(): [str]
  + description(): str
  + url(): str_to_docs
}

interface profiles.Reader {
  + __init__(args)
  - -
  TBD
}

class EBASProfilesReader {
}

class EEAProfilesReader {
}

timeseries.Engine <|.. EBASTimeseriesEngine
timeseries.Engine <|.. EEATimeseriesEngine

timeseries.Reader <|.. EBASTimeseriesReader
timeseries.Reader <|.. EEATimeseriesReader

profiles.Engine <|.. EBASProfilesEngine
profiles.Engine <|.. EEAProfilesEngine

profiles.Reader <|.. EBASProfilesReader
profiles.Reader <|.. EEAProfilesReader


EEAProfilesEngine ..> EEAProfilesReader
EEATimeseriesEngine ..> EEATimeseriesReader

EBASProfilesEngine ..> EBASProfilesReader
EBASTimeseriesEngine ..> EBASTimeseriesReader

Client ..> pyaro: import
pyaro ..> timeseries.Engine
pyaro ..> profiles.Engine
Client ..> timeseries.Engine: interacts
Client ..> timeseries.Reader : interacts
Client ..> profiles.Engine : interacts
Client ..> profiles.Reader : interacts


@enduml

@startuml

skinparam class {
  backgroundColor whitesmoke
  arrowColor dimgrey
  borderColor dimgrey
}


class Client
note right of Client
This is i.e. pyaerocom initiated by a config
or a user with a jupyter notebook
end note

interface pyaro {
  + list_timeseries_readers() : dict[name, timerseries.Engine]
  + open_timeseries_reader(name, args): timeseries.Reader
  + list_profiles_readers() : dict[name, profiles.Engine]
  + open_profiles_reader(name, args): profiles.Reader
}

interface timeseries.Engine {
  + open(args): Reader
  + args(): [str]
  + description(): str
  + url(): str_to_docs
}

class EBASTimeseriesEngine {
  + open(args): EbasTimeseriesReader
  ...
}

class EEATimeseriesEngine {
  + open(args): EbasTimeseriesReader
  ...
}

interface timeseries.Reader {
  + __init__(args)
  - -
  + data(): Data
  + stations(): dict[str, Station]
  + variables(): [str]
  + close()
}

class EBASTimeseriesReader {
  + __init__(args)
  - -
  + data(): TimeseriesData
  ...
}

class EEATimeseriesReader {
  + __init__(args)
  - -
  + data(): TimeseriesData
  ...
}

interface profiles.Engine {
  + open(args): Reader
  + args(): [str]
  + description(): str
  + url(): str_to_docs
}

interface profiles.Reader {
  + __init__(args)
  - -
  TBD
}

class EBASProfilesReader {
}

class EEAProfilesReader {
}

timeseries.Engine <|.. EBASTimeseriesEngine
timeseries.Engine <|.. EEATimeseriesEngine

timeseries.Reader <|.. EBASTimeseriesReader
timeseries.Reader <|.. EEATimeseriesReader

profiles.Engine <|.. EBASProfilesEngine
profiles.Engine <|.. EEAProfilesEngine

profiles.Reader <|.. EBASProfilesReader
profiles.Reader <|.. EEAProfilesReader


EEAProfilesEngine ..> EEAProfilesReader
EEATimeseriesEngine ..> EEATimeseriesReader

EBASProfilesEngine ..> EBASProfilesReader
EBASTimeseriesEngine ..> EBASTimeseriesReader

Client ..> pyaro: import
pyaro ..> timeseries.Engine
pyaro ..> profiles.Engine
Client ..> timeseries.Engine: interacts
Client ..> timeseries.Reader : interacts
Client ..> profiles.Engine : interacts
Client ..> profiles.Reader : interacts


@enduml

PlantUML version 1.2022.7(Mon Aug 22 19:01:30 CEST 2022)
(GPL source distribution)
Java Runtime: OpenJDK Runtime Environment
JVM: OpenJDK 64-Bit Server VM
Default Encoding: UTF-8
Language: en
Country: US
--></g></svg>