<?xml version="1.0" encoding="UTF-8" standalone="no"?><svg xmlns="http://www.w3.org/2000/svg" xmlns:xlink="http://www.w3.org/1999/xlink" contentStyleType="text/css" height="704px" preserveAspectRatio="none" style="width:502px;height:704px;background:#FFFFFF;" version="1.1" viewBox="0 0 502 704" width="502px" zoomAndPan="magnify"><defs/><g><!--MD5=[60c9ed31c535bee25c55ce21b5b01399]
class Data--><g id="elem_Data"><rect codeLine="7" fill="#F1F1F1" height="96.8906" id="Data" rx="2.5" ry="2.5" style="stroke:#181818;stroke-width:0.5;" width="143" x="178.5" y="7"/><ellipse cx="229.75" cy="23" fill="#ADD1B2" rx="11" ry="11" style="stroke:#181818;stroke-width:1.0;"/><path d="M233.8594,29 L226.1406,29 L226.1406,16.6094 L233.8594,16.6094 L233.8594,18.7656 L228.5938,18.7656 L228.5938,21.4375 L233.3594,21.4375 L233.3594,23.5938 L228.5938,23.5938 L228.5938,26.8438 L233.8594,26.8438 L233.8594,29 Z " fill="#000000"/><text fill="#000000" font-family="sans-serif" font-size="14" lengthAdjust="spacing" textLength="32" x="250.25" y="27.8467">Data</text><line style="stroke:#181818;stroke-width:0.5;" x1="179.5" x2="320.5" y1="39" y2="39"/><ellipse cx="189.5" cy="52.6484" fill="#000000" rx="3" ry="3" style="stroke:#000000;stroke-width:1.0;"/><text fill="#000000" font-family="sans-serif" font-size="14" lengthAdjust="spacing" textLength="100" x="198.5" y="55.9951">variable: string</text><ellipse cx="189.5" cy="68.9453" fill="#000000" rx="3" ry="3" style="stroke:#000000;stroke-width:1.0;"/><text fill="#000000" font-family="sans-serif" font-size="14" lengthAdjust="spacing" textLength="82" x="198.5" y="72.292">units: string</text><ellipse cx="189.5" cy="85.2422" fill="#000000" rx="3" ry="3" style="stroke:#000000;stroke-width:1.0;"/><text fill="#000000" font-family="sans-serif" font-size="14" lengthAdjust="spacing" textLength="117" x="198.5" y="88.5889">_data: Data_Data</text><line style="stroke:#181818;stroke-width:0.5;" x1="179.5" x2="320.5" y1="95.8906" y2="95.8906"/></g><!--MD5=[95b90d0761fa4ee2301b4a163e2d9e51]
class Data_Data--><g id="elem_Data_Data"><rect codeLine="13" fill="#F1F1F1" height="210.9688" id="Data_Data" rx="2.5" ry="2.5" style="stroke:#181818;stroke-width:0.5;" width="275" x="112.5" y="164"/><ellipse cx="210.25" cy="180" fill="#ADD1B2" rx="11" ry="11" style="stroke:#181818;stroke-width:1.0;"/><path d="M214.3594,186 L206.6406,186 L206.6406,173.6094 L214.3594,173.6094 L214.3594,175.7656 L209.0938,175.7656 L209.0938,178.4375 L213.8594,178.4375 L213.8594,180.5938 L209.0938,180.5938 L209.0938,183.8438 L214.3594,183.8438 L214.3594,186 Z " fill="#000000"/><text fill="#000000" font-family="sans-serif" font-size="14" lengthAdjust="spacing" textLength="71" x="230.75" y="184.8467">Data_Data</text><line style="stroke:#181818;stroke-width:0.5;" x1="113.5" x2="386.5" y1="196" y2="196"/><ellipse cx="123.5" cy="209.6484" fill="#000000" rx="3" ry="3" style="stroke:#000000;stroke-width:1.0;"/><text fill="#000000" font-family="sans-serif" font-size="14" lengthAdjust="spacing" textLength="177" x="132.5" y="212.9951">row: integer «generated»</text><line style="stroke:#181818;stroke-width:1.0;" x1="113.5" x2="386.5" y1="220.2969" y2="220.2969"/><ellipse cx="123.5" cy="233.9453" fill="#000000" rx="3" ry="3" style="stroke:#000000;stroke-width:1.0;"/><text fill="#000000" font-family="sans-serif" font-size="14" lengthAdjust="spacing" textLength="154" x="132.5" y="237.292">values : np.ndarray("f")</text><ellipse cx="123.5" cy="250.2422" fill="#000000" rx="3" ry="3" style="stroke:#000000;stroke-width:1.0;"/><text fill="#000000" font-family="sans-serif" font-size="14" lengthAdjust="spacing" textLength="179" x="132.5" y="253.5889">stations : np.ndarray("str")</text><ellipse cx="123.5" cy="266.5391" fill="#000000" rx="3" ry="3" style="stroke:#000000;stroke-width:1.0;"/><text fill="#000000" font-family="sans-serif" font-size="14" lengthAdjust="spacing" textLength="165" x="132.5" y="269.8857">latitudes: np.ndarray("f")</text><ellipse cx="123.5" cy="282.8359" fill="#000000" rx="3" ry="3" style="stroke:#000000;stroke-width:1.0;"/><text fill="#000000" font-family="sans-serif" font-size="14" lengthAdjust="spacing" textLength="179" x="132.5" y="286.1826">longitudes: np.ndarray("f")</text><ellipse cx="123.5" cy="299.1328" fill="#000000" rx="3" ry="3" style="stroke:#000000;stroke-width:1.0;"/><text fill="#000000" font-family="sans-serif" font-size="14" lengthAdjust="spacing" textLength="165" x="132.5" y="302.4795">altitudes: np.ndarray("f")</text><ellipse cx="123.5" cy="315.4297" fill="#000000" rx="3" ry="3" style="stroke:#000000;stroke-width:1.0;"/><text fill="#000000" font-family="sans-serif" font-size="14" lengthAdjust="spacing" textLength="249" x="132.5" y="318.7764">start_time: np.ndarray("datetime64")</text><ellipse cx="123.5" cy="331.7266" fill="#000000" rx="3" ry="3" style="stroke:#000000;stroke-width:1.0;"/><text fill="#000000" font-family="sans-serif" font-size="14" lengthAdjust="spacing" textLength="249" x="132.5" y="335.0732">stop_time: np.ndarray("datetime64")</text><ellipse cx="123.5" cy="348.0234" fill="#000000" rx="3" ry="3" style="stroke:#000000;stroke-width:1.0;"/><text fill="#000000" font-family="sans-serif" font-size="14" lengthAdjust="spacing" textLength="146" x="132.5" y="351.3701">flags: np.ndarray("i4")</text><ellipse cx="123.5" cy="364.3203" fill="#000000" rx="3" ry="3" style="stroke:#000000;stroke-width:1.0;"/><text fill="#000000" font-family="sans-serif" font-size="14" lengthAdjust="spacing" textLength="244" x="132.5" y="367.667">standard_deviations: np.ndarray("f")</text></g><g id="elem_GMN4"><path d="M6,480.5 L6,551.0313 A0,0 0 0 0 6,551.0313 L232,551.0313 A0,0 0 0 0 232,551.0313 L232,490.5 L222,480.5 L176.25,480.5 L172.25,375.11 L168.25,480.5 L6,480.5 A0,0 0 0 0 6,480.5 " fill="#FEFFDD" style="stroke:#181818;stroke-width:0.5;"/><path d="M222,480.5 L222,490.5 L232,490.5 L222,480.5 " fill="#FEFFDD" style="stroke:#181818;stroke-width:0.5;"/><text fill="#000000" font-family="sans-serif" font-size="13" lengthAdjust="spacing" textLength="142" x="12" y="497.5669">pyaro.timeseries.Data</text><text fill="#000000" font-family="sans-serif" font-size="13" lengthAdjust="spacing" textLength="192" x="12" y="512.6997">dictionary of 1D numpy arrays</text><text fill="#000000" font-family="sans-serif" font-size="13" lengthAdjust="spacing" textLength="205" x="12" y="527.8325">duplicate lat/lon/alt from Station</text><text fill="#000000" font-family="sans-serif" font-size="13" lengthAdjust="spacing" textLength="158" x="20" y="542.9653">for performance reasons</text></g><!--MD5=[32f8e77670dc7b12ba11221465fb86a4]
class Station--><g id="elem_Station"><rect codeLine="33" fill="#F1F1F1" height="162.0781" id="Station" rx="2.5" ry="2.5" style="stroke:#181818;stroke-width:0.5;" width="228" x="267" y="435"/><ellipse cx="352.75" cy="451" fill="#ADD1B2" rx="11" ry="11" style="stroke:#181818;stroke-width:1.0;"/><path d="M356.8594,457 L349.1406,457 L349.1406,444.6094 L356.8594,444.6094 L356.8594,446.7656 L351.5938,446.7656 L351.5938,449.4375 L356.3594,449.4375 L356.3594,451.5938 L351.5938,451.5938 L351.5938,454.8438 L356.8594,454.8438 L356.8594,457 Z " fill="#000000"/><text fill="#000000" font-family="sans-serif" font-size="14" lengthAdjust="spacing" textLength="48" x="373.25" y="455.8467">Station</text><line style="stroke:#181818;stroke-width:0.5;" x1="268" x2="494" y1="467" y2="467"/><ellipse cx="278" cy="480.6484" fill="#000000" rx="3" ry="3" style="stroke:#000000;stroke-width:1.0;"/><text fill="#000000" font-family="sans-serif" font-size="14" lengthAdjust="spacing" textLength="74" x="287" y="483.9951">station: str</text><line style="stroke:#181818;stroke-width:1.0;" x1="268" x2="494" y1="491.2969" y2="491.2969"/><ellipse cx="278" cy="504.9453" fill="#000000" rx="3" ry="3" style="stroke:#000000;stroke-width:1.0;"/><text fill="#000000" font-family="sans-serif" font-size="14" lengthAdjust="spacing" textLength="89" x="287" y="508.292">latitude: float</text><ellipse cx="278" cy="521.2422" fill="#000000" rx="3" ry="3" style="stroke:#000000;stroke-width:1.0;"/><text fill="#000000" font-family="sans-serif" font-size="14" lengthAdjust="spacing" textLength="103" x="287" y="524.5889">longitude: float</text><ellipse cx="278" cy="537.5391" fill="#000000" rx="3" ry="3" style="stroke:#000000;stroke-width:1.0;"/><text fill="#000000" font-family="sans-serif" font-size="14" lengthAdjust="spacing" textLength="89" x="287" y="540.8857">altitude: float</text><ellipse cx="278" cy="553.8359" fill="#000000" rx="3" ry="3" style="stroke:#000000;stroke-width:1.0;"/><text fill="#000000" font-family="sans-serif" font-size="14" lengthAdjust="spacing" textLength="124" x="287" y="557.1826">long_name: string</text><ellipse cx="278" cy="570.1328" fill="#000000" rx="3" ry="3" style="stroke:#000000;stroke-width:1.0;"/><text fill="#000000" font-family="sans-serif" font-size="14" lengthAdjust="spacing" textLength="100" x="287" y="573.4795">country: string</text><ellipse cx="278" cy="586.4297" fill="#000000" rx="3" ry="3" style="stroke:#000000;stroke-width:1.0;"/><text fill="#000000" font-family="sans-serif" font-size="14" lengthAdjust="spacing" textLength="202" x="287" y="589.7764">url : string_to_documentation</text></g><g id="elem_GMN8"><path d="M292,657 L292,697.2656 A0,0 0 0 0 292,697.2656 L470,697.2656 A0,0 0 0 0 470,697.2656 L470,667 L460,657 L385,657 L381,597.44 L377,657 L292,657 A0,0 0 0 0 292,657 " fill="#FEFFDD" style="stroke:#181818;stroke-width:0.5;"/><path d="M460,657 L460,667 L470,667 L460,657 " fill="#FEFFDD" style="stroke:#181818;stroke-width:0.5;"/><text fill="#000000" font-family="sans-serif" font-size="13" lengthAdjust="spacing" textLength="157" x="298" y="674.0669">pyaro.timeseries.Station</text><text fill="#000000" font-family="sans-serif" font-size="13" lengthAdjust="spacing" textLength="135" x="298" y="689.1997">Dictionary of stations</text></g><!--MD5=[6efbea4174e017b62729f15512d5facd]
link Data to Data_Data--><g id="link_Data_Data_Data"><path codeLine="56" d="M250,111.06 C250,111.06 250,156.91 250,156.91 " fill="none" id="Data-Data_Data" style="stroke:#181818;stroke-width:1.0;stroke-dasharray:7.0,7.0;"/><line style="stroke:#181818;stroke-width:1.0;" x1="254" x2="246" y1="159.91" y2="159.91"/><line style="stroke:#181818;stroke-width:1.0;" x1="254" x2="246" y1="156.91" y2="156.91"/><line style="stroke:#181818;stroke-width:1.0;" x1="250" x2="250" y1="155.91" y2="163.91"/><line style="stroke:#181818;stroke-width:1.0;" x1="246" x2="254" y1="108.06" y2="108.06"/><line style="stroke:#181818;stroke-width:1.0;" x1="246" x2="254" y1="111.06" y2="111.06"/><line style="stroke:#181818;stroke-width:1.0;" x1="250" x2="250" y1="112.06" y2="104.06"/></g><!--MD5=[1960fc59397a417d1c937f3b9e4a0504]
link Data_Data to Station--><g id="link_Data_Data_Station"><path codeLine="57" d="M327.25,383.11 C327.25,383.11 327.25,426.82 327.25,426.82 " fill="none" id="Data_Data-Station" style="stroke:#181818;stroke-width:1.0;stroke-dasharray:7.0,7.0;"/><line style="stroke:#181818;stroke-width:1.0;" x1="331.25" x2="323.25" y1="430.82" y2="430.82"/><line style="stroke:#181818;stroke-width:1.0;" x1="331.25" x2="323.25" y1="427.82" y2="427.82"/><line style="stroke:#181818;stroke-width:1.0;" x1="327.25" x2="327.25" y1="426.82" y2="434.82"/><line style="stroke:#181818;stroke-width:1.0;" x1="327.25" x2="321.25" y1="383.11" y2="375.11"/><line style="stroke:#181818;stroke-width:1.0;" x1="327.25" x2="333.25" y1="383.11" y2="375.11"/><line style="stroke:#181818;stroke-width:1.0;" x1="327.25" x2="327.25" y1="383.11" y2="375.11"/><ellipse cx="327.25" cy="389.11" fill="none" rx="4" ry="4" style="stroke:#181818;stroke-width:1.0;"/></g><!--MD5=[43a61550d1c03266464e018d916070e5]
@startuml
' hide the spot
' hide circle

' avoid problems with angled crows feet
skinparam linetype ortho

entity "Data" {
  *variable: string
  *units: string
  *_data: Data_Data
}

entity "Data_Data" {
  *row: integer <<generated>>
  - -
  *values : np.ndarray("f")
  *stations : np.ndarray("str")
  *latitudes: np.ndarray("f")
  *longitudes: np.ndarray("f")
  *altitudes: np.ndarray("f")
  *start_time: np.ndarray("datetime64")
  *stop_time: np.ndarray("datetime64")
  *flags: np.ndarray("i4")
  *standard_deviations: np.ndarray("f")
}
note bottom of Data_Data
pyaro.timeseries.Data
dictionary of 1D numpy arrays
duplicate lat/lon/alt from Station
  for performance reasons
end note

entity "Station" {
  *station: str
  - -
  *latitude: float
  *longitude: float
  *altitude: float
  *long_name: string
  *country: string
  *url : string_to_documentation
}
note bottom of Station
pyaro.timeseries.Station
Dictionary of stations
end note

' entity "Variable" {
'   *variable: string
'   *units: string
' }
' note right of Variable
' Dictionary
' end note

Data ||..|| Data_Data
Data_Data }o..|| Station
' TimeseriesReaderData }o..|| Variable

@enduml

@startuml

skinparam linetype ortho

entity "Data" {
  *variable: string
  *units: string
  *_data: Data_Data
}

entity "Data_Data" {
  *row: integer <<generated>>
  - -
  *values : np.ndarray("f")
  *stations : np.ndarray("str")
  *latitudes: np.ndarray("f")
  *longitudes: np.ndarray("f")
  *altitudes: np.ndarray("f")
  *start_time: np.ndarray("datetime64")
  *stop_time: np.ndarray("datetime64")
  *flags: np.ndarray("i4")
  *standard_deviations: np.ndarray("f")
}
note bottom of Data_Data
pyaro.timeseries.Data
dictionary of 1D numpy arrays
duplicate lat/lon/alt from Station
  for performance reasons
end note

entity "Station" {
  *station: str
  - -
  *latitude: float
  *longitude: float
  *altitude: float
  *long_name: string
  *country: string
  *url : string_to_documentation
}
note bottom of Station
pyaro.timeseries.Station
Dictionary of stations
end note


Data ||..|| Data_Data
Data_Data }o..|| Station

@enduml

PlantUML version 1.2022.7(Mon Aug 22 19:01:30 CEST 2022)
(GPL source distribution)
Java Runtime: OpenJDK Runtime Environment
JVM: OpenJDK 64-Bit Server VM
Default Encoding: UTF-8
Language: en
Country: US
--></g></svg>