<?xml version="1.0" encoding="UTF-8" standalone="no"?><svg xmlns="http://www.w3.org/2000/svg" xmlns:xlink="http://www.w3.org/1999/xlink" contentStyleType="text/css" height="826px" preserveAspectRatio="none" style="width:756px;height:826px;background:#FFFFFF;" version="1.1" viewBox="0 0 756 826" width="756px" zoomAndPan="magnify"><defs/><g><!--MD5=[67ade7d237d6e428a56e75939ba847d9]
class _data--><g id="elem__data"><rect codeLine="7" fill="#F1F1F1" height="259.8594" id="_data" rx="2.5" ry="2.5" style="stroke:#181818;stroke-width:0.5;" width="229" x="185.5" y="164"/><ellipse cx="277.25" cy="180" fill="#ADD1B2" rx="11" ry="11" style="stroke:#181818;stroke-width:1.0;"/><path d="M281.3594,186 L273.6406,186 L273.6406,173.6094 L281.3594,173.6094 L281.3594,175.7656 L276.0938,175.7656 L276.0938,178.4375 L280.8594,178.4375 L280.8594,180.5938 L276.0938,180.5938 L276.0938,183.8438 L281.3594,183.8438 L281.3594,186 Z " fill="#000000"/><text fill="#000000" font-family="sans-serif" font-size="14" lengthAdjust="spacing" textLength="37" x="297.75" y="184.8467">_data</text><line style="stroke:#181818;stroke-width:0.5;" x1="186.5" x2="413.5" y1="196" y2="196"/><ellipse cx="196.5" cy="209.6484" fill="#000000" rx="3" ry="3" style="stroke:#000000;stroke-width:1.0;"/><text fill="#000000" font-family="sans-serif" font-size="14" lengthAdjust="spacing" textLength="203" x="205.5" y="212.9951">row_idx: integer «generated»</text><line style="stroke:#181818;stroke-width:1.0;" x1="186.5" x2="413.5" y1="220.2969" y2="220.2969"/><ellipse cx="196.5" cy="233.9453" fill="#000000" rx="3" ry="3" style="stroke:#000000;stroke-width:1.0;"/><text fill="#000000" font-family="sans-serif" font-size="14" lengthAdjust="spacing" textLength="151" x="205.5" y="237.292">metadata_index : float</text><ellipse cx="196.5" cy="250.2422" fill="#000000" rx="3" ry="3" style="stroke:#000000;stroke-width:1.0;"/><text fill="#000000" font-family="sans-serif" font-size="14" lengthAdjust="spacing" textLength="68" x="205.5" y="253.5889">time: float</text><ellipse cx="196.5" cy="266.5391" fill="#000000" rx="3" ry="3" style="stroke:#000000;stroke-width:1.0;"/><text fill="#000000" font-family="sans-serif" font-size="14" lengthAdjust="spacing" textLength="89" x="205.5" y="269.8857">latitude: float</text><ellipse cx="196.5" cy="282.8359" fill="#000000" rx="3" ry="3" style="stroke:#000000;stroke-width:1.0;"/><text fill="#000000" font-family="sans-serif" font-size="14" lengthAdjust="spacing" textLength="103" x="205.5" y="286.1826">longitude: float</text><ellipse cx="196.5" cy="299.1328" fill="#000000" rx="3" ry="3" style="stroke:#000000;stroke-width:1.0;"/><text fill="#000000" font-family="sans-serif" font-size="14" lengthAdjust="spacing" textLength="89" x="205.5" y="302.4795">altitude: float</text><ellipse cx="196.5" cy="315.4297" fill="#000000" rx="3" ry="3" style="stroke:#000000;stroke-width:1.0;"/><text fill="#000000" font-family="sans-serif" font-size="14" lengthAdjust="spacing" textLength="102" x="205.5" y="318.7764">var_index: float</text><ellipse cx="196.5" cy="331.7266" fill="#000000" rx="3" ry="3" style="stroke:#000000;stroke-width:1.0;"/><text fill="#000000" font-family="sans-serif" font-size="14" lengthAdjust="spacing" textLength="74" x="205.5" y="335.0732">value: float</text><ellipse cx="196.5" cy="348.0234" fill="#000000" rx="3" ry="3" style="stroke:#000000;stroke-width:1.0;"/><text fill="#000000" font-family="sans-serif" font-size="14" lengthAdjust="spacing" textLength="119" x="205.5" y="351.3701">data_height: float</text><ellipse cx="196.5" cy="364.3203" fill="#000000" rx="3" ry="3" style="stroke:#000000;stroke-width:1.0;"/><text fill="#000000" font-family="sans-serif" font-size="14" lengthAdjust="spacing" textLength="108" x="205.5" y="367.667">data_error: float</text><ellipse cx="196.5" cy="380.6172" fill="#000000" rx="3" ry="3" style="stroke:#000000;stroke-width:1.0;"/><text fill="#000000" font-family="sans-serif" font-size="14" lengthAdjust="spacing" textLength="107" x="205.5" y="383.9639">flags: dictionary</text><text fill="#000000" font-family="sans-serif" font-size="14" lengthAdjust="spacing" textLength="106" x="205.5" y="400.2607">stop_time: float</text><text fill="#000000" font-family="sans-serif" font-size="14" lengthAdjust="spacing" textLength="73" x="205.5" y="416.5576">trash: float</text></g><g id="elem_GMN3"><path d="M6,554 L6,609.3984 A0,0 0 0 0 6,609.3984 L374,609.3984 A0,0 0 0 0 374,609.3984 L374,564 L364,554 L283.75,554 L279.75,424.29 L275.75,554 L6,554 A0,0 0 0 0 6,554 " fill="#FEFFDD" style="stroke:#181818;stroke-width:0.5;"/><path d="M364,554 L364,564 L374,564 L364,554 " fill="#FEFFDD" style="stroke:#181818;stroke-width:0.5;"/><text fill="#000000" font-family="sans-serif" font-size="13" lengthAdjust="spacing" textLength="136" x="12" y="571.0669">2D numpy float-array</text><text fill="#000000" font-family="sans-serif" font-size="13" lengthAdjust="spacing" textLength="4" x="12" y="586.1997"> </text><text fill="#000000" font-family="sans-serif" font-size="13" lengthAdjust="spacing" textLength="347" x="12" y="601.3325">Daniel: Is metadata_index == station_id in metadata?</text></g><!--MD5=[e3ec42b2ecd1259e1d905e0efb1b0df7]
class metadata--><g id="elem_metadata"><rect codeLine="29" fill="#F1F1F1" height="194.6719" id="metadata" rx="2.5" ry="2.5" style="stroke:#181818;stroke-width:0.5;" width="340" x="409" y="484"/><ellipse cx="542.25" cy="500" fill="#ADD1B2" rx="11" ry="11" style="stroke:#181818;stroke-width:1.0;"/><path d="M546.3594,506 L538.6406,506 L538.6406,493.6094 L546.3594,493.6094 L546.3594,495.7656 L541.0938,495.7656 L541.0938,498.4375 L545.8594,498.4375 L545.8594,500.5938 L541.0938,500.5938 L541.0938,503.8438 L546.3594,503.8438 L546.3594,506 Z " fill="#000000"/><text fill="#000000" font-family="sans-serif" font-size="14" lengthAdjust="spacing" textLength="65" x="562.75" y="504.8467">metadata</text><line style="stroke:#181818;stroke-width:0.5;" x1="410" x2="748" y1="516" y2="516"/><ellipse cx="420" cy="529.6484" fill="#000000" rx="3" ry="3" style="stroke:#000000;stroke-width:1.0;"/><text fill="#000000" font-family="sans-serif" font-size="14" lengthAdjust="spacing" textLength="104" x="429" y="532.9951">station_id: float</text><line style="stroke:#181818;stroke-width:1.0;" x1="410" x2="748" y1="540.2969" y2="540.2969"/><ellipse cx="420" cy="553.9453" fill="#000000" rx="3" ry="3" style="stroke:#000000;stroke-width:1.0;"/><text fill="#000000" font-family="sans-serif" font-size="14" lengthAdjust="spacing" textLength="314" x="429" y="557.292">var_info|varibales : list_of_varnames|dictionary</text><ellipse cx="420" cy="570.2422" fill="#000000" rx="3" ry="3" style="stroke:#000000;stroke-width:1.0;"/><text fill="#000000" font-family="sans-serif" font-size="14" lengthAdjust="spacing" textLength="121" x="429" y="573.5889">instrument_name</text><ellipse cx="420" cy="586.5391" fill="#000000" rx="3" ry="3" style="stroke:#000000;stroke-width:1.0;"/><text fill="#000000" font-family="sans-serif" font-size="14" lengthAdjust="spacing" textLength="89" x="429" y="589.8857">latitude: float</text><ellipse cx="420" cy="602.8359" fill="#000000" rx="3" ry="3" style="stroke:#000000;stroke-width:1.0;"/><text fill="#000000" font-family="sans-serif" font-size="14" lengthAdjust="spacing" textLength="103" x="429" y="606.1826">longitude: float</text><ellipse cx="420" cy="619.1328" fill="#000000" rx="3" ry="3" style="stroke:#000000;stroke-width:1.0;"/><text fill="#000000" font-family="sans-serif" font-size="14" lengthAdjust="spacing" textLength="89" x="429" y="622.4795">altitude: float</text><ellipse cx="420" cy="635.4297" fill="#000000" rx="3" ry="3" style="stroke:#000000;stroke-width:1.0;"/><text fill="#000000" font-family="sans-serif" font-size="14" lengthAdjust="spacing" textLength="141" x="429" y="638.7764">station_name: string</text><ellipse cx="420" cy="651.7266" fill="#000000" rx="3" ry="3" style="stroke:#000000;stroke-width:1.0;"/><text fill="#000000" font-family="sans-serif" font-size="14" lengthAdjust="spacing" textLength="100" x="429" y="655.0732">country: string</text><ellipse cx="420" cy="668.0234" fill="#000000" rx="3" ry="3" style="stroke:#000000;stroke-width:1.0;"/><text fill="#000000" font-family="sans-serif" font-size="14" lengthAdjust="spacing" textLength="238" x="429" y="671.3701">data_id : string_for_documentation</text></g><g id="elem_GMN7"><path d="M501,767 L501,792.1328 A0,0 0 0 0 501,792.1328 L657,792.1328 A0,0 0 0 0 657,792.1328 L657,777 L647,767 L583,767 L579,679.05 L575,767 L501,767 A0,0 0 0 0 501,767 " fill="#FEFFDD" style="stroke:#181818;stroke-width:0.5;"/><path d="M647,767 L647,777 L657,777 L647,767 " fill="#FEFFDD" style="stroke:#181818;stroke-width:0.5;"/><text fill="#000000" font-family="sans-serif" font-size="13" lengthAdjust="spacing" textLength="135" x="507" y="784.0669">Dictionary of stations</text></g><!--MD5=[4ab0930e426437f6179d3334bb994cd8]
class meta_idx--><g id="elem_meta_idx"><rect codeLine="45" fill="#F1F1F1" height="96.8906" id="meta_idx" rx="2.5" ry="2.5" style="stroke:#181818;stroke-width:0.5;" width="178" x="295" y="7"/><ellipse cx="349.25" cy="23" fill="#ADD1B2" rx="11" ry="11" style="stroke:#181818;stroke-width:1.0;"/><path d="M353.3594,29 L345.6406,29 L345.6406,16.6094 L353.3594,16.6094 L353.3594,18.7656 L348.0938,18.7656 L348.0938,21.4375 L352.8594,21.4375 L352.8594,23.5938 L348.0938,23.5938 L348.0938,26.8438 L353.3594,26.8438 L353.3594,29 Z " fill="#000000"/><text fill="#000000" font-family="sans-serif" font-size="14" lengthAdjust="spacing" textLength="61" x="369.75" y="27.8467">meta_idx</text><line style="stroke:#181818;stroke-width:0.5;" x1="296" x2="472" y1="39" y2="39"/><ellipse cx="306" cy="52.6484" fill="#000000" rx="3" ry="3" style="stroke:#000000;stroke-width:1.0;"/><text fill="#000000" font-family="sans-serif" font-size="14" lengthAdjust="spacing" textLength="108" x="315" y="55.9951">station_id : float</text><ellipse cx="306" cy="68.9453" fill="#000000" rx="3" ry="3" style="stroke:#000000;stroke-width:1.0;"/><text fill="#000000" font-family="sans-serif" font-size="14" lengthAdjust="spacing" textLength="118" x="315" y="72.292">var_name : string</text><line style="stroke:#181818;stroke-width:1.0;" x1="296" x2="472" y1="79.5938" y2="79.5938"/><ellipse cx="306" cy="93.2422" fill="#000000" rx="3" ry="3" style="stroke:#000000;stroke-width:1.0;"/><text fill="#000000" font-family="sans-serif" font-size="14" lengthAdjust="spacing" textLength="152" x="315" y="96.5889">row_idxs : list(row_idx)</text></g><g id="elem_GMN11"><path d="M508.5,43 L508.5,52 L473.37,56 L508.5,60 L508.5,68.1328 A0,0 0 0 0 508.5,68.1328 L593.5,68.1328 A0,0 0 0 0 593.5,68.1328 L593.5,53 L583.5,43 L508.5,43 A0,0 0 0 0 508.5,43 " fill="#FEFFDD" style="stroke:#181818;stroke-width:0.5;"/><path d="M583.5,43 L583.5,53 L593.5,53 L583.5,43 " fill="#FEFFDD" style="stroke:#181818;stroke-width:0.5;"/><text fill="#000000" font-family="sans-serif" font-size="13" lengthAdjust="spacing" textLength="64" x="514.5" y="60.0669">Dictionary</text></g><!--MD5=[4639daba10fc616515330c1ebc2f8fb2]
class var_idx--><g id="elem_var_idx"><rect codeLine="55" fill="#F1F1F1" height="80.5938" id="var_idx" rx="2.5" ry="2.5" style="stroke:#181818;stroke-width:0.5;" width="140" x="44" y="739"/><ellipse cx="86.9" cy="755" fill="#ADD1B2" rx="11" ry="11" style="stroke:#181818;stroke-width:1.0;"/><path d="M91.0094,761 L83.2906,761 L83.2906,748.6094 L91.0094,748.6094 L91.0094,750.7656 L85.7438,750.7656 L85.7438,753.4375 L90.5094,753.4375 L90.5094,755.5938 L85.7438,755.5938 L85.7438,758.8438 L91.0094,758.8438 L91.0094,761 Z " fill="#000000"/><text fill="#000000" font-family="sans-serif" font-size="14" lengthAdjust="spacing" textLength="46" x="107.1" y="759.8467">var_idx</text><line style="stroke:#181818;stroke-width:0.5;" x1="45" x2="183" y1="771" y2="771"/><ellipse cx="55" cy="784.6484" fill="#000000" rx="3" ry="3" style="stroke:#000000;stroke-width:1.0;"/><text fill="#000000" font-family="sans-serif" font-size="14" lengthAdjust="spacing" textLength="102" x="64" y="787.9951">var_index: float</text><line style="stroke:#181818;stroke-width:1.0;" x1="45" x2="183" y1="795.2969" y2="795.2969"/><ellipse cx="55" cy="808.9453" fill="#000000" rx="3" ry="3" style="stroke:#000000;stroke-width:1.0;"/><text fill="#000000" font-family="sans-serif" font-size="14" lengthAdjust="spacing" textLength="114" x="64" y="812.292">var_name: string</text></g><g id="elem_GMN15"><path d="M219.5,767 L219.5,776 L184.1,780 L219.5,784 L219.5,792.1328 A0,0 0 0 0 219.5,792.1328 L304.5,792.1328 A0,0 0 0 0 304.5,792.1328 L304.5,777 L294.5,767 L219.5,767 A0,0 0 0 0 219.5,767 " fill="#FEFFDD" style="stroke:#181818;stroke-width:0.5;"/><path d="M294.5,767 L294.5,777 L304.5,777 L294.5,767 " fill="#FEFFDD" style="stroke:#181818;stroke-width:0.5;"/><text fill="#000000" font-family="sans-serif" font-size="13" lengthAdjust="spacing" textLength="64" x="225.5" y="784.0669">Dictionary</text></g><!--MD5=[ae1755d525375ccac3511979b91cb983]
link _data to metadata--><g id="link__data_metadata"><path codeLine="64" d="M397.33,432.23 C397.33,432.23 397.33,519 397.33,519 C397.33,519 400.97,519 400.97,519 " fill="none" id="_data-metadata" style="stroke:#181818;stroke-width:1.0;stroke-dasharray:7.0,7.0;"/><line style="stroke:#181818;stroke-width:1.0;" x1="404.97" x2="404.97" y1="515" y2="523"/><line style="stroke:#181818;stroke-width:1.0;" x1="401.97" x2="401.97" y1="515" y2="523"/><line style="stroke:#181818;stroke-width:1.0;" x1="400.97" x2="408.97" y1="519" y2="519"/><line style="stroke:#181818;stroke-width:1.0;" x1="397.33" x2="391.33" y1="432.23" y2="424.23"/><line style="stroke:#181818;stroke-width:1.0;" x1="397.33" x2="403.33" y1="432.23" y2="424.23"/><line style="stroke:#181818;stroke-width:1.0;" x1="397.33" x2="397.33" y1="432.23" y2="424.23"/><ellipse cx="397.33" cy="438.23" fill="none" rx="4" ry="4" style="stroke:#181818;stroke-width:1.0;"/></g><!--MD5=[28348f9f9e9b78fdd238c553778b7d1e]
link _data to var_idx--><g id="link__data_var_idx"><path codeLine="65" d="M385.67,432.08 C385.67,432.08 385.67,749 385.67,749 C385.67,749 192.31,749 192.31,749 " fill="none" id="_data-var_idx" style="stroke:#181818;stroke-width:1.0;stroke-dasharray:7.0,7.0;"/><line style="stroke:#181818;stroke-width:1.0;" x1="188.31" x2="188.31" y1="753" y2="745"/><line style="stroke:#181818;stroke-width:1.0;" x1="191.31" x2="191.31" y1="753" y2="745"/><line style="stroke:#181818;stroke-width:1.0;" x1="192.31" x2="184.31" y1="749" y2="749"/><line style="stroke:#181818;stroke-width:1.0;" x1="385.67" x2="379.67" y1="432.08" y2="424.08"/><line style="stroke:#181818;stroke-width:1.0;" x1="385.67" x2="391.67" y1="432.08" y2="424.08"/><line style="stroke:#181818;stroke-width:1.0;" x1="385.67" x2="385.67" y1="432.08" y2="424.08"/><ellipse cx="385.67" cy="438.08" fill="none" rx="4" ry="4" style="stroke:#181818;stroke-width:1.0;"/></g><!--MD5=[ea8f48f4b3ea4dac400c556c2606b690]
link meta_idx to _data--><g id="link_meta_idx__data"><path codeLine="66" d="M354.75,112.05 C354.75,112.05 354.75,155.64 354.75,155.64 " fill="none" id="meta_idx-_data" style="stroke:#181818;stroke-width:1.0;stroke-dasharray:7.0,7.0;"/><line style="stroke:#181818;stroke-width:1.0;" x1="354.75" x2="360.75" y1="155.64" y2="163.64"/><line style="stroke:#181818;stroke-width:1.0;" x1="354.75" x2="348.75" y1="155.64" y2="163.64"/><line style="stroke:#181818;stroke-width:1.0;" x1="354.75" x2="354.75" y1="155.64" y2="163.64"/><ellipse cx="354.75" cy="149.64" fill="none" rx="4" ry="4" style="stroke:#181818;stroke-width:1.0;"/><line style="stroke:#181818;stroke-width:1.0;" x1="350.75" x2="358.75" y1="108.05" y2="108.05"/><line style="stroke:#181818;stroke-width:1.0;" x1="350.75" x2="358.75" y1="111.05" y2="111.05"/><line style="stroke:#181818;stroke-width:1.0;" x1="354.75" x2="354.75" y1="112.05" y2="104.05"/></g><!--MD5=[341424d687347e2eadc821dfe2c04989]
link metadata to var_idx--><g id="link_metadata_var_idx"><path codeLine="67" d="M455,687.04 C455,687.04 455,758 455,758 C455,758 192.24,758 192.24,758 " fill="none" id="metadata-var_idx" style="stroke:#181818;stroke-width:1.0;stroke-dasharray:7.0,7.0;"/><line style="stroke:#181818;stroke-width:1.0;" x1="192.24" x2="184.24" y1="758" y2="764"/><line style="stroke:#181818;stroke-width:1.0;" x1="192.24" x2="184.24" y1="758" y2="752"/><line style="stroke:#181818;stroke-width:1.0;" x1="192.24" x2="184.24" y1="758" y2="758"/><ellipse cx="198.24" cy="758" fill="none" rx="4" ry="4" style="stroke:#181818;stroke-width:1.0;"/><line style="stroke:#181818;stroke-width:1.0;" x1="455" x2="449" y1="687.04" y2="679.04"/><line style="stroke:#181818;stroke-width:1.0;" x1="455" x2="461" y1="687.04" y2="679.04"/><line style="stroke:#181818;stroke-width:1.0;" x1="455" x2="455" y1="687.04" y2="679.04"/><ellipse cx="455" cy="693.04" fill="none" rx="4" ry="4" style="stroke:#181818;stroke-width:1.0;"/></g><!--MD5=[9e789429a448bdaa6267a1c1ea1c34f8]
link meta_idx to metadata--><g id="link_meta_idx_metadata"><path codeLine="68" d="M443.75,111.04 C443.75,111.04 443.75,476.83 443.75,476.83 " fill="none" id="meta_idx-metadata" style="stroke:#181818;stroke-width:1.0;stroke-dasharray:7.0,7.0;"/><line style="stroke:#181818;stroke-width:1.0;" x1="447.75" x2="439.75" y1="479.83" y2="479.83"/><line style="stroke:#181818;stroke-width:1.0;" x1="447.75" x2="439.75" y1="476.83" y2="476.83"/><line style="stroke:#181818;stroke-width:1.0;" x1="443.75" x2="443.75" y1="475.83" y2="483.83"/><line style="stroke:#181818;stroke-width:1.0;" x1="439.75" x2="447.75" y1="108.04" y2="108.04"/><line style="stroke:#181818;stroke-width:1.0;" x1="439.75" x2="447.75" y1="111.04" y2="111.04"/><line style="stroke:#181818;stroke-width:1.0;" x1="443.75" x2="443.75" y1="112.04" y2="104.04"/></g><!--MD5=[d4d7b3f3444e8043d07623a39b3ff29b]
@startuml
' hide the spot
' hide circle

' avoid problems with angled crows feet
skinparam linetype ortho

entity "_data" {
  *row_idx: integer <<generated>>
  - -
  *metadata_index : float
  *time: float
  *latitude: float
  *longitude: float
  *altitude: float
  *var_index: float
  *value: float
  *data_height: float
  *data_error: float
  *flags: dictionary
  stop_time: float
  trash: float
}
note bottom of _data
2D numpy float-array

Daniel: Is metadata_index == station_id in metadata?
end note

entity "metadata" {
  *station_id: float
  - -
  *var_info|varibales : list_of_varnames|dictionary
  *instrument_name
  *latitude: float
  *longitude: float
  *altitude: float
  *station_name: string
  *country: string
  *data_id : string_for_documentation
}
note bottom of metadata
Dictionary of stations
end note

entity "meta_idx" {
  *station_id : float
  *var_name : string
  - -
  *row_idxs : list(row_idx)
}
note right of meta_idx
Dictionary
end note

entity "var_idx" {
  *var_index: float
  - -
  *var_name: string
}
note right of var_idx
Dictionary
end note

_data }o..|| metadata
_data }o..|| var_idx
meta_idx ||..o{ _data
metadata }o..o{ var_idx
meta_idx ||..|| metadata
'_data |o..o{
@enduml

@startuml

skinparam linetype ortho

entity "_data" {
  *row_idx: integer <<generated>>
  - -
  *metadata_index : float
  *time: float
  *latitude: float
  *longitude: float
  *altitude: float
  *var_index: float
  *value: float
  *data_height: float
  *data_error: float
  *flags: dictionary
  stop_time: float
  trash: float
}
note bottom of _data
2D numpy float-array

Daniel: Is metadata_index == station_id in metadata?
end note

entity "metadata" {
  *station_id: float
  - -
  *var_info|varibales : list_of_varnames|dictionary
  *instrument_name
  *latitude: float
  *longitude: float
  *altitude: float
  *station_name: string
  *country: string
  *data_id : string_for_documentation
}
note bottom of metadata
Dictionary of stations
end note

entity "meta_idx" {
  *station_id : float
  *var_name : string
  - -
  *row_idxs : list(row_idx)
}
note right of meta_idx
Dictionary
end note

entity "var_idx" {
  *var_index: float
  - -
  *var_name: string
}
note right of var_idx
Dictionary
end note

_data }o..|| metadata
_data }o..|| var_idx
meta_idx ||..o{ _data
metadata }o..o{ var_idx
meta_idx ||..|| metadata
@enduml

PlantUML version 1.2022.7(Mon Aug 22 19:01:30 CEST 2022)
(GPL source distribution)
Java Runtime: OpenJDK Runtime Environment
JVM: OpenJDK 64-Bit Server VM
Default Encoding: UTF-8
Language: en
Country: US
--></g></svg>